%TF.GenerationSoftware,KiCad,Pcbnew,(6.0.11)*%
%TF.CreationDate,2023-04-23T10:13:21-07:00*%
%TF.ProjectId,Ocelothat,4f63656c-6f74-4686-9174-2e6b69636164,rev?*%
%TF.SameCoordinates,Original*%
%TF.FileFunction,Soldermask,Bot*%
%TF.FilePolarity,Negative*%
%FSLAX46Y46*%
G04 Gerber Fmt 4.6, Leading zero omitted, Abs format (unit mm)*
G04 Created by KiCad (PCBNEW (6.0.11)) date 2023-04-23 10:13:21*
%MOMM*%
%LPD*%
G01*
G04 APERTURE LIST*
%ADD10R,2.200000X2.200000*%
%ADD11C,2.200000*%
%ADD12R,1.700000X1.700000*%
%ADD13O,1.700000X1.700000*%
G04 APERTURE END LIST*
D10*
%TO.C,J3*%
X136665000Y-78840000D03*
D11*
X139205000Y-78840000D03*
X141745000Y-78840000D03*
X144285000Y-78840000D03*
X146825000Y-78840000D03*
X149365000Y-78840000D03*
%TD*%
D10*
%TO.C,J8*%
X164360000Y-78540000D03*
D11*
X166900000Y-78540000D03*
X169440000Y-78540000D03*
X171980000Y-78540000D03*
X174520000Y-78540000D03*
X177060000Y-78540000D03*
X179600000Y-78540000D03*
X182140000Y-78540000D03*
X184680000Y-78540000D03*
X187220000Y-78540000D03*
%TD*%
D12*
%TO.C,J6*%
X154690000Y-70140000D03*
D13*
X157230000Y-70140000D03*
X159770000Y-70140000D03*
X162310000Y-70140000D03*
X164850000Y-70140000D03*
%TD*%
D12*
%TO.C,J5*%
X126865000Y-70265000D03*
D13*
X126865000Y-72805000D03*
X129405000Y-70265000D03*
X129405000Y-72805000D03*
X131945000Y-70265000D03*
X131945000Y-72805000D03*
X134485000Y-70265000D03*
X134485000Y-72805000D03*
X137025000Y-70265000D03*
X137025000Y-72805000D03*
X139565000Y-70265000D03*
X139565000Y-72805000D03*
X142105000Y-70265000D03*
X142105000Y-72805000D03*
X144645000Y-70265000D03*
X144645000Y-72805000D03*
X147185000Y-70265000D03*
X147185000Y-72805000D03*
X149725000Y-70265000D03*
X149725000Y-72805000D03*
%TD*%
D12*
%TO.C,J2*%
X172515000Y-103190000D03*
D13*
X172515000Y-105730000D03*
X175055000Y-103190000D03*
X175055000Y-105730000D03*
X177595000Y-103190000D03*
X177595000Y-105730000D03*
X180135000Y-103190000D03*
X180135000Y-105730000D03*
X182675000Y-103190000D03*
X182675000Y-105730000D03*
%TD*%
D12*
%TO.C,J1*%
X126540000Y-105840000D03*
D13*
X126540000Y-108380000D03*
X129080000Y-105840000D03*
X129080000Y-108380000D03*
X131620000Y-105840000D03*
X131620000Y-108380000D03*
X134160000Y-105840000D03*
X134160000Y-108380000D03*
X136700000Y-105840000D03*
X136700000Y-108380000D03*
X139240000Y-105840000D03*
X139240000Y-108380000D03*
X141780000Y-105840000D03*
X141780000Y-108380000D03*
X144320000Y-105840000D03*
X144320000Y-108380000D03*
X146860000Y-105840000D03*
X146860000Y-108380000D03*
X149400000Y-105840000D03*
X149400000Y-108380000D03*
%TD*%
D12*
%TO.C,J4*%
X152065000Y-100840000D03*
D13*
X154605000Y-100840000D03*
X152065000Y-98300000D03*
X154605000Y-98300000D03*
%TD*%
D12*
%TO.C,J7*%
X174915000Y-70190000D03*
D13*
X174915000Y-72730000D03*
X177455000Y-70190000D03*
X177455000Y-72730000D03*
X179995000Y-70190000D03*
X179995000Y-72730000D03*
%TD*%
M02*
