%TF.GenerationSoftware,KiCad,Pcbnew,(6.0.11)*%
%TF.CreationDate,2023-04-23T10:13:21-07:00*%
%TF.ProjectId,Ocelothat,4f63656c-6f74-4686-9174-2e6b69636164,rev?*%
%TF.SameCoordinates,Original*%
%TF.FileFunction,Legend,Top*%
%TF.FilePolarity,Positive*%
%FSLAX46Y46*%
G04 Gerber Fmt 4.6, Leading zero omitted, Abs format (unit mm)*
G04 Created by KiCad (PCBNEW (6.0.11)) date 2023-04-23 10:13:21*
%MOMM*%
%LPD*%
G01*
G04 APERTURE LIST*
%ADD10C,0.150000*%
%ADD11C,0.254000*%
%ADD12C,0.100000*%
%ADD13C,0.120000*%
%ADD14C,0.200000*%
G04 APERTURE END LIST*
D10*
X176821133Y-83898629D02*
X176114026Y-83191522D01*
X176450744Y-83528240D02*
X176854805Y-83124179D01*
X177225194Y-83494568D02*
X176518087Y-82787461D01*
X176787461Y-82518087D02*
X177225194Y-82080355D01*
X177258866Y-82585431D01*
X177359881Y-82484416D01*
X177460896Y-82450744D01*
X177528240Y-82450744D01*
X177629255Y-82484416D01*
X177797614Y-82652774D01*
X177831286Y-82753790D01*
X177831286Y-82821133D01*
X177797614Y-82922148D01*
X177595583Y-83124179D01*
X177494568Y-83157851D01*
X177427225Y-83157851D01*
X171821133Y-83698629D02*
X171114026Y-82991522D01*
X171450744Y-83328240D02*
X171854805Y-82924179D01*
X172225194Y-83294568D02*
X171518087Y-82587461D01*
X171888477Y-82351759D02*
X171888477Y-82284416D01*
X171922148Y-82183400D01*
X172090507Y-82015042D01*
X172191522Y-81981370D01*
X172258866Y-81981370D01*
X172359881Y-82015042D01*
X172427225Y-82082385D01*
X172494568Y-82217072D01*
X172494568Y-83025194D01*
X172932301Y-82587461D01*
X182608950Y-84196599D02*
X183046683Y-83758866D01*
X183080355Y-84263942D01*
X183181370Y-84162927D01*
X183282385Y-84129255D01*
X183349729Y-84129255D01*
X183450744Y-84162927D01*
X183619103Y-84331286D01*
X183652774Y-84432301D01*
X183652774Y-84499644D01*
X183619103Y-84600660D01*
X183417072Y-84802690D01*
X183316057Y-84836362D01*
X183248713Y-84836362D01*
X183989492Y-84095583D02*
X184056835Y-84095583D01*
X184056835Y-84162927D01*
X183989492Y-84162927D01*
X183989492Y-84095583D01*
X184056835Y-84162927D01*
X183619103Y-83186446D02*
X184056835Y-82748713D01*
X184090507Y-83253790D01*
X184191522Y-83152774D01*
X184292538Y-83119103D01*
X184359881Y-83119103D01*
X184460896Y-83152774D01*
X184629255Y-83321133D01*
X184662927Y-83422148D01*
X184662927Y-83489492D01*
X184629255Y-83590507D01*
X184427225Y-83792538D01*
X184326209Y-83826209D01*
X184258866Y-83826209D01*
X184258866Y-82546683D02*
X185201675Y-83018087D01*
X184730270Y-82075278D01*
X140822148Y-84572614D02*
X140418087Y-84976675D01*
X140620118Y-84774644D02*
X139913011Y-84067538D01*
X139946683Y-84235896D01*
X139946683Y-84370583D01*
X139913011Y-84471599D01*
X140451759Y-83663477D02*
X140451759Y-83596133D01*
X140485431Y-83495118D01*
X140653790Y-83326759D01*
X140754805Y-83293087D01*
X140822148Y-83293087D01*
X140923164Y-83326759D01*
X140990507Y-83394103D01*
X141057851Y-83528790D01*
X141057851Y-84336912D01*
X141495583Y-83899179D01*
X140990507Y-82990042D02*
X141933316Y-83461446D01*
X141461912Y-82518637D01*
X147583950Y-84621599D02*
X148021683Y-84183866D01*
X148055355Y-84688942D01*
X148156370Y-84587927D01*
X148257385Y-84554255D01*
X148324729Y-84554255D01*
X148425744Y-84587927D01*
X148594103Y-84756286D01*
X148627774Y-84857301D01*
X148627774Y-84924644D01*
X148594103Y-85025660D01*
X148392072Y-85227690D01*
X148291057Y-85261362D01*
X148223713Y-85261362D01*
X148964492Y-84520583D02*
X149031835Y-84520583D01*
X149031835Y-84587927D01*
X148964492Y-84587927D01*
X148964492Y-84520583D01*
X149031835Y-84587927D01*
X148594103Y-83611446D02*
X149031835Y-83173713D01*
X149065507Y-83678790D01*
X149166522Y-83577774D01*
X149267538Y-83544103D01*
X149334881Y-83544103D01*
X149435896Y-83577774D01*
X149604255Y-83746133D01*
X149637927Y-83847148D01*
X149637927Y-83914492D01*
X149604255Y-84015507D01*
X149402225Y-84217538D01*
X149301209Y-84251209D01*
X149233866Y-84251209D01*
X149233866Y-82971683D02*
X150176675Y-83443087D01*
X149705270Y-82500278D01*
X185897698Y-83425194D02*
X185796683Y-83458866D01*
X185695668Y-83559881D01*
X185628324Y-83694568D01*
X185628324Y-83829255D01*
X185661996Y-83930270D01*
X185763011Y-84098629D01*
X185864026Y-84199644D01*
X186032385Y-84300660D01*
X186133400Y-84334331D01*
X186268087Y-84334331D01*
X186402774Y-84266988D01*
X186470118Y-84199644D01*
X186537461Y-84064957D01*
X186537461Y-83997614D01*
X186301759Y-83761912D01*
X186167072Y-83896599D01*
X186907851Y-83761912D02*
X186200744Y-83054805D01*
X187311912Y-83357851D01*
X186604805Y-82650744D01*
X187648629Y-83021133D02*
X186941522Y-82314026D01*
X187109881Y-82145668D01*
X187244568Y-82078324D01*
X187379255Y-82078324D01*
X187480270Y-82111996D01*
X187648629Y-82213011D01*
X187749644Y-82314026D01*
X187850660Y-82482385D01*
X187884331Y-82583400D01*
X187884331Y-82718087D01*
X187816988Y-82852774D01*
X187648629Y-83021133D01*
X144136996Y-86607766D02*
X143564576Y-86506751D01*
X143732935Y-87011827D02*
X143025828Y-86304721D01*
X143295202Y-86035347D01*
X143396217Y-86001675D01*
X143463561Y-86001675D01*
X143564576Y-86035347D01*
X143665591Y-86136362D01*
X143699263Y-86237377D01*
X143699263Y-86304721D01*
X143665591Y-86405736D01*
X143396217Y-86675110D01*
X144069652Y-85934331D02*
X144305355Y-85698629D01*
X144776759Y-85968003D02*
X144440042Y-86304721D01*
X143732935Y-85597614D01*
X144069652Y-85260896D01*
X145012461Y-85664957D02*
X145147148Y-85597614D01*
X145315507Y-85429255D01*
X145349179Y-85328240D01*
X145349179Y-85260896D01*
X145315507Y-85159881D01*
X145248164Y-85092538D01*
X145147148Y-85058866D01*
X145079805Y-85058866D01*
X144978790Y-85092538D01*
X144810431Y-85193553D01*
X144709416Y-85227225D01*
X144642072Y-85227225D01*
X144541057Y-85193553D01*
X144473713Y-85126209D01*
X144440042Y-85025194D01*
X144440042Y-84957851D01*
X144473713Y-84856835D01*
X144642072Y-84688477D01*
X144776759Y-84621133D01*
X145652225Y-85227225D02*
X146190973Y-84688477D01*
X146224644Y-84452774D02*
X146359331Y-84385431D01*
X146527690Y-84217072D01*
X146561362Y-84116057D01*
X146561362Y-84048713D01*
X146527690Y-83947698D01*
X146460347Y-83880355D01*
X146359331Y-83846683D01*
X146291988Y-83846683D01*
X146190973Y-83880355D01*
X146022614Y-83981370D01*
X145921599Y-84015042D01*
X145854255Y-84015042D01*
X145753240Y-83981370D01*
X145685896Y-83914026D01*
X145652225Y-83813011D01*
X145652225Y-83745668D01*
X145685896Y-83644652D01*
X145854255Y-83476294D01*
X145988942Y-83408950D01*
X146190973Y-83139576D02*
X147066438Y-83678324D01*
X146696049Y-83038561D01*
X147335812Y-83408950D01*
X146797064Y-82533485D01*
X164492030Y-83227732D02*
X164155312Y-83564450D01*
X163448206Y-82857343D01*
X165098122Y-82621641D02*
X164694061Y-83025702D01*
X164896091Y-82823671D02*
X164188984Y-82116564D01*
X164222656Y-82284923D01*
X164222656Y-82419610D01*
X164188984Y-82520625D01*
X174742030Y-83477732D02*
X174405312Y-83814450D01*
X173698206Y-83107343D01*
X174203282Y-82602267D02*
X174641015Y-82164534D01*
X174674687Y-82669610D01*
X174775702Y-82568595D01*
X174876717Y-82534923D01*
X174944061Y-82534923D01*
X175045076Y-82568595D01*
X175213435Y-82736954D01*
X175247106Y-82837969D01*
X175247106Y-82905312D01*
X175213435Y-83006328D01*
X175011404Y-83208358D01*
X174910389Y-83242030D01*
X174843045Y-83242030D01*
X181672148Y-84047614D02*
X181268087Y-84451675D01*
X181470118Y-84249644D02*
X180763011Y-83542538D01*
X180796683Y-83710896D01*
X180796683Y-83845583D01*
X180763011Y-83946599D01*
X181301759Y-83138477D02*
X181301759Y-83071133D01*
X181335431Y-82970118D01*
X181503790Y-82801759D01*
X181604805Y-82768087D01*
X181672148Y-82768087D01*
X181773164Y-82801759D01*
X181840507Y-82869103D01*
X181907851Y-83003790D01*
X181907851Y-83811912D01*
X182345583Y-83374179D01*
X181840507Y-82465042D02*
X182783316Y-82936446D01*
X182311912Y-81993637D01*
X169492030Y-83277732D02*
X169155312Y-83614450D01*
X168448206Y-82907343D01*
X169054297Y-82435938D02*
X169054297Y-82368595D01*
X169087969Y-82267580D01*
X169256328Y-82099221D01*
X169357343Y-82065549D01*
X169424687Y-82065549D01*
X169525702Y-82099221D01*
X169593045Y-82166564D01*
X169660389Y-82301251D01*
X169660389Y-83109374D01*
X170098122Y-82671641D01*
X141174771Y-86827648D02*
X141309458Y-86760305D01*
X141477816Y-86591946D01*
X141511488Y-86490931D01*
X141511488Y-86423587D01*
X141477816Y-86322572D01*
X141410473Y-86255228D01*
X141309458Y-86221557D01*
X141242114Y-86221557D01*
X141141099Y-86255228D01*
X140972740Y-86356244D01*
X140871725Y-86389915D01*
X140804381Y-86389915D01*
X140703366Y-86356244D01*
X140636023Y-86288900D01*
X140602351Y-86187885D01*
X140602351Y-86120541D01*
X140636023Y-86019526D01*
X140804381Y-85851167D01*
X140939068Y-85783824D01*
X141545160Y-85783824D02*
X141780862Y-85548122D01*
X142252267Y-85817496D02*
X141915549Y-86154213D01*
X141208442Y-85447106D01*
X141545160Y-85110389D01*
X141747190Y-84908358D02*
X142151251Y-84504297D01*
X142656328Y-85413435D02*
X141949221Y-84706328D01*
X142993045Y-85211404D02*
X143531793Y-84672656D01*
X143565465Y-84436954D02*
X143700152Y-84369610D01*
X143868511Y-84201251D01*
X143902183Y-84100236D01*
X143902183Y-84032893D01*
X143868511Y-83931877D01*
X143801167Y-83864534D01*
X143700152Y-83830862D01*
X143632809Y-83830862D01*
X143531793Y-83864534D01*
X143363435Y-83965549D01*
X143262419Y-83999221D01*
X143195076Y-83999221D01*
X143094061Y-83965549D01*
X143026717Y-83898206D01*
X142993045Y-83797190D01*
X142993045Y-83729847D01*
X143026717Y-83628832D01*
X143195076Y-83460473D01*
X143329763Y-83393129D01*
X143531793Y-83123755D02*
X144407259Y-83662503D01*
X144036870Y-83022740D01*
X144676633Y-83393129D01*
X144137885Y-82517664D01*
X132605397Y-87247022D02*
X132740084Y-87179679D01*
X132908442Y-87011320D01*
X132942114Y-86910305D01*
X132942114Y-86842961D01*
X132908442Y-86741946D01*
X132841099Y-86674602D01*
X132740084Y-86640931D01*
X132672740Y-86640931D01*
X132571725Y-86674602D01*
X132403366Y-86775618D01*
X132302351Y-86809289D01*
X132235007Y-86809289D01*
X132133992Y-86775618D01*
X132066649Y-86708274D01*
X132032977Y-86607259D01*
X132032977Y-86539915D01*
X132066649Y-86438900D01*
X132235007Y-86270541D01*
X132369694Y-86203198D01*
X132975786Y-86203198D02*
X133211488Y-85967496D01*
X133682893Y-86236870D02*
X133346175Y-86573587D01*
X132639068Y-85866480D01*
X132975786Y-85529763D01*
X133177816Y-85327732D02*
X133581877Y-84923671D01*
X134086954Y-85832809D02*
X133379847Y-85125702D01*
X134423671Y-85630778D02*
X134962419Y-85092030D01*
X134491015Y-84014534D02*
X134625702Y-83879847D01*
X134726717Y-83846175D01*
X134861404Y-83846175D01*
X135029763Y-83947190D01*
X135265465Y-84182893D01*
X135366480Y-84351251D01*
X135366480Y-84485938D01*
X135332809Y-84586954D01*
X135198122Y-84721641D01*
X135097106Y-84755312D01*
X134962419Y-84755312D01*
X134794061Y-84654297D01*
X134558358Y-84418595D01*
X134457343Y-84250236D01*
X134457343Y-84115549D01*
X134491015Y-84014534D01*
X135097106Y-83408442D02*
X135669526Y-83980862D01*
X135770541Y-84014534D01*
X135837885Y-84014534D01*
X135938900Y-83980862D01*
X136073587Y-83846175D01*
X136107259Y-83745160D01*
X136107259Y-83677816D01*
X136073587Y-83576801D01*
X135501167Y-83004381D01*
X135736870Y-82768679D02*
X136140931Y-82364618D01*
X136646007Y-83273755D02*
X135938900Y-82566649D01*
X135717622Y-87102140D02*
X135145202Y-87001125D01*
X135313561Y-87506201D02*
X134606454Y-86799095D01*
X134875828Y-86529721D01*
X134976843Y-86496049D01*
X135044187Y-86496049D01*
X135145202Y-86529721D01*
X135246217Y-86630736D01*
X135279889Y-86731751D01*
X135279889Y-86799095D01*
X135246217Y-86900110D01*
X134976843Y-87169484D01*
X135650278Y-86428705D02*
X135885981Y-86193003D01*
X136357385Y-86462377D02*
X136020668Y-86799095D01*
X135313561Y-86091988D01*
X135650278Y-85755270D01*
X136593087Y-86159331D02*
X136727774Y-86091988D01*
X136896133Y-85923629D01*
X136929805Y-85822614D01*
X136929805Y-85755270D01*
X136896133Y-85654255D01*
X136828790Y-85586912D01*
X136727774Y-85553240D01*
X136660431Y-85553240D01*
X136559416Y-85586912D01*
X136391057Y-85687927D01*
X136290042Y-85721599D01*
X136222698Y-85721599D01*
X136121683Y-85687927D01*
X136054339Y-85620583D01*
X136020668Y-85519568D01*
X136020668Y-85452225D01*
X136054339Y-85351209D01*
X136222698Y-85182851D01*
X136357385Y-85115507D01*
X137232851Y-85721599D02*
X137771599Y-85182851D01*
X137300194Y-84105355D02*
X137434881Y-83970668D01*
X137535896Y-83936996D01*
X137670583Y-83936996D01*
X137838942Y-84038011D01*
X138074644Y-84273713D01*
X138175660Y-84442072D01*
X138175660Y-84576759D01*
X138141988Y-84677774D01*
X138007301Y-84812461D01*
X137906286Y-84846133D01*
X137771599Y-84846133D01*
X137603240Y-84745118D01*
X137367538Y-84509416D01*
X137266522Y-84341057D01*
X137266522Y-84206370D01*
X137300194Y-84105355D01*
X137906286Y-83499263D02*
X138478705Y-84071683D01*
X138579721Y-84105355D01*
X138647064Y-84105355D01*
X138748079Y-84071683D01*
X138882766Y-83936996D01*
X138916438Y-83835981D01*
X138916438Y-83768637D01*
X138882766Y-83667622D01*
X138310347Y-83095202D01*
X138546049Y-82859500D02*
X138950110Y-82455439D01*
X139455186Y-83364576D02*
X138748079Y-82657469D01*
X179924687Y-83295076D02*
X179217580Y-82587969D01*
X180328748Y-82891015D02*
X179621641Y-82790000D01*
X179621641Y-82183908D02*
X179621641Y-82992030D01*
X166571133Y-83698629D02*
X165864026Y-82991522D01*
X166200744Y-83328240D02*
X166604805Y-82924179D01*
X166975194Y-83294568D02*
X166268087Y-82587461D01*
X167682301Y-82587461D02*
X167278240Y-82991522D01*
X167480270Y-82789492D02*
X166773164Y-82082385D01*
X166806835Y-82250744D01*
X166806835Y-82385431D01*
X166773164Y-82486446D01*
D11*
%TO.C,D1*%
X160602619Y-109364523D02*
X160602619Y-108094523D01*
X160905000Y-108094523D01*
X161086428Y-108155000D01*
X161207380Y-108275952D01*
X161267857Y-108396904D01*
X161328333Y-108638809D01*
X161328333Y-108820238D01*
X161267857Y-109062142D01*
X161207380Y-109183095D01*
X161086428Y-109304047D01*
X160905000Y-109364523D01*
X160602619Y-109364523D01*
X162537857Y-109364523D02*
X161812142Y-109364523D01*
X162175000Y-109364523D02*
X162175000Y-108094523D01*
X162054047Y-108275952D01*
X161933095Y-108396904D01*
X161812142Y-108457380D01*
D10*
%TO.C,Q2*%
X133162619Y-89935238D02*
X133115000Y-90030476D01*
X133019761Y-90125714D01*
X132876904Y-90268571D01*
X132829285Y-90363809D01*
X132829285Y-90459047D01*
X133067380Y-90411428D02*
X133019761Y-90506666D01*
X132924523Y-90601904D01*
X132734047Y-90649523D01*
X132400714Y-90649523D01*
X132210238Y-90601904D01*
X132115000Y-90506666D01*
X132067380Y-90411428D01*
X132067380Y-90220952D01*
X132115000Y-90125714D01*
X132210238Y-90030476D01*
X132400714Y-89982857D01*
X132734047Y-89982857D01*
X132924523Y-90030476D01*
X133019761Y-90125714D01*
X133067380Y-90220952D01*
X133067380Y-90411428D01*
X132162619Y-89601904D02*
X132115000Y-89554285D01*
X132067380Y-89459047D01*
X132067380Y-89220952D01*
X132115000Y-89125714D01*
X132162619Y-89078095D01*
X132257857Y-89030476D01*
X132353095Y-89030476D01*
X132495952Y-89078095D01*
X133067380Y-89649523D01*
X133067380Y-89030476D01*
%TO.C,Q3*%
X141112619Y-95885238D02*
X141065000Y-95980476D01*
X140969761Y-96075714D01*
X140826904Y-96218571D01*
X140779285Y-96313809D01*
X140779285Y-96409047D01*
X141017380Y-96361428D02*
X140969761Y-96456666D01*
X140874523Y-96551904D01*
X140684047Y-96599523D01*
X140350714Y-96599523D01*
X140160238Y-96551904D01*
X140065000Y-96456666D01*
X140017380Y-96361428D01*
X140017380Y-96170952D01*
X140065000Y-96075714D01*
X140160238Y-95980476D01*
X140350714Y-95932857D01*
X140684047Y-95932857D01*
X140874523Y-95980476D01*
X140969761Y-96075714D01*
X141017380Y-96170952D01*
X141017380Y-96361428D01*
X140017380Y-95599523D02*
X140017380Y-94980476D01*
X140398333Y-95313809D01*
X140398333Y-95170952D01*
X140445952Y-95075714D01*
X140493571Y-95028095D01*
X140588809Y-94980476D01*
X140826904Y-94980476D01*
X140922142Y-95028095D01*
X140969761Y-95075714D01*
X141017380Y-95170952D01*
X141017380Y-95456666D01*
X140969761Y-95551904D01*
X140922142Y-95599523D01*
%TO.C,R1*%
X132598333Y-93317380D02*
X132265000Y-92841190D01*
X132026904Y-93317380D02*
X132026904Y-92317380D01*
X132407857Y-92317380D01*
X132503095Y-92365000D01*
X132550714Y-92412619D01*
X132598333Y-92507857D01*
X132598333Y-92650714D01*
X132550714Y-92745952D01*
X132503095Y-92793571D01*
X132407857Y-92841190D01*
X132026904Y-92841190D01*
X133550714Y-93317380D02*
X132979285Y-93317380D01*
X133265000Y-93317380D02*
X133265000Y-92317380D01*
X133169761Y-92460238D01*
X133074523Y-92555476D01*
X132979285Y-92603095D01*
D11*
%TO.C,U1*%
X169072380Y-86994523D02*
X169072380Y-88022619D01*
X169132857Y-88143571D01*
X169193333Y-88204047D01*
X169314285Y-88264523D01*
X169556190Y-88264523D01*
X169677142Y-88204047D01*
X169737619Y-88143571D01*
X169798095Y-88022619D01*
X169798095Y-86994523D01*
X171068095Y-88264523D02*
X170342380Y-88264523D01*
X170705238Y-88264523D02*
X170705238Y-86994523D01*
X170584285Y-87175952D01*
X170463333Y-87296904D01*
X170342380Y-87357380D01*
D10*
%TO.C,D2*%
X179712380Y-87003095D02*
X178712380Y-87003095D01*
X178712380Y-86765000D01*
X178760000Y-86622142D01*
X178855238Y-86526904D01*
X178950476Y-86479285D01*
X179140952Y-86431666D01*
X179283809Y-86431666D01*
X179474285Y-86479285D01*
X179569523Y-86526904D01*
X179664761Y-86622142D01*
X179712380Y-86765000D01*
X179712380Y-87003095D01*
X178807619Y-86050714D02*
X178760000Y-86003095D01*
X178712380Y-85907857D01*
X178712380Y-85669761D01*
X178760000Y-85574523D01*
X178807619Y-85526904D01*
X178902857Y-85479285D01*
X178998095Y-85479285D01*
X179140952Y-85526904D01*
X179712380Y-86098333D01*
X179712380Y-85479285D01*
%TO.C,R5*%
X153598333Y-110117380D02*
X153265000Y-109641190D01*
X153026904Y-110117380D02*
X153026904Y-109117380D01*
X153407857Y-109117380D01*
X153503095Y-109165000D01*
X153550714Y-109212619D01*
X153598333Y-109307857D01*
X153598333Y-109450714D01*
X153550714Y-109545952D01*
X153503095Y-109593571D01*
X153407857Y-109641190D01*
X153026904Y-109641190D01*
X154503095Y-109117380D02*
X154026904Y-109117380D01*
X153979285Y-109593571D01*
X154026904Y-109545952D01*
X154122142Y-109498333D01*
X154360238Y-109498333D01*
X154455476Y-109545952D01*
X154503095Y-109593571D01*
X154550714Y-109688809D01*
X154550714Y-109926904D01*
X154503095Y-110022142D01*
X154455476Y-110069761D01*
X154360238Y-110117380D01*
X154122142Y-110117380D01*
X154026904Y-110069761D01*
X153979285Y-110022142D01*
%TO.C,R7*%
X162992380Y-106331666D02*
X162516190Y-106665000D01*
X162992380Y-106903095D02*
X161992380Y-106903095D01*
X161992380Y-106522142D01*
X162040000Y-106426904D01*
X162087619Y-106379285D01*
X162182857Y-106331666D01*
X162325714Y-106331666D01*
X162420952Y-106379285D01*
X162468571Y-106426904D01*
X162516190Y-106522142D01*
X162516190Y-106903095D01*
X161992380Y-105998333D02*
X161992380Y-105331666D01*
X162992380Y-105760238D01*
%TO.C,J3*%
X133331666Y-78192380D02*
X133331666Y-78906666D01*
X133284047Y-79049523D01*
X133188809Y-79144761D01*
X133045952Y-79192380D01*
X132950714Y-79192380D01*
X133712619Y-78192380D02*
X134331666Y-78192380D01*
X133998333Y-78573333D01*
X134141190Y-78573333D01*
X134236428Y-78620952D01*
X134284047Y-78668571D01*
X134331666Y-78763809D01*
X134331666Y-79001904D01*
X134284047Y-79097142D01*
X134236428Y-79144761D01*
X134141190Y-79192380D01*
X133855476Y-79192380D01*
X133760238Y-79144761D01*
X133712619Y-79097142D01*
%TO.C,Q4*%
X142112619Y-89935238D02*
X142065000Y-90030476D01*
X141969761Y-90125714D01*
X141826904Y-90268571D01*
X141779285Y-90363809D01*
X141779285Y-90459047D01*
X142017380Y-90411428D02*
X141969761Y-90506666D01*
X141874523Y-90601904D01*
X141684047Y-90649523D01*
X141350714Y-90649523D01*
X141160238Y-90601904D01*
X141065000Y-90506666D01*
X141017380Y-90411428D01*
X141017380Y-90220952D01*
X141065000Y-90125714D01*
X141160238Y-90030476D01*
X141350714Y-89982857D01*
X141684047Y-89982857D01*
X141874523Y-90030476D01*
X141969761Y-90125714D01*
X142017380Y-90220952D01*
X142017380Y-90411428D01*
X141350714Y-89125714D02*
X142017380Y-89125714D01*
X140969761Y-89363809D02*
X141684047Y-89601904D01*
X141684047Y-88982857D01*
%TO.C,C2*%
X177357142Y-86431666D02*
X177404761Y-86479285D01*
X177452380Y-86622142D01*
X177452380Y-86717380D01*
X177404761Y-86860238D01*
X177309523Y-86955476D01*
X177214285Y-87003095D01*
X177023809Y-87050714D01*
X176880952Y-87050714D01*
X176690476Y-87003095D01*
X176595238Y-86955476D01*
X176500000Y-86860238D01*
X176452380Y-86717380D01*
X176452380Y-86622142D01*
X176500000Y-86479285D01*
X176547619Y-86431666D01*
X176547619Y-86050714D02*
X176500000Y-86003095D01*
X176452380Y-85907857D01*
X176452380Y-85669761D01*
X176500000Y-85574523D01*
X176547619Y-85526904D01*
X176642857Y-85479285D01*
X176738095Y-85479285D01*
X176880952Y-85526904D01*
X177452380Y-86098333D01*
X177452380Y-85479285D01*
%TO.C,C1*%
X174622070Y-89206666D02*
X174669689Y-89254285D01*
X174717308Y-89397142D01*
X174717308Y-89492380D01*
X174669689Y-89635238D01*
X174574451Y-89730476D01*
X174479213Y-89778095D01*
X174288737Y-89825714D01*
X174145880Y-89825714D01*
X173955404Y-89778095D01*
X173860166Y-89730476D01*
X173764928Y-89635238D01*
X173717308Y-89492380D01*
X173717308Y-89397142D01*
X173764928Y-89254285D01*
X173812547Y-89206666D01*
X174717308Y-88254285D02*
X174717308Y-88825714D01*
X174717308Y-88540000D02*
X173717308Y-88540000D01*
X173860166Y-88635238D01*
X173955404Y-88730476D01*
X174003023Y-88825714D01*
%TO.C,R2*%
X131573333Y-98842380D02*
X131240000Y-98366190D01*
X131001904Y-98842380D02*
X131001904Y-97842380D01*
X131382857Y-97842380D01*
X131478095Y-97890000D01*
X131525714Y-97937619D01*
X131573333Y-98032857D01*
X131573333Y-98175714D01*
X131525714Y-98270952D01*
X131478095Y-98318571D01*
X131382857Y-98366190D01*
X131001904Y-98366190D01*
X131954285Y-97937619D02*
X132001904Y-97890000D01*
X132097142Y-97842380D01*
X132335238Y-97842380D01*
X132430476Y-97890000D01*
X132478095Y-97937619D01*
X132525714Y-98032857D01*
X132525714Y-98128095D01*
X132478095Y-98270952D01*
X131906666Y-98842380D01*
X132525714Y-98842380D01*
%TO.C,J8*%
X175456666Y-73832380D02*
X175456666Y-74546666D01*
X175409047Y-74689523D01*
X175313809Y-74784761D01*
X175170952Y-74832380D01*
X175075714Y-74832380D01*
X176075714Y-74260952D02*
X175980476Y-74213333D01*
X175932857Y-74165714D01*
X175885238Y-74070476D01*
X175885238Y-74022857D01*
X175932857Y-73927619D01*
X175980476Y-73880000D01*
X176075714Y-73832380D01*
X176266190Y-73832380D01*
X176361428Y-73880000D01*
X176409047Y-73927619D01*
X176456666Y-74022857D01*
X176456666Y-74070476D01*
X176409047Y-74165714D01*
X176361428Y-74213333D01*
X176266190Y-74260952D01*
X176075714Y-74260952D01*
X175980476Y-74308571D01*
X175932857Y-74356190D01*
X175885238Y-74451428D01*
X175885238Y-74641904D01*
X175932857Y-74737142D01*
X175980476Y-74784761D01*
X176075714Y-74832380D01*
X176266190Y-74832380D01*
X176361428Y-74784761D01*
X176409047Y-74737142D01*
X176456666Y-74641904D01*
X176456666Y-74451428D01*
X176409047Y-74356190D01*
X176361428Y-74308571D01*
X176266190Y-74260952D01*
%TO.C,R4*%
X139523333Y-98917380D02*
X139190000Y-98441190D01*
X138951904Y-98917380D02*
X138951904Y-97917380D01*
X139332857Y-97917380D01*
X139428095Y-97965000D01*
X139475714Y-98012619D01*
X139523333Y-98107857D01*
X139523333Y-98250714D01*
X139475714Y-98345952D01*
X139428095Y-98393571D01*
X139332857Y-98441190D01*
X138951904Y-98441190D01*
X140380476Y-98250714D02*
X140380476Y-98917380D01*
X140142380Y-97869761D02*
X139904285Y-98584047D01*
X140523333Y-98584047D01*
%TO.C,Q1*%
X132387619Y-95810238D02*
X132340000Y-95905476D01*
X132244761Y-96000714D01*
X132101904Y-96143571D01*
X132054285Y-96238809D01*
X132054285Y-96334047D01*
X132292380Y-96286428D02*
X132244761Y-96381666D01*
X132149523Y-96476904D01*
X131959047Y-96524523D01*
X131625714Y-96524523D01*
X131435238Y-96476904D01*
X131340000Y-96381666D01*
X131292380Y-96286428D01*
X131292380Y-96095952D01*
X131340000Y-96000714D01*
X131435238Y-95905476D01*
X131625714Y-95857857D01*
X131959047Y-95857857D01*
X132149523Y-95905476D01*
X132244761Y-96000714D01*
X132292380Y-96095952D01*
X132292380Y-96286428D01*
X132292380Y-94905476D02*
X132292380Y-95476904D01*
X132292380Y-95191190D02*
X131292380Y-95191190D01*
X131435238Y-95286428D01*
X131530476Y-95381666D01*
X131578095Y-95476904D01*
%TO.C,R3*%
X140548333Y-93317380D02*
X140215000Y-92841190D01*
X139976904Y-93317380D02*
X139976904Y-92317380D01*
X140357857Y-92317380D01*
X140453095Y-92365000D01*
X140500714Y-92412619D01*
X140548333Y-92507857D01*
X140548333Y-92650714D01*
X140500714Y-92745952D01*
X140453095Y-92793571D01*
X140357857Y-92841190D01*
X139976904Y-92841190D01*
X140881666Y-92317380D02*
X141500714Y-92317380D01*
X141167380Y-92698333D01*
X141310238Y-92698333D01*
X141405476Y-92745952D01*
X141453095Y-92793571D01*
X141500714Y-92888809D01*
X141500714Y-93126904D01*
X141453095Y-93222142D01*
X141405476Y-93269761D01*
X141310238Y-93317380D01*
X141024523Y-93317380D01*
X140929285Y-93269761D01*
X140881666Y-93222142D01*
%TO.C,R6*%
X157173333Y-104242380D02*
X156840000Y-103766190D01*
X156601904Y-104242380D02*
X156601904Y-103242380D01*
X156982857Y-103242380D01*
X157078095Y-103290000D01*
X157125714Y-103337619D01*
X157173333Y-103432857D01*
X157173333Y-103575714D01*
X157125714Y-103670952D01*
X157078095Y-103718571D01*
X156982857Y-103766190D01*
X156601904Y-103766190D01*
X158030476Y-103242380D02*
X157840000Y-103242380D01*
X157744761Y-103290000D01*
X157697142Y-103337619D01*
X157601904Y-103480476D01*
X157554285Y-103670952D01*
X157554285Y-104051904D01*
X157601904Y-104147142D01*
X157649523Y-104194761D01*
X157744761Y-104242380D01*
X157935238Y-104242380D01*
X158030476Y-104194761D01*
X158078095Y-104147142D01*
X158125714Y-104051904D01*
X158125714Y-103813809D01*
X158078095Y-103718571D01*
X158030476Y-103670952D01*
X157935238Y-103623333D01*
X157744761Y-103623333D01*
X157649523Y-103670952D01*
X157601904Y-103718571D01*
X157554285Y-103813809D01*
D12*
%TO.C,D1*%
X159040000Y-108290000D02*
X159040000Y-108290000D01*
X157340000Y-106640000D02*
X157740000Y-106640000D01*
X159140000Y-108290000D02*
X159140000Y-108290000D01*
X157340000Y-108740000D02*
X157740000Y-108740000D01*
X159040000Y-108290000D02*
G75*
G03*
X159140000Y-108290000I50000J0D01*
G01*
X159140000Y-108290000D02*
G75*
G03*
X159040000Y-108290000I-50000J0D01*
G01*
D13*
%TO.C,Q2*%
X133655000Y-89915000D02*
X133655000Y-89265000D01*
X136775000Y-89915000D02*
X136775000Y-89265000D01*
X136775000Y-89915000D02*
X136775000Y-90565000D01*
X133655000Y-89915000D02*
X133655000Y-91590000D01*
%TO.C,Q3*%
X139650000Y-95740000D02*
X139650000Y-95090000D01*
X136530000Y-95740000D02*
X136530000Y-95090000D01*
X139650000Y-95740000D02*
X139650000Y-96390000D01*
X136530000Y-95740000D02*
X136530000Y-97415000D01*
%TO.C,R1*%
X134868641Y-93370000D02*
X134561359Y-93370000D01*
X134868641Y-92610000D02*
X134561359Y-92610000D01*
D14*
%TO.C,U1*%
X168440000Y-85240000D02*
X171640000Y-85240000D01*
X171640000Y-90140000D02*
X168440000Y-90140000D01*
X168440000Y-90140000D02*
X168440000Y-85240000D01*
X173540000Y-90270000D02*
X171990000Y-90270000D01*
X171640000Y-85240000D02*
X171640000Y-90140000D01*
D12*
%TO.C,D2*%
X178140000Y-85175000D02*
G75*
G03*
X178140000Y-85175000I-50000J0D01*
G01*
D13*
%TO.C,R5*%
X153883641Y-108085000D02*
X153576359Y-108085000D01*
X153883641Y-108845000D02*
X153576359Y-108845000D01*
%TO.C,R7*%
X161420000Y-106443641D02*
X161420000Y-106136359D01*
X160660000Y-106443641D02*
X160660000Y-106136359D01*
%TO.C,J3*%
X134865000Y-82240000D02*
X135365000Y-82240000D01*
X135105000Y-76140000D02*
X150925000Y-76140000D01*
X135105000Y-82000000D02*
X150925000Y-82000000D01*
X135105000Y-75680000D02*
X135105000Y-82000000D01*
X135105000Y-81440000D02*
X150925000Y-81440000D01*
X135105000Y-75680000D02*
X150925000Y-75680000D01*
X150925000Y-75680000D02*
X150925000Y-82000000D01*
X134865000Y-81500000D02*
X134865000Y-82240000D01*
%TO.C,Q4*%
X140600000Y-89890000D02*
X140600000Y-90540000D01*
X137480000Y-89890000D02*
X137480000Y-91565000D01*
X140600000Y-89890000D02*
X140600000Y-89240000D01*
X137480000Y-89890000D02*
X137480000Y-89240000D01*
%TO.C,C2*%
X175480000Y-86157164D02*
X175480000Y-86372836D01*
X176200000Y-86157164D02*
X176200000Y-86372836D01*
%TO.C,C1*%
X175064928Y-89147836D02*
X175064928Y-88932164D01*
X175784928Y-89147836D02*
X175784928Y-88932164D01*
%TO.C,R2*%
X133611359Y-97935000D02*
X133918641Y-97935000D01*
X133611359Y-98695000D02*
X133918641Y-98695000D01*
%TO.C,J8*%
X188780000Y-75380000D02*
X188780000Y-81700000D01*
X162560000Y-81940000D02*
X163060000Y-81940000D01*
X162800000Y-81140000D02*
X188780000Y-81140000D01*
X162560000Y-81200000D02*
X162560000Y-81940000D01*
X162800000Y-75380000D02*
X188780000Y-75380000D01*
X162800000Y-75840000D02*
X188780000Y-75840000D01*
X162800000Y-75380000D02*
X162800000Y-81700000D01*
X162800000Y-81700000D02*
X188780000Y-81700000D01*
%TO.C,R4*%
X137536359Y-97960000D02*
X137843641Y-97960000D01*
X137536359Y-98720000D02*
X137843641Y-98720000D01*
%TO.C,Q1*%
X132655000Y-95715000D02*
X132655000Y-97390000D01*
X135775000Y-95715000D02*
X135775000Y-96365000D01*
X132655000Y-95715000D02*
X132655000Y-95065000D01*
X135775000Y-95715000D02*
X135775000Y-95065000D01*
%TO.C,R3*%
X138818641Y-92635000D02*
X138511359Y-92635000D01*
X138818641Y-93395000D02*
X138511359Y-93395000D01*
%TO.C,R6*%
X157136359Y-105420000D02*
X157443641Y-105420000D01*
X157136359Y-104660000D02*
X157443641Y-104660000D01*
%TD*%
M02*
