%TF.GenerationSoftware,KiCad,Pcbnew,(6.0.11)*%
%TF.CreationDate,2023-04-23T10:13:21-07:00*%
%TF.ProjectId,Ocelothat,4f63656c-6f74-4686-9174-2e6b69636164,rev?*%
%TF.SameCoordinates,Original*%
%TF.FileFunction,Soldermask,Top*%
%TF.FilePolarity,Negative*%
%FSLAX46Y46*%
G04 Gerber Fmt 4.6, Leading zero omitted, Abs format (unit mm)*
G04 Created by KiCad (PCBNEW (6.0.11)) date 2023-04-23 10:13:21*
%MOMM*%
%LPD*%
G01*
G04 APERTURE LIST*
G04 Aperture macros list*
%AMRoundRect*
0 Rectangle with rounded corners*
0 $1 Rounding radius*
0 $2 $3 $4 $5 $6 $7 $8 $9 X,Y pos of 4 corners*
0 Add a 4 corners polygon primitive as box body*
4,1,4,$2,$3,$4,$5,$6,$7,$8,$9,$2,$3,0*
0 Add four circle primitives for the rounded corners*
1,1,$1+$1,$2,$3*
1,1,$1+$1,$4,$5*
1,1,$1+$1,$6,$7*
1,1,$1+$1,$8,$9*
0 Add four rect primitives between the rounded corners*
20,1,$1+$1,$2,$3,$4,$5,0*
20,1,$1+$1,$4,$5,$6,$7,0*
20,1,$1+$1,$6,$7,$8,$9,0*
20,1,$1+$1,$8,$9,$2,$3,0*%
G04 Aperture macros list end*
%ADD10R,0.900000X0.800000*%
%ADD11RoundRect,0.150000X0.150000X-0.587500X0.150000X0.587500X-0.150000X0.587500X-0.150000X-0.587500X0*%
%ADD12RoundRect,0.135000X0.135000X0.185000X-0.135000X0.185000X-0.135000X-0.185000X0.135000X-0.185000X0*%
%ADD13R,1.550000X0.650000*%
%ADD14RoundRect,0.147500X-0.172500X0.147500X-0.172500X-0.147500X0.172500X-0.147500X0.172500X0.147500X0*%
%ADD15RoundRect,0.135000X0.185000X-0.135000X0.185000X0.135000X-0.185000X0.135000X-0.185000X-0.135000X0*%
%ADD16R,2.200000X2.200000*%
%ADD17C,2.200000*%
%ADD18RoundRect,0.140000X-0.170000X0.140000X-0.170000X-0.140000X0.170000X-0.140000X0.170000X0.140000X0*%
%ADD19RoundRect,0.140000X0.170000X-0.140000X0.170000X0.140000X-0.170000X0.140000X-0.170000X-0.140000X0*%
%ADD20RoundRect,0.135000X-0.135000X-0.185000X0.135000X-0.185000X0.135000X0.185000X-0.135000X0.185000X0*%
%ADD21R,1.700000X1.700000*%
%ADD22O,1.700000X1.700000*%
G04 APERTURE END LIST*
D10*
%TO.C,D1*%
X158440000Y-108290000D03*
X158440000Y-107090000D03*
X156640000Y-107090000D03*
X156640000Y-108290000D03*
%TD*%
D11*
%TO.C,Q2*%
X134265000Y-90852500D03*
X136165000Y-90852500D03*
X135215000Y-88977500D03*
%TD*%
%TO.C,Q3*%
X137140000Y-96677500D03*
X139040000Y-96677500D03*
X138090000Y-94802500D03*
%TD*%
D12*
%TO.C,R1*%
X135225000Y-92990000D03*
X134205000Y-92990000D03*
%TD*%
D13*
%TO.C,U1*%
X172765000Y-89595000D03*
X172765000Y-88325000D03*
X172765000Y-87055000D03*
X172765000Y-85785000D03*
X167315000Y-85785000D03*
X167315000Y-87055000D03*
X167315000Y-88325000D03*
X167315000Y-89595000D03*
%TD*%
D14*
%TO.C,D2*%
X178090000Y-85780000D03*
X178090000Y-86750000D03*
%TD*%
D12*
%TO.C,R5*%
X154240000Y-108465000D03*
X153220000Y-108465000D03*
%TD*%
D15*
%TO.C,R7*%
X161040000Y-106800000D03*
X161040000Y-105780000D03*
%TD*%
D16*
%TO.C,J3*%
X136665000Y-78840000D03*
D17*
X139205000Y-78840000D03*
X141745000Y-78840000D03*
X144285000Y-78840000D03*
X146825000Y-78840000D03*
X149365000Y-78840000D03*
%TD*%
D11*
%TO.C,Q4*%
X138090000Y-90827500D03*
X139990000Y-90827500D03*
X139040000Y-88952500D03*
%TD*%
D18*
%TO.C,C2*%
X175840000Y-85785000D03*
X175840000Y-86745000D03*
%TD*%
D19*
%TO.C,C1*%
X175424928Y-89520000D03*
X175424928Y-88560000D03*
%TD*%
D20*
%TO.C,R2*%
X133255000Y-98315000D03*
X134275000Y-98315000D03*
%TD*%
D16*
%TO.C,J8*%
X164360000Y-78540000D03*
D17*
X166900000Y-78540000D03*
X169440000Y-78540000D03*
X171980000Y-78540000D03*
X174520000Y-78540000D03*
X177060000Y-78540000D03*
X179600000Y-78540000D03*
X182140000Y-78540000D03*
X184680000Y-78540000D03*
X187220000Y-78540000D03*
%TD*%
D20*
%TO.C,R4*%
X137180000Y-98340000D03*
X138200000Y-98340000D03*
%TD*%
D11*
%TO.C,Q1*%
X133265000Y-96652500D03*
X135165000Y-96652500D03*
X134215000Y-94777500D03*
%TD*%
D12*
%TO.C,R3*%
X139175000Y-93015000D03*
X138155000Y-93015000D03*
%TD*%
D20*
%TO.C,R6*%
X156780000Y-105040000D03*
X157800000Y-105040000D03*
%TD*%
D21*
%TO.C,J6*%
X154690000Y-70140000D03*
D22*
X157230000Y-70140000D03*
X159770000Y-70140000D03*
X162310000Y-70140000D03*
X164850000Y-70140000D03*
%TD*%
D21*
%TO.C,J5*%
X126865000Y-70265000D03*
D22*
X126865000Y-72805000D03*
X129405000Y-70265000D03*
X129405000Y-72805000D03*
X131945000Y-70265000D03*
X131945000Y-72805000D03*
X134485000Y-70265000D03*
X134485000Y-72805000D03*
X137025000Y-70265000D03*
X137025000Y-72805000D03*
X139565000Y-70265000D03*
X139565000Y-72805000D03*
X142105000Y-70265000D03*
X142105000Y-72805000D03*
X144645000Y-70265000D03*
X144645000Y-72805000D03*
X147185000Y-70265000D03*
X147185000Y-72805000D03*
X149725000Y-70265000D03*
X149725000Y-72805000D03*
%TD*%
D21*
%TO.C,J2*%
X172515000Y-103190000D03*
D22*
X172515000Y-105730000D03*
X175055000Y-103190000D03*
X175055000Y-105730000D03*
X177595000Y-103190000D03*
X177595000Y-105730000D03*
X180135000Y-103190000D03*
X180135000Y-105730000D03*
X182675000Y-103190000D03*
X182675000Y-105730000D03*
%TD*%
D21*
%TO.C,J1*%
X126540000Y-105840000D03*
D22*
X126540000Y-108380000D03*
X129080000Y-105840000D03*
X129080000Y-108380000D03*
X131620000Y-105840000D03*
X131620000Y-108380000D03*
X134160000Y-105840000D03*
X134160000Y-108380000D03*
X136700000Y-105840000D03*
X136700000Y-108380000D03*
X139240000Y-105840000D03*
X139240000Y-108380000D03*
X141780000Y-105840000D03*
X141780000Y-108380000D03*
X144320000Y-105840000D03*
X144320000Y-108380000D03*
X146860000Y-105840000D03*
X146860000Y-108380000D03*
X149400000Y-105840000D03*
X149400000Y-108380000D03*
%TD*%
D21*
%TO.C,J4*%
X152065000Y-100840000D03*
D22*
X154605000Y-100840000D03*
X152065000Y-98300000D03*
X154605000Y-98300000D03*
%TD*%
D21*
%TO.C,J7*%
X174915000Y-70190000D03*
D22*
X174915000Y-72730000D03*
X177455000Y-70190000D03*
X177455000Y-72730000D03*
X179995000Y-70190000D03*
X179995000Y-72730000D03*
%TD*%
M02*
