M48
; DRILL file {KiCad (6.0.11)} date Sun Apr 23 10:13:37 2023
; FORMAT={-:-/ absolute / inch / decimal}
; #@! TF.CreationDate,2023-04-23T10:13:37-07:00
; #@! TF.GenerationSoftware,Kicad,Pcbnew,(6.0.11)
; #@! TF.FileFunction,Plated,1,2,PTH
FMAT,2
INCH
; #@! TA.AperFunction,Plated,PTH,ViaDrill
T1C0.0157
; #@! TA.AperFunction,Plated,PTH,ComponentDrill
T2C0.0394
; #@! TA.AperFunction,Plated,PTH,ComponentDrill
T3C0.0433
%
G90
G05
T1
X5.3461Y-3.8795
X5.4051Y-3.5154
X5.474Y-3.5547
X5.6118Y-3.6531
X5.6118Y-3.7122
X6.0085Y-4.2722
X6.2122Y-4.165
X6.3106Y-4.1354
X6.4681Y-3.3579
X6.5087Y-3.3567
X6.5276Y-3.4854
X6.6748Y-3.535
T2
X4.9819Y-4.1669
X4.9819Y-4.2669
X4.9947Y-2.7663
X4.9947Y-2.8663
X5.0819Y-4.1669
X5.0819Y-4.2669
X5.0947Y-2.7663
X5.0947Y-2.8663
X5.1819Y-4.1669
X5.1819Y-4.2669
X5.1947Y-2.7663
X5.1947Y-2.8663
X5.2819Y-4.1669
X5.2819Y-4.2669
X5.2947Y-2.7663
X5.2947Y-2.8663
X5.3819Y-4.1669
X5.3819Y-4.2669
X5.3947Y-2.7663
X5.3947Y-2.8663
X5.4819Y-4.1669
X5.4819Y-4.2669
X5.4947Y-2.7663
X5.4947Y-2.8663
X5.5819Y-4.1669
X5.5819Y-4.2669
X5.5947Y-2.7663
X5.5947Y-2.8663
X5.6819Y-4.1669
X5.6819Y-4.2669
X5.6947Y-2.7663
X5.6947Y-2.8663
X5.7819Y-4.1669
X5.7819Y-4.2669
X5.7947Y-2.7663
X5.7947Y-2.8663
X5.8819Y-4.1669
X5.8819Y-4.2669
X5.8947Y-2.7663
X5.8947Y-2.8663
X5.9868Y-3.8701
X5.9868Y-3.9701
X6.0868Y-3.8701
X6.0868Y-3.9701
X6.0902Y-2.7614
X6.1902Y-2.7614
X6.2902Y-2.7614
X6.3902Y-2.7614
X6.4902Y-2.7614
X6.7919Y-4.0626
X6.7919Y-4.1626
X6.8864Y-2.7634
X6.8864Y-2.8634
X6.8919Y-4.0626
X6.8919Y-4.1626
X6.9864Y-2.7634
X6.9864Y-2.8634
X6.9919Y-4.0626
X6.9919Y-4.1626
X7.0864Y-2.7634
X7.0864Y-2.8634
X7.0919Y-4.0626
X7.0919Y-4.1626
X7.1919Y-4.0626
X7.1919Y-4.1626
T3
X5.3805Y-3.1039
X5.4805Y-3.1039
X5.5805Y-3.1039
X5.6805Y-3.1039
X5.7805Y-3.1039
X5.8805Y-3.1039
X6.4709Y-3.0921
X6.5709Y-3.0921
X6.6709Y-3.0921
X6.7709Y-3.0921
X6.8709Y-3.0921
X6.9709Y-3.0921
X7.0709Y-3.0921
X7.1709Y-3.0921
X7.2709Y-3.0921
X7.3709Y-3.0921
T0
M30
