%TF.GenerationSoftware,KiCad,Pcbnew,(6.0.11)*%
%TF.CreationDate,2023-04-23T10:13:21-07:00*%
%TF.ProjectId,Ocelothat,4f63656c-6f74-4686-9174-2e6b69636164,rev?*%
%TF.SameCoordinates,Original*%
%TF.FileFunction,Copper,L2,Bot*%
%TF.FilePolarity,Positive*%
%FSLAX46Y46*%
G04 Gerber Fmt 4.6, Leading zero omitted, Abs format (unit mm)*
G04 Created by KiCad (PCBNEW (6.0.11)) date 2023-04-23 10:13:21*
%MOMM*%
%LPD*%
G01*
G04 APERTURE LIST*
%TA.AperFunction,ComponentPad*%
%ADD10R,2.200000X2.200000*%
%TD*%
%TA.AperFunction,ComponentPad*%
%ADD11C,2.200000*%
%TD*%
%TA.AperFunction,ComponentPad*%
%ADD12R,1.700000X1.700000*%
%TD*%
%TA.AperFunction,ComponentPad*%
%ADD13O,1.700000X1.700000*%
%TD*%
%TA.AperFunction,ViaPad*%
%ADD14C,0.800000*%
%TD*%
%TA.AperFunction,Conductor*%
%ADD15C,0.700000*%
%TD*%
%TA.AperFunction,Conductor*%
%ADD16C,0.500000*%
%TD*%
%TA.AperFunction,Conductor*%
%ADD17C,0.300000*%
%TD*%
G04 APERTURE END LIST*
D10*
%TO.P,J3,1,Pin_1*%
%TO.N,CCSET_OUT*%
X136665000Y-78840000D03*
D11*
%TO.P,J3,2,Pin_2*%
%TO.N,CCRES_OUT*%
X139205000Y-78840000D03*
%TO.P,J3,3,Pin_3*%
%TO.N,+12V*%
X141745000Y-78840000D03*
%TO.P,J3,4,Pin_4*%
%TO.N,CCSET_SW*%
X144285000Y-78840000D03*
%TO.P,J3,5,Pin_5*%
%TO.N,CCRES_SW*%
X146825000Y-78840000D03*
%TO.P,J3,6,Pin_6*%
%TO.N,+3.3V*%
X149365000Y-78840000D03*
%TD*%
D10*
%TO.P,J8,1,Pin_1*%
%TO.N,CAN L1*%
X164360000Y-78540000D03*
D11*
%TO.P,J8,2,Pin_2*%
%TO.N,CAN H1*%
X166900000Y-78540000D03*
%TO.P,J8,3,Pin_3*%
%TO.N,CAN L2*%
X169440000Y-78540000D03*
%TO.P,J8,4,Pin_4*%
%TO.N,CAN H2*%
X171980000Y-78540000D03*
%TO.P,J8,5,Pin_5*%
%TO.N,CAN L3*%
X174520000Y-78540000D03*
%TO.P,J8,6,Pin_6*%
%TO.N,CAN H3*%
X177060000Y-78540000D03*
%TO.P,J8,7,Pin_7*%
%TO.N,KLINE*%
X179600000Y-78540000D03*
%TO.P,J8,8,Pin_8*%
%TO.N,+12V*%
X182140000Y-78540000D03*
%TO.P,J8,9,Pin_9*%
%TO.N,+3.3V*%
X184680000Y-78540000D03*
%TO.P,J8,10,Pin_10*%
%TO.N,GND*%
X187220000Y-78540000D03*
%TD*%
D12*
%TO.P,J6,1,Pin_1*%
%TO.N,GND*%
X154690000Y-70140000D03*
D13*
%TO.P,J6,2,Pin_2*%
%TO.N,unconnected-(J6-Pad2)*%
X157230000Y-70140000D03*
%TO.P,J6,3,Pin_3*%
%TO.N,unconnected-(J6-Pad3)*%
X159770000Y-70140000D03*
%TO.P,J6,4,Pin_4*%
%TO.N,unconnected-(J6-Pad4)*%
X162310000Y-70140000D03*
%TO.P,J6,5,Pin_5*%
%TO.N,+3.3V*%
X164850000Y-70140000D03*
%TD*%
D12*
%TO.P,J5,1,Pin_1*%
%TO.N,unconnected-(J5-Pad1)*%
X126865000Y-70265000D03*
D13*
%TO.P,J5,2,Pin_2*%
%TO.N,KLINE_TX*%
X126865000Y-72805000D03*
%TO.P,J5,3,Pin_3*%
%TO.N,unconnected-(J5-Pad3)*%
X129405000Y-70265000D03*
%TO.P,J5,4,Pin_4*%
%TO.N,KLINE_EN*%
X129405000Y-72805000D03*
%TO.P,J5,5,Pin_5*%
%TO.N,unconnected-(J5-Pad5)*%
X131945000Y-70265000D03*
%TO.P,J5,6,Pin_6*%
%TO.N,KLINE_RX*%
X131945000Y-72805000D03*
%TO.P,J5,7,Pin_7*%
%TO.N,unconnected-(J5-Pad7)*%
X134485000Y-70265000D03*
%TO.P,J5,8,Pin_8*%
%TO.N,unconnected-(J5-Pad8)*%
X134485000Y-72805000D03*
%TO.P,J5,9,Pin_9*%
%TO.N,unconnected-(J5-Pad9)*%
X137025000Y-70265000D03*
%TO.P,J5,10,Pin_10*%
%TO.N,unconnected-(J5-Pad10)*%
X137025000Y-72805000D03*
%TO.P,J5,11,Pin_11*%
%TO.N,unconnected-(J5-Pad11)*%
X139565000Y-70265000D03*
%TO.P,J5,12,Pin_12*%
%TO.N,unconnected-(J5-Pad12)*%
X139565000Y-72805000D03*
%TO.P,J5,13,Pin_13*%
%TO.N,unconnected-(J5-Pad13)*%
X142105000Y-70265000D03*
%TO.P,J5,14,Pin_14*%
%TO.N,unconnected-(J5-Pad14)*%
X142105000Y-72805000D03*
%TO.P,J5,15,Pin_15*%
%TO.N,unconnected-(J5-Pad15)*%
X144645000Y-70265000D03*
%TO.P,J5,16,Pin_16*%
%TO.N,unconnected-(J5-Pad16)*%
X144645000Y-72805000D03*
%TO.P,J5,17,Pin_17*%
%TO.N,unconnected-(J5-Pad17)*%
X147185000Y-70265000D03*
%TO.P,J5,18,Pin_18*%
%TO.N,unconnected-(J5-Pad18)*%
X147185000Y-72805000D03*
%TO.P,J5,19,Pin_19*%
%TO.N,GND*%
X149725000Y-70265000D03*
%TO.P,J5,20,Pin_20*%
%TO.N,+3.3V*%
X149725000Y-72805000D03*
%TD*%
D12*
%TO.P,J2,1,Pin_1*%
%TO.N,unconnected-(J2-Pad1)*%
X172515000Y-103190000D03*
D13*
%TO.P,J2,2,Pin_2*%
%TO.N,unconnected-(J2-Pad2)*%
X172515000Y-105730000D03*
%TO.P,J2,3,Pin_3*%
%TO.N,+12V*%
X175055000Y-103190000D03*
%TO.P,J2,4,Pin_4*%
X175055000Y-105730000D03*
%TO.P,J2,5,Pin_5*%
%TO.N,+5V*%
X177595000Y-103190000D03*
%TO.P,J2,6,Pin_6*%
X177595000Y-105730000D03*
%TO.P,J2,7,Pin_7*%
%TO.N,+3.3V*%
X180135000Y-103190000D03*
%TO.P,J2,8,Pin_8*%
X180135000Y-105730000D03*
%TO.P,J2,9,Pin_9*%
%TO.N,GND*%
X182675000Y-103190000D03*
%TO.P,J2,10,Pin_10*%
X182675000Y-105730000D03*
%TD*%
D12*
%TO.P,J1,1,Pin_1*%
%TO.N,unconnected-(J1-Pad1)*%
X126540000Y-105840000D03*
D13*
%TO.P,J1,2,Pin_2*%
%TO.N,unconnected-(J1-Pad2)*%
X126540000Y-108380000D03*
%TO.P,J1,3,Pin_3*%
%TO.N,unconnected-(J1-Pad3)*%
X129080000Y-105840000D03*
%TO.P,J1,4,Pin_4*%
%TO.N,unconnected-(J1-Pad4)*%
X129080000Y-108380000D03*
%TO.P,J1,5,Pin_5*%
%TO.N,Green LED*%
X131620000Y-105840000D03*
%TO.P,J1,6,Pin_6*%
%TO.N,Red LED*%
X131620000Y-108380000D03*
%TO.P,J1,7,Pin_7*%
%TO.N,Blue LED*%
X134160000Y-105840000D03*
%TO.P,J1,8,Pin_8*%
%TO.N,unconnected-(J1-Pad8)*%
X134160000Y-108380000D03*
%TO.P,J1,9,Pin_9*%
%TO.N,unconnected-(J1-Pad9)*%
X136700000Y-105840000D03*
%TO.P,J1,10,Pin_10*%
%TO.N,unconnected-(J1-Pad10)*%
X136700000Y-108380000D03*
%TO.P,J1,11,Pin_11*%
%TO.N,CCRES_INPUT*%
X139240000Y-105840000D03*
%TO.P,J1,12,Pin_12*%
%TO.N,CCSET_INPUT*%
X139240000Y-108380000D03*
%TO.P,J1,13,Pin_13*%
%TO.N,CCRES_SW*%
X141780000Y-105840000D03*
%TO.P,J1,14,Pin_14*%
%TO.N,CCSET_SW*%
X141780000Y-108380000D03*
%TO.P,J1,15,Pin_15*%
%TO.N,unconnected-(J1-Pad15)*%
X144320000Y-105840000D03*
%TO.P,J1,16,Pin_16*%
%TO.N,unconnected-(J1-Pad16)*%
X144320000Y-108380000D03*
%TO.P,J1,17,Pin_17*%
%TO.N,unconnected-(J1-Pad17)*%
X146860000Y-105840000D03*
%TO.P,J1,18,Pin_18*%
%TO.N,unconnected-(J1-Pad18)*%
X146860000Y-108380000D03*
%TO.P,J1,19,Pin_19*%
%TO.N,GND*%
X149400000Y-105840000D03*
%TO.P,J1,20,Pin_20*%
%TO.N,+3.3V*%
X149400000Y-108380000D03*
%TD*%
D12*
%TO.P,J4,1,Pin_1*%
%TO.N,+5V*%
X152065000Y-100840000D03*
D13*
%TO.P,J4,2,Pin_2*%
%TO.N,unconnected-(J4-Pad2)*%
X154605000Y-100840000D03*
%TO.P,J4,3,Pin_3*%
%TO.N,unconnected-(J4-Pad3)*%
X152065000Y-98300000D03*
%TO.P,J4,4,Pin_4*%
%TO.N,GND*%
X154605000Y-98300000D03*
%TD*%
D12*
%TO.P,J7,1,Pin_1*%
%TO.N,CAN L1*%
X174915000Y-70190000D03*
D13*
%TO.P,J7,2,Pin_2*%
%TO.N,CAN H1*%
X174915000Y-72730000D03*
%TO.P,J7,3,Pin_3*%
%TO.N,CAN L2*%
X177455000Y-70190000D03*
%TO.P,J7,4,Pin_4*%
%TO.N,CAN H2*%
X177455000Y-72730000D03*
%TO.P,J7,5,Pin_5*%
%TO.N,CAN L3*%
X179995000Y-70190000D03*
%TO.P,J7,6,Pin_6*%
%TO.N,CAN H3*%
X179995000Y-72730000D03*
%TD*%
D14*
%TO.N,+12V*%
X137290000Y-89290000D03*
X139040000Y-90290000D03*
%TO.N,GND*%
X142540000Y-92790000D03*
X142540000Y-94290000D03*
X135790000Y-98540000D03*
%TO.N,+3.3V*%
X169540000Y-89790000D03*
%TO.N,Red LED*%
X152615000Y-108515000D03*
%TO.N,Green LED*%
X157790000Y-105790000D03*
%TO.N,Blue LED*%
X160290000Y-105040000D03*
%TO.N,KLINE_TX*%
X165319977Y-85260023D03*
%TO.N,KLINE_EN*%
X165800000Y-88530000D03*
%TO.N,KLINE_RX*%
X164290000Y-85290000D03*
%TD*%
D15*
%TO.N,+12V*%
X141745000Y-81495000D02*
X141745000Y-78840000D01*
X175055000Y-105730000D02*
X175055000Y-103190000D01*
X166905000Y-95040000D02*
X155290000Y-95040000D01*
X175055000Y-103190000D02*
X166905000Y-95040000D01*
D16*
X138040000Y-89290000D02*
X139040000Y-90290000D01*
X137290000Y-89290000D02*
X138040000Y-89290000D01*
D15*
X155290000Y-95040000D02*
X141745000Y-81495000D01*
%TO.N,+3.3V*%
X169540000Y-95040000D02*
X169540000Y-89790000D01*
X169540000Y-89790000D02*
X173430000Y-89790000D01*
X175290000Y-100790000D02*
X169540000Y-95040000D01*
X173430000Y-89790000D02*
X184680000Y-78540000D01*
X177735000Y-100790000D02*
X175290000Y-100790000D01*
X180135000Y-103190000D02*
X177735000Y-100790000D01*
D17*
%TO.N,Red LED*%
X152615000Y-108515000D02*
X149990000Y-111140000D01*
X134380000Y-111140000D02*
X131620000Y-108380000D01*
X149990000Y-111140000D02*
X134380000Y-111140000D01*
%TO.N,Green LED*%
X130280000Y-107180000D02*
X131620000Y-105840000D01*
X132440000Y-111640000D02*
X130280000Y-109480000D01*
X157790000Y-105790000D02*
X157790000Y-107040000D01*
X130280000Y-109480000D02*
X130280000Y-107180000D01*
X153190000Y-111640000D02*
X132440000Y-111640000D01*
X157790000Y-107040000D02*
X153190000Y-111640000D01*
%TO.N,Blue LED*%
X160290000Y-105040000D02*
X155015000Y-105040000D01*
X135500000Y-107180000D02*
X134160000Y-105840000D01*
X149415000Y-110640000D02*
X137140000Y-110640000D01*
X135500000Y-109000000D02*
X135500000Y-107180000D01*
X137140000Y-110640000D02*
X135500000Y-109000000D01*
X155015000Y-105040000D02*
X149415000Y-110640000D01*
%TO.N,KLINE_TX*%
X133145000Y-72307943D02*
X132442057Y-71605000D01*
X133145000Y-73297894D02*
X133145000Y-72307943D01*
X162290000Y-82135023D02*
X162290000Y-76082894D01*
X134387106Y-74540000D02*
X133145000Y-73297894D01*
X165319977Y-85260023D02*
X165319977Y-85165000D01*
X153582894Y-73040000D02*
X152082894Y-74540000D01*
X165319977Y-85165000D02*
X162290000Y-82135023D01*
X152082894Y-74540000D02*
X134387106Y-74540000D01*
X132442057Y-71605000D02*
X128065000Y-71605000D01*
X159247106Y-73040000D02*
X153582894Y-73040000D01*
X162290000Y-76082894D02*
X159247106Y-73040000D01*
X128065000Y-71605000D02*
X126865000Y-72805000D01*
%TO.N,KLINE_EN*%
X161290000Y-84020000D02*
X161290000Y-76540000D01*
X158790000Y-74040000D02*
X154040000Y-74040000D01*
X152540000Y-75540000D02*
X132140000Y-75540000D01*
X154040000Y-74040000D02*
X152540000Y-75540000D01*
X165800000Y-88530000D02*
X161290000Y-84020000D01*
X161290000Y-76540000D02*
X158790000Y-74040000D01*
X132140000Y-75540000D02*
X129405000Y-72805000D01*
%TO.N,KLINE_RX*%
X164290000Y-85290000D02*
X161790000Y-82790000D01*
X159040000Y-73540000D02*
X153790000Y-73540000D01*
X161790000Y-82790000D02*
X161790000Y-76290000D01*
X134180000Y-75040000D02*
X131945000Y-72805000D01*
X161790000Y-76290000D02*
X159040000Y-73540000D01*
X152290000Y-75040000D02*
X134180000Y-75040000D01*
X153790000Y-73540000D02*
X152290000Y-75040000D01*
%TD*%
%TA.AperFunction,Conductor*%
%TO.N,GND*%
G36*
X187274563Y-66342414D02*
G01*
X187279145Y-66343222D01*
X187290000Y-66345136D01*
X187300855Y-66343222D01*
X187311878Y-66343222D01*
X187311878Y-66343587D01*
X187324236Y-66342949D01*
X187420210Y-66349813D01*
X187522881Y-66357156D01*
X187540669Y-66359713D01*
X187708867Y-66396303D01*
X187759996Y-66407426D01*
X187777245Y-66412490D01*
X187987560Y-66490933D01*
X188003906Y-66498398D01*
X188200913Y-66605973D01*
X188216033Y-66615690D01*
X188395725Y-66750206D01*
X188409311Y-66761979D01*
X188568021Y-66920689D01*
X188579794Y-66934275D01*
X188714310Y-67113967D01*
X188724029Y-67129090D01*
X188831600Y-67326090D01*
X188839069Y-67342444D01*
X188917510Y-67552756D01*
X188922574Y-67570004D01*
X188964385Y-67762199D01*
X188970286Y-67789327D01*
X188972845Y-67807123D01*
X188987051Y-68005764D01*
X188986413Y-68018122D01*
X188986778Y-68018122D01*
X188986778Y-68029145D01*
X188984864Y-68040000D01*
X188986778Y-68050855D01*
X188987586Y-68055437D01*
X188989500Y-68077317D01*
X188989500Y-77976599D01*
X188969498Y-78044720D01*
X188915842Y-78091213D01*
X188845568Y-78101317D01*
X188780988Y-78071823D01*
X188747091Y-78024817D01*
X188659064Y-77812300D01*
X188654583Y-77803506D01*
X188535287Y-77608833D01*
X188524830Y-77599373D01*
X188516054Y-77603156D01*
X187592022Y-78527188D01*
X187584408Y-78541132D01*
X187584539Y-78542965D01*
X187588790Y-78549580D01*
X188513010Y-79473800D01*
X188525390Y-79480560D01*
X188533040Y-79474833D01*
X188654583Y-79276494D01*
X188659064Y-79267700D01*
X188747091Y-79055183D01*
X188791639Y-78999902D01*
X188859003Y-78977481D01*
X188927794Y-78995039D01*
X188976172Y-79047001D01*
X188989500Y-79103401D01*
X188989500Y-112002683D01*
X188987586Y-112024563D01*
X188984864Y-112040000D01*
X188986778Y-112050855D01*
X188986778Y-112061878D01*
X188986413Y-112061878D01*
X188987051Y-112074236D01*
X188972845Y-112272877D01*
X188970287Y-112290669D01*
X188933697Y-112458867D01*
X188922574Y-112509996D01*
X188917510Y-112527244D01*
X188839069Y-112737556D01*
X188831600Y-112753910D01*
X188724029Y-112950910D01*
X188714310Y-112966033D01*
X188579794Y-113145725D01*
X188568021Y-113159311D01*
X188409311Y-113318021D01*
X188395725Y-113329794D01*
X188216033Y-113464310D01*
X188200913Y-113474027D01*
X188003906Y-113581602D01*
X187987560Y-113589067D01*
X187817627Y-113652448D01*
X187777244Y-113667510D01*
X187759995Y-113672574D01*
X187540669Y-113720287D01*
X187522881Y-113722844D01*
X187420210Y-113730187D01*
X187324236Y-113737051D01*
X187311878Y-113736413D01*
X187311878Y-113736778D01*
X187300855Y-113736778D01*
X187290000Y-113734864D01*
X187279145Y-113736778D01*
X187274563Y-113737586D01*
X187252683Y-113739500D01*
X124327317Y-113739500D01*
X124305437Y-113737586D01*
X124300855Y-113736778D01*
X124290000Y-113734864D01*
X124279145Y-113736778D01*
X124268122Y-113736778D01*
X124268122Y-113736413D01*
X124255764Y-113737051D01*
X124159790Y-113730187D01*
X124057119Y-113722844D01*
X124039331Y-113720287D01*
X123820005Y-113672574D01*
X123802756Y-113667510D01*
X123762373Y-113652448D01*
X123592440Y-113589067D01*
X123576094Y-113581602D01*
X123379087Y-113474027D01*
X123363967Y-113464310D01*
X123184275Y-113329794D01*
X123170689Y-113318021D01*
X123011979Y-113159311D01*
X123000206Y-113145725D01*
X122865690Y-112966033D01*
X122855971Y-112950910D01*
X122748400Y-112753910D01*
X122740931Y-112737556D01*
X122662490Y-112527244D01*
X122657426Y-112509996D01*
X122646303Y-112458867D01*
X122609713Y-112290669D01*
X122607155Y-112272877D01*
X122592949Y-112074236D01*
X122593587Y-112061878D01*
X122593222Y-112061878D01*
X122593222Y-112050855D01*
X122595136Y-112040000D01*
X122592414Y-112024563D01*
X122590500Y-112002683D01*
X122590500Y-108349754D01*
X125384967Y-108349754D01*
X125398796Y-108560749D01*
X125400217Y-108566345D01*
X125400218Y-108566350D01*
X125422498Y-108654076D01*
X125450845Y-108765690D01*
X125453262Y-108770933D01*
X125521566Y-108919096D01*
X125539369Y-108957714D01*
X125661405Y-109130391D01*
X125812865Y-109277937D01*
X125817661Y-109281142D01*
X125817664Y-109281144D01*
X125918681Y-109348641D01*
X125988677Y-109395411D01*
X125993985Y-109397692D01*
X125993986Y-109397692D01*
X126177650Y-109476600D01*
X126177653Y-109476601D01*
X126182953Y-109478878D01*
X126188582Y-109480152D01*
X126188583Y-109480152D01*
X126383550Y-109524269D01*
X126383553Y-109524269D01*
X126389186Y-109525544D01*
X126394957Y-109525771D01*
X126394959Y-109525771D01*
X126456989Y-109528208D01*
X126600470Y-109533846D01*
X126606179Y-109533018D01*
X126606183Y-109533018D01*
X126804015Y-109504333D01*
X126804019Y-109504332D01*
X126809730Y-109503504D01*
X126889697Y-109476359D01*
X127004483Y-109437395D01*
X127004488Y-109437393D01*
X127009955Y-109435537D01*
X127014998Y-109432713D01*
X127189395Y-109335046D01*
X127189399Y-109335043D01*
X127194442Y-109332219D01*
X127357012Y-109197012D01*
X127492219Y-109034442D01*
X127495043Y-109029399D01*
X127495046Y-109029395D01*
X127592713Y-108854998D01*
X127592714Y-108854996D01*
X127595537Y-108849955D01*
X127597393Y-108844488D01*
X127597395Y-108844483D01*
X127661647Y-108655200D01*
X127663504Y-108649730D01*
X127677242Y-108554982D01*
X127685090Y-108500860D01*
X127714660Y-108436315D01*
X127774432Y-108398003D01*
X127845429Y-108398087D01*
X127905109Y-108436542D01*
X127934525Y-108501158D01*
X127935515Y-108510695D01*
X127938796Y-108560749D01*
X127940217Y-108566345D01*
X127940218Y-108566350D01*
X127962498Y-108654076D01*
X127990845Y-108765690D01*
X127993262Y-108770933D01*
X128061566Y-108919096D01*
X128079369Y-108957714D01*
X128201405Y-109130391D01*
X128352865Y-109277937D01*
X128357661Y-109281142D01*
X128357664Y-109281144D01*
X128458681Y-109348641D01*
X128528677Y-109395411D01*
X128533985Y-109397692D01*
X128533986Y-109397692D01*
X128717650Y-109476600D01*
X128717653Y-109476601D01*
X128722953Y-109478878D01*
X128728582Y-109480152D01*
X128728583Y-109480152D01*
X128923550Y-109524269D01*
X128923553Y-109524269D01*
X128929186Y-109525544D01*
X128934957Y-109525771D01*
X128934959Y-109525771D01*
X128996989Y-109528208D01*
X129140470Y-109533846D01*
X129146179Y-109533018D01*
X129146183Y-109533018D01*
X129344015Y-109504333D01*
X129344019Y-109504332D01*
X129349730Y-109503504D01*
X129429697Y-109476359D01*
X129544483Y-109437395D01*
X129544488Y-109437393D01*
X129549955Y-109435537D01*
X129638460Y-109385971D01*
X129707667Y-109370138D01*
X129774449Y-109394235D01*
X129817602Y-109450611D01*
X129825302Y-109488682D01*
X129824636Y-109494310D01*
X129826328Y-109503574D01*
X129826328Y-109503576D01*
X129835172Y-109552001D01*
X129835822Y-109555904D01*
X129844551Y-109613962D01*
X129847679Y-109620475D01*
X129848975Y-109627573D01*
X129876025Y-109679647D01*
X129877768Y-109683137D01*
X129903191Y-109736079D01*
X129908077Y-109741365D01*
X129908110Y-109741413D01*
X129911421Y-109747788D01*
X129915725Y-109752828D01*
X129952952Y-109790055D01*
X129956381Y-109793620D01*
X129995146Y-109835556D01*
X130001505Y-109839249D01*
X130007663Y-109844766D01*
X132097247Y-111934350D01*
X132107101Y-111945439D01*
X132121433Y-111963618D01*
X132128128Y-111972110D01*
X132135875Y-111977465D01*
X132135877Y-111977466D01*
X132161386Y-111995096D01*
X132174668Y-112004275D01*
X132176375Y-112005455D01*
X132179587Y-112007750D01*
X132226816Y-112042634D01*
X132233632Y-112045027D01*
X132239569Y-112049131D01*
X132248549Y-112051971D01*
X132248551Y-112051972D01*
X132268717Y-112058350D01*
X132295519Y-112066826D01*
X132299250Y-112068071D01*
X132345737Y-112084396D01*
X132345739Y-112084396D01*
X132354631Y-112087519D01*
X132361819Y-112087801D01*
X132361878Y-112087812D01*
X132368730Y-112089980D01*
X132375337Y-112090500D01*
X132428016Y-112090500D01*
X132432962Y-112090597D01*
X132489994Y-112092838D01*
X132497100Y-112090954D01*
X132505344Y-112090500D01*
X153155780Y-112090500D01*
X153170589Y-112091373D01*
X153204310Y-112095364D01*
X153213574Y-112093672D01*
X153213575Y-112093672D01*
X153262001Y-112084828D01*
X153265904Y-112084178D01*
X153314645Y-112076850D01*
X153314646Y-112076850D01*
X153323962Y-112075449D01*
X153330475Y-112072321D01*
X153337573Y-112071025D01*
X153389647Y-112043975D01*
X153393137Y-112042232D01*
X153446079Y-112016809D01*
X153451365Y-112011923D01*
X153451413Y-112011890D01*
X153457788Y-112008579D01*
X153462828Y-112004275D01*
X153500055Y-111967048D01*
X153503621Y-111963618D01*
X153538641Y-111931246D01*
X153545556Y-111924854D01*
X153549249Y-111918495D01*
X153554766Y-111912337D01*
X158084350Y-107382753D01*
X158095439Y-107372899D01*
X158114709Y-107357707D01*
X158114711Y-107357705D01*
X158122110Y-107351872D01*
X158134222Y-107334348D01*
X158155455Y-107303625D01*
X158157757Y-107300403D01*
X158187040Y-107260758D01*
X158187041Y-107260757D01*
X158192634Y-107253184D01*
X158195027Y-107246368D01*
X158199131Y-107240431D01*
X158203021Y-107228133D01*
X158216818Y-107184505D01*
X158218071Y-107180750D01*
X158234396Y-107134263D01*
X158234396Y-107134261D01*
X158237519Y-107125369D01*
X158237801Y-107118181D01*
X158237812Y-107118122D01*
X158239980Y-107111270D01*
X158240500Y-107104663D01*
X158240500Y-107051984D01*
X158240597Y-107047037D01*
X158241003Y-107036703D01*
X158242838Y-106990006D01*
X158240954Y-106982900D01*
X158240500Y-106974656D01*
X158240500Y-106384587D01*
X158260502Y-106316466D01*
X158284669Y-106288776D01*
X158303651Y-106272564D01*
X158303652Y-106272563D01*
X158309423Y-106267634D01*
X158408361Y-106129947D01*
X158418786Y-106104015D01*
X158468766Y-105979687D01*
X158468767Y-105979685D01*
X158471601Y-105972634D01*
X158490477Y-105840000D01*
X158494909Y-105808862D01*
X158494909Y-105808859D01*
X158495490Y-105804778D01*
X158495645Y-105790000D01*
X158493840Y-105775080D01*
X158476481Y-105631637D01*
X158488154Y-105561607D01*
X158535836Y-105509005D01*
X158601568Y-105490500D01*
X159695454Y-105490500D01*
X159763575Y-105510502D01*
X159780253Y-105523306D01*
X159795774Y-105537429D01*
X159875612Y-105610077D01*
X159875616Y-105610080D01*
X159881233Y-105615191D01*
X159887906Y-105618814D01*
X159887910Y-105618817D01*
X160023558Y-105692467D01*
X160023560Y-105692468D01*
X160030235Y-105696092D01*
X160037584Y-105698020D01*
X160186883Y-105737188D01*
X160186885Y-105737188D01*
X160194233Y-105739116D01*
X160280609Y-105740473D01*
X160356161Y-105741660D01*
X160356164Y-105741660D01*
X160363760Y-105741779D01*
X160371165Y-105740083D01*
X160371166Y-105740083D01*
X160440345Y-105724239D01*
X160529029Y-105703928D01*
X160680498Y-105627747D01*
X160809423Y-105517634D01*
X160908361Y-105379947D01*
X160911194Y-105372900D01*
X160968766Y-105229687D01*
X160968767Y-105229685D01*
X160971601Y-105222634D01*
X160984575Y-105131473D01*
X160994909Y-105058862D01*
X160994909Y-105058859D01*
X160995490Y-105054778D01*
X160995645Y-105040000D01*
X160975276Y-104871680D01*
X160915345Y-104713077D01*
X160889621Y-104675648D01*
X160823614Y-104579608D01*
X160823613Y-104579607D01*
X160819312Y-104573349D01*
X160802589Y-104558449D01*
X160698392Y-104465612D01*
X160698388Y-104465610D01*
X160692721Y-104460560D01*
X160542881Y-104381224D01*
X160378441Y-104339919D01*
X160370843Y-104339879D01*
X160370841Y-104339879D01*
X160293668Y-104339475D01*
X160208895Y-104339031D01*
X160201508Y-104340805D01*
X160201504Y-104340805D01*
X160092415Y-104366996D01*
X160044032Y-104378612D01*
X160037288Y-104382093D01*
X160037285Y-104382094D01*
X159901892Y-104451976D01*
X159893369Y-104456375D01*
X159887647Y-104461367D01*
X159887645Y-104461368D01*
X159848545Y-104495477D01*
X159788742Y-104547647D01*
X159776359Y-104558449D01*
X159711877Y-104588157D01*
X159693530Y-104589500D01*
X155049220Y-104589500D01*
X155034411Y-104588627D01*
X155014986Y-104586328D01*
X155000690Y-104584636D01*
X154991426Y-104586328D01*
X154991425Y-104586328D01*
X154942999Y-104595172D01*
X154939096Y-104595822D01*
X154890355Y-104603150D01*
X154890354Y-104603150D01*
X154881038Y-104604551D01*
X154874525Y-104607679D01*
X154867427Y-104608975D01*
X154815353Y-104636025D01*
X154811863Y-104637768D01*
X154758921Y-104663191D01*
X154753635Y-104668077D01*
X154753587Y-104668110D01*
X154747212Y-104671421D01*
X154742172Y-104675725D01*
X154704945Y-104712952D01*
X154701380Y-104716381D01*
X154659444Y-104755146D01*
X154655751Y-104761505D01*
X154650234Y-104767663D01*
X150750235Y-108667662D01*
X150687923Y-108701688D01*
X150617108Y-108696623D01*
X150560272Y-108654076D01*
X150535461Y-108587556D01*
X150536444Y-108560486D01*
X150553314Y-108444140D01*
X150553314Y-108444138D01*
X150553846Y-108440470D01*
X150555429Y-108380000D01*
X150536081Y-108169440D01*
X150478686Y-107965931D01*
X150467553Y-107943354D01*
X150387719Y-107781469D01*
X150385165Y-107776290D01*
X150258651Y-107606867D01*
X150103381Y-107463337D01*
X149949683Y-107366360D01*
X149929434Y-107353584D01*
X149929433Y-107353584D01*
X149924554Y-107350505D01*
X149900643Y-107340966D01*
X149844785Y-107297147D01*
X149821483Y-107230083D01*
X149838138Y-107161068D01*
X149889461Y-107112013D01*
X149901348Y-107106627D01*
X149901842Y-107106433D01*
X150093095Y-107012739D01*
X150101945Y-107007464D01*
X150275328Y-106883792D01*
X150283200Y-106877139D01*
X150434052Y-106726812D01*
X150440730Y-106718965D01*
X150565003Y-106546020D01*
X150570313Y-106537183D01*
X150664670Y-106346267D01*
X150668469Y-106336672D01*
X150730377Y-106132910D01*
X150732555Y-106122837D01*
X150733986Y-106111962D01*
X150731775Y-106097778D01*
X150718617Y-106094000D01*
X149272000Y-106094000D01*
X149203879Y-106073998D01*
X149157386Y-106020342D01*
X149146000Y-105968000D01*
X149146000Y-105567885D01*
X149654000Y-105567885D01*
X149658475Y-105583124D01*
X149659865Y-105584329D01*
X149667548Y-105586000D01*
X150718344Y-105586000D01*
X150731875Y-105582027D01*
X150733180Y-105572947D01*
X150691214Y-105405875D01*
X150687894Y-105396124D01*
X150602972Y-105200814D01*
X150598105Y-105191739D01*
X150482426Y-105012926D01*
X150476136Y-105004757D01*
X150332806Y-104847240D01*
X150325273Y-104840215D01*
X150158139Y-104708222D01*
X150149552Y-104702517D01*
X149963117Y-104599599D01*
X149953705Y-104595369D01*
X149752959Y-104524280D01*
X149742988Y-104521646D01*
X149671837Y-104508972D01*
X149658540Y-104510432D01*
X149654000Y-104524989D01*
X149654000Y-105567885D01*
X149146000Y-105567885D01*
X149146000Y-104523102D01*
X149142082Y-104509758D01*
X149127806Y-104507771D01*
X149089324Y-104513660D01*
X149079288Y-104516051D01*
X148876868Y-104582212D01*
X148867359Y-104586209D01*
X148678463Y-104684542D01*
X148669738Y-104690036D01*
X148499433Y-104817905D01*
X148491726Y-104824748D01*
X148344590Y-104978717D01*
X148338104Y-104986727D01*
X148218098Y-105162649D01*
X148213000Y-105171623D01*
X148130033Y-105350360D01*
X148083209Y-105403727D01*
X148014965Y-105423308D01*
X147946970Y-105402884D01*
X147902739Y-105353038D01*
X147847721Y-105241473D01*
X147847719Y-105241469D01*
X147845165Y-105236290D01*
X147736533Y-105090814D01*
X147722104Y-105071491D01*
X147722103Y-105071490D01*
X147718651Y-105066867D01*
X147591236Y-104949086D01*
X147567622Y-104927257D01*
X147567620Y-104927255D01*
X147563381Y-104923337D01*
X147431641Y-104840215D01*
X147389434Y-104813584D01*
X147389433Y-104813584D01*
X147384554Y-104810505D01*
X147188160Y-104732152D01*
X147182503Y-104731027D01*
X147182497Y-104731025D01*
X146986442Y-104692028D01*
X146986440Y-104692028D01*
X146980775Y-104690901D01*
X146975000Y-104690825D01*
X146974996Y-104690825D01*
X146868976Y-104689437D01*
X146769346Y-104688133D01*
X146763649Y-104689112D01*
X146763648Y-104689112D01*
X146566650Y-104722962D01*
X146566649Y-104722962D01*
X146560953Y-104723941D01*
X146362575Y-104797127D01*
X146357614Y-104800079D01*
X146357613Y-104800079D01*
X146224589Y-104879220D01*
X146180856Y-104905238D01*
X146021881Y-105044655D01*
X145890976Y-105210708D01*
X145888287Y-105215819D01*
X145888285Y-105215822D01*
X145846167Y-105295875D01*
X145792523Y-105397836D01*
X145729820Y-105599773D01*
X145729141Y-105605510D01*
X145715088Y-105724239D01*
X145687217Y-105789537D01*
X145628469Y-105829401D01*
X145557494Y-105831174D01*
X145496828Y-105794295D01*
X145465730Y-105730471D01*
X145464490Y-105720958D01*
X145462926Y-105703928D01*
X145456081Y-105629440D01*
X145453893Y-105621680D01*
X145426682Y-105525197D01*
X145398686Y-105425931D01*
X145388796Y-105405875D01*
X145307719Y-105241469D01*
X145305165Y-105236290D01*
X145196533Y-105090814D01*
X145182104Y-105071491D01*
X145182103Y-105071490D01*
X145178651Y-105066867D01*
X145051236Y-104949086D01*
X145027622Y-104927257D01*
X145027620Y-104927255D01*
X145023381Y-104923337D01*
X144891641Y-104840215D01*
X144849434Y-104813584D01*
X144849433Y-104813584D01*
X144844554Y-104810505D01*
X144648160Y-104732152D01*
X144642503Y-104731027D01*
X144642497Y-104731025D01*
X144446442Y-104692028D01*
X144446440Y-104692028D01*
X144440775Y-104690901D01*
X144435000Y-104690825D01*
X144434996Y-104690825D01*
X144328976Y-104689437D01*
X144229346Y-104688133D01*
X144223649Y-104689112D01*
X144223648Y-104689112D01*
X144026650Y-104722962D01*
X144026649Y-104722962D01*
X144020953Y-104723941D01*
X143822575Y-104797127D01*
X143817614Y-104800079D01*
X143817613Y-104800079D01*
X143684589Y-104879220D01*
X143640856Y-104905238D01*
X143481881Y-105044655D01*
X143350976Y-105210708D01*
X143348287Y-105215819D01*
X143348285Y-105215822D01*
X143306167Y-105295875D01*
X143252523Y-105397836D01*
X143189820Y-105599773D01*
X143189141Y-105605510D01*
X143175088Y-105724239D01*
X143147217Y-105789537D01*
X143088469Y-105829401D01*
X143017494Y-105831174D01*
X142956828Y-105794295D01*
X142925730Y-105730471D01*
X142924490Y-105720958D01*
X142922926Y-105703928D01*
X142916081Y-105629440D01*
X142913893Y-105621680D01*
X142886682Y-105525197D01*
X142858686Y-105425931D01*
X142848796Y-105405875D01*
X142767719Y-105241469D01*
X142765165Y-105236290D01*
X142656533Y-105090814D01*
X142642104Y-105071491D01*
X142642103Y-105071490D01*
X142638651Y-105066867D01*
X142511236Y-104949086D01*
X142487622Y-104927257D01*
X142487620Y-104927255D01*
X142483381Y-104923337D01*
X142351641Y-104840215D01*
X142309434Y-104813584D01*
X142309433Y-104813584D01*
X142304554Y-104810505D01*
X142108160Y-104732152D01*
X142102503Y-104731027D01*
X142102497Y-104731025D01*
X141906442Y-104692028D01*
X141906440Y-104692028D01*
X141900775Y-104690901D01*
X141895000Y-104690825D01*
X141894996Y-104690825D01*
X141788976Y-104689437D01*
X141689346Y-104688133D01*
X141683649Y-104689112D01*
X141683648Y-104689112D01*
X141486650Y-104722962D01*
X141486649Y-104722962D01*
X141480953Y-104723941D01*
X141282575Y-104797127D01*
X141277614Y-104800079D01*
X141277613Y-104800079D01*
X141144589Y-104879220D01*
X141100856Y-104905238D01*
X140941881Y-105044655D01*
X140810976Y-105210708D01*
X140808287Y-105215819D01*
X140808285Y-105215822D01*
X140766167Y-105295875D01*
X140712523Y-105397836D01*
X140649820Y-105599773D01*
X140649141Y-105605510D01*
X140635088Y-105724239D01*
X140607217Y-105789537D01*
X140548469Y-105829401D01*
X140477494Y-105831174D01*
X140416828Y-105794295D01*
X140385730Y-105730471D01*
X140384490Y-105720958D01*
X140382926Y-105703928D01*
X140376081Y-105629440D01*
X140373893Y-105621680D01*
X140346682Y-105525197D01*
X140318686Y-105425931D01*
X140308796Y-105405875D01*
X140227719Y-105241469D01*
X140225165Y-105236290D01*
X140116533Y-105090814D01*
X140102104Y-105071491D01*
X140102103Y-105071490D01*
X140098651Y-105066867D01*
X139971236Y-104949086D01*
X139947622Y-104927257D01*
X139947620Y-104927255D01*
X139943381Y-104923337D01*
X139811641Y-104840215D01*
X139769434Y-104813584D01*
X139769433Y-104813584D01*
X139764554Y-104810505D01*
X139568160Y-104732152D01*
X139562503Y-104731027D01*
X139562497Y-104731025D01*
X139366442Y-104692028D01*
X139366440Y-104692028D01*
X139360775Y-104690901D01*
X139355000Y-104690825D01*
X139354996Y-104690825D01*
X139248976Y-104689437D01*
X139149346Y-104688133D01*
X139143649Y-104689112D01*
X139143648Y-104689112D01*
X138946650Y-104722962D01*
X138946649Y-104722962D01*
X138940953Y-104723941D01*
X138742575Y-104797127D01*
X138737614Y-104800079D01*
X138737613Y-104800079D01*
X138604589Y-104879220D01*
X138560856Y-104905238D01*
X138401881Y-105044655D01*
X138270976Y-105210708D01*
X138268287Y-105215819D01*
X138268285Y-105215822D01*
X138226167Y-105295875D01*
X138172523Y-105397836D01*
X138109820Y-105599773D01*
X138109141Y-105605510D01*
X138095088Y-105724239D01*
X138067217Y-105789537D01*
X138008469Y-105829401D01*
X137937494Y-105831174D01*
X137876828Y-105794295D01*
X137845730Y-105730471D01*
X137844490Y-105720958D01*
X137842926Y-105703928D01*
X137836081Y-105629440D01*
X137833893Y-105621680D01*
X137806682Y-105525197D01*
X137778686Y-105425931D01*
X137768796Y-105405875D01*
X137687719Y-105241469D01*
X137685165Y-105236290D01*
X137576533Y-105090814D01*
X137562104Y-105071491D01*
X137562103Y-105071490D01*
X137558651Y-105066867D01*
X137431236Y-104949086D01*
X137407622Y-104927257D01*
X137407620Y-104927255D01*
X137403381Y-104923337D01*
X137271641Y-104840215D01*
X137229434Y-104813584D01*
X137229433Y-104813584D01*
X137224554Y-104810505D01*
X137028160Y-104732152D01*
X137022503Y-104731027D01*
X137022497Y-104731025D01*
X136826442Y-104692028D01*
X136826440Y-104692028D01*
X136820775Y-104690901D01*
X136815000Y-104690825D01*
X136814996Y-104690825D01*
X136708976Y-104689437D01*
X136609346Y-104688133D01*
X136603649Y-104689112D01*
X136603648Y-104689112D01*
X136406650Y-104722962D01*
X136406649Y-104722962D01*
X136400953Y-104723941D01*
X136202575Y-104797127D01*
X136197614Y-104800079D01*
X136197613Y-104800079D01*
X136064589Y-104879220D01*
X136020856Y-104905238D01*
X135861881Y-105044655D01*
X135730976Y-105210708D01*
X135728287Y-105215819D01*
X135728285Y-105215822D01*
X135686167Y-105295875D01*
X135632523Y-105397836D01*
X135569820Y-105599773D01*
X135569141Y-105605510D01*
X135555088Y-105724239D01*
X135527217Y-105789537D01*
X135468469Y-105829401D01*
X135397494Y-105831174D01*
X135336828Y-105794295D01*
X135305730Y-105730471D01*
X135304490Y-105720958D01*
X135302926Y-105703928D01*
X135296081Y-105629440D01*
X135293893Y-105621680D01*
X135266682Y-105525197D01*
X135238686Y-105425931D01*
X135228796Y-105405875D01*
X135147719Y-105241469D01*
X135145165Y-105236290D01*
X135036533Y-105090814D01*
X135022104Y-105071491D01*
X135022103Y-105071490D01*
X135018651Y-105066867D01*
X134891236Y-104949086D01*
X134867622Y-104927257D01*
X134867620Y-104927255D01*
X134863381Y-104923337D01*
X134731641Y-104840215D01*
X134689434Y-104813584D01*
X134689433Y-104813584D01*
X134684554Y-104810505D01*
X134488160Y-104732152D01*
X134482503Y-104731027D01*
X134482497Y-104731025D01*
X134286442Y-104692028D01*
X134286440Y-104692028D01*
X134280775Y-104690901D01*
X134275000Y-104690825D01*
X134274996Y-104690825D01*
X134168976Y-104689437D01*
X134069346Y-104688133D01*
X134063649Y-104689112D01*
X134063648Y-104689112D01*
X133866650Y-104722962D01*
X133866649Y-104722962D01*
X133860953Y-104723941D01*
X133662575Y-104797127D01*
X133657614Y-104800079D01*
X133657613Y-104800079D01*
X133524589Y-104879220D01*
X133480856Y-104905238D01*
X133321881Y-105044655D01*
X133190976Y-105210708D01*
X133188287Y-105215819D01*
X133188285Y-105215822D01*
X133146167Y-105295875D01*
X133092523Y-105397836D01*
X133029820Y-105599773D01*
X133029141Y-105605510D01*
X133015088Y-105724239D01*
X132987217Y-105789537D01*
X132928469Y-105829401D01*
X132857494Y-105831174D01*
X132796828Y-105794295D01*
X132765730Y-105730471D01*
X132764490Y-105720958D01*
X132762926Y-105703928D01*
X132756081Y-105629440D01*
X132753893Y-105621680D01*
X132726682Y-105525197D01*
X132698686Y-105425931D01*
X132688796Y-105405875D01*
X132607719Y-105241469D01*
X132605165Y-105236290D01*
X132496533Y-105090814D01*
X132482104Y-105071491D01*
X132482103Y-105071490D01*
X132478651Y-105066867D01*
X132351236Y-104949086D01*
X132327622Y-104927257D01*
X132327620Y-104927255D01*
X132323381Y-104923337D01*
X132191641Y-104840215D01*
X132149434Y-104813584D01*
X132149433Y-104813584D01*
X132144554Y-104810505D01*
X131948160Y-104732152D01*
X131942503Y-104731027D01*
X131942497Y-104731025D01*
X131746442Y-104692028D01*
X131746440Y-104692028D01*
X131740775Y-104690901D01*
X131735000Y-104690825D01*
X131734996Y-104690825D01*
X131628976Y-104689437D01*
X131529346Y-104688133D01*
X131523649Y-104689112D01*
X131523648Y-104689112D01*
X131326650Y-104722962D01*
X131326649Y-104722962D01*
X131320953Y-104723941D01*
X131122575Y-104797127D01*
X131117614Y-104800079D01*
X131117613Y-104800079D01*
X130984589Y-104879220D01*
X130940856Y-104905238D01*
X130781881Y-105044655D01*
X130650976Y-105210708D01*
X130648287Y-105215819D01*
X130648285Y-105215822D01*
X130606167Y-105295875D01*
X130552523Y-105397836D01*
X130489820Y-105599773D01*
X130489141Y-105605510D01*
X130475088Y-105724239D01*
X130447217Y-105789537D01*
X130388469Y-105829401D01*
X130317494Y-105831174D01*
X130256828Y-105794295D01*
X130225730Y-105730471D01*
X130224490Y-105720958D01*
X130222926Y-105703928D01*
X130216081Y-105629440D01*
X130213893Y-105621680D01*
X130186682Y-105525197D01*
X130158686Y-105425931D01*
X130148796Y-105405875D01*
X130067719Y-105241469D01*
X130065165Y-105236290D01*
X129956533Y-105090814D01*
X129942104Y-105071491D01*
X129942103Y-105071490D01*
X129938651Y-105066867D01*
X129811236Y-104949086D01*
X129787622Y-104927257D01*
X129787620Y-104927255D01*
X129783381Y-104923337D01*
X129651641Y-104840215D01*
X129609434Y-104813584D01*
X129609433Y-104813584D01*
X129604554Y-104810505D01*
X129408160Y-104732152D01*
X129402503Y-104731027D01*
X129402497Y-104731025D01*
X129206442Y-104692028D01*
X129206440Y-104692028D01*
X129200775Y-104690901D01*
X129195000Y-104690825D01*
X129194996Y-104690825D01*
X129088976Y-104689437D01*
X128989346Y-104688133D01*
X128983649Y-104689112D01*
X128983648Y-104689112D01*
X128786650Y-104722962D01*
X128786649Y-104722962D01*
X128780953Y-104723941D01*
X128582575Y-104797127D01*
X128577614Y-104800079D01*
X128577613Y-104800079D01*
X128444589Y-104879220D01*
X128400856Y-104905238D01*
X128241881Y-105044655D01*
X128110976Y-105210708D01*
X128108287Y-105215819D01*
X128108285Y-105215822D01*
X128066167Y-105295875D01*
X128012523Y-105397836D01*
X127949820Y-105599773D01*
X127949141Y-105605510D01*
X127941627Y-105668995D01*
X127913756Y-105734292D01*
X127855008Y-105774156D01*
X127784034Y-105775930D01*
X127723367Y-105739051D01*
X127692269Y-105675227D01*
X127690500Y-105654185D01*
X127690500Y-104945354D01*
X127687382Y-104919154D01*
X127641939Y-104816847D01*
X127633444Y-104808366D01*
X127570945Y-104745977D01*
X127562713Y-104737759D01*
X127552076Y-104733056D01*
X127552074Y-104733055D01*
X127473609Y-104698366D01*
X127460327Y-104692494D01*
X127434646Y-104689500D01*
X125645354Y-104689500D01*
X125641650Y-104689941D01*
X125641647Y-104689941D01*
X125634254Y-104690821D01*
X125619154Y-104692618D01*
X125610514Y-104696456D01*
X125610513Y-104696456D01*
X125544131Y-104725942D01*
X125516847Y-104738061D01*
X125508628Y-104746294D01*
X125508627Y-104746295D01*
X125477142Y-104777835D01*
X125437759Y-104817287D01*
X125433056Y-104827924D01*
X125433055Y-104827926D01*
X125416852Y-104864577D01*
X125392494Y-104919673D01*
X125389500Y-104945354D01*
X125389500Y-106734646D01*
X125392618Y-106760846D01*
X125396456Y-106769486D01*
X125396456Y-106769487D01*
X125425805Y-106835561D01*
X125438061Y-106863153D01*
X125446294Y-106871372D01*
X125446295Y-106871373D01*
X125477716Y-106902739D01*
X125517287Y-106942241D01*
X125527924Y-106946944D01*
X125527926Y-106946945D01*
X125572874Y-106966816D01*
X125619673Y-106987506D01*
X125645354Y-106990500D01*
X126354988Y-106990500D01*
X126423109Y-107010502D01*
X126469602Y-107064158D01*
X126479706Y-107134432D01*
X126450212Y-107199012D01*
X126390486Y-107237396D01*
X126376326Y-107240680D01*
X126246650Y-107262962D01*
X126246649Y-107262962D01*
X126240953Y-107263941D01*
X126042575Y-107337127D01*
X126037614Y-107340079D01*
X126037613Y-107340079D01*
X125951273Y-107391446D01*
X125860856Y-107445238D01*
X125701881Y-107584655D01*
X125570976Y-107750708D01*
X125568287Y-107755819D01*
X125568285Y-107755822D01*
X125518842Y-107849799D01*
X125472523Y-107937836D01*
X125409820Y-108139773D01*
X125384967Y-108349754D01*
X122590500Y-108349754D01*
X122590500Y-98269754D01*
X150909967Y-98269754D01*
X150923796Y-98480749D01*
X150925217Y-98486345D01*
X150925218Y-98486350D01*
X150974424Y-98680095D01*
X150975845Y-98685690D01*
X151064369Y-98877714D01*
X151186405Y-99050391D01*
X151337865Y-99197937D01*
X151342661Y-99201142D01*
X151342664Y-99201144D01*
X151445216Y-99269667D01*
X151513677Y-99315411D01*
X151518985Y-99317692D01*
X151518986Y-99317692D01*
X151702650Y-99396600D01*
X151702653Y-99396601D01*
X151707953Y-99398878D01*
X151713582Y-99400152D01*
X151713583Y-99400152D01*
X151892368Y-99440607D01*
X151954395Y-99475150D01*
X151987899Y-99537743D01*
X151982245Y-99608514D01*
X151939226Y-99664994D01*
X151872501Y-99689249D01*
X151864560Y-99689500D01*
X151170354Y-99689500D01*
X151166650Y-99689941D01*
X151166647Y-99689941D01*
X151159254Y-99690821D01*
X151144154Y-99692618D01*
X151135514Y-99696456D01*
X151135513Y-99696456D01*
X151055150Y-99732152D01*
X151041847Y-99738061D01*
X150962759Y-99817287D01*
X150917494Y-99919673D01*
X150914500Y-99945354D01*
X150914500Y-101734646D01*
X150917618Y-101760846D01*
X150963061Y-101863153D01*
X150971294Y-101871372D01*
X150971295Y-101871373D01*
X150996422Y-101896456D01*
X151042287Y-101942241D01*
X151052924Y-101946944D01*
X151052926Y-101946945D01*
X151090382Y-101963504D01*
X151144673Y-101987506D01*
X151170354Y-101990500D01*
X152959646Y-101990500D01*
X152963350Y-101990059D01*
X152963353Y-101990059D01*
X152970746Y-101989179D01*
X152985846Y-101987382D01*
X153031123Y-101967271D01*
X153077518Y-101946663D01*
X153088153Y-101941939D01*
X153167241Y-101862713D01*
X153179872Y-101834144D01*
X153198265Y-101792538D01*
X153212506Y-101760327D01*
X153215500Y-101734646D01*
X153215500Y-101050673D01*
X153235502Y-100982552D01*
X153289158Y-100936059D01*
X153359432Y-100925955D01*
X153424012Y-100955449D01*
X153462396Y-101015175D01*
X153463658Y-101020784D01*
X153463796Y-101020749D01*
X153515845Y-101225690D01*
X153518262Y-101230933D01*
X153539086Y-101276103D01*
X153604369Y-101417714D01*
X153726405Y-101590391D01*
X153730539Y-101594418D01*
X153870727Y-101730983D01*
X153877865Y-101737937D01*
X153882661Y-101741142D01*
X153882664Y-101741144D01*
X154007273Y-101824405D01*
X154053677Y-101855411D01*
X154058985Y-101857692D01*
X154058986Y-101857692D01*
X154242650Y-101936600D01*
X154242653Y-101936601D01*
X154247953Y-101938878D01*
X154253582Y-101940152D01*
X154253583Y-101940152D01*
X154448550Y-101984269D01*
X154448553Y-101984269D01*
X154454186Y-101985544D01*
X154459957Y-101985771D01*
X154459959Y-101985771D01*
X154521989Y-101988208D01*
X154665470Y-101993846D01*
X154671179Y-101993018D01*
X154671183Y-101993018D01*
X154869015Y-101964333D01*
X154869019Y-101964332D01*
X154874730Y-101963504D01*
X154961579Y-101934023D01*
X155069483Y-101897395D01*
X155069488Y-101897393D01*
X155074955Y-101895537D01*
X155079998Y-101892713D01*
X155254395Y-101795046D01*
X155254399Y-101795043D01*
X155259442Y-101792219D01*
X155422012Y-101657012D01*
X155557219Y-101494442D01*
X155560043Y-101489399D01*
X155560046Y-101489395D01*
X155657713Y-101314998D01*
X155657714Y-101314996D01*
X155660537Y-101309955D01*
X155662393Y-101304488D01*
X155662395Y-101304483D01*
X155726647Y-101115200D01*
X155728504Y-101109730D01*
X155746945Y-100982552D01*
X155758314Y-100904140D01*
X155758314Y-100904138D01*
X155758846Y-100900470D01*
X155760429Y-100840000D01*
X155741081Y-100629440D01*
X155683686Y-100425931D01*
X155672553Y-100403354D01*
X155592719Y-100241469D01*
X155590165Y-100236290D01*
X155463651Y-100066867D01*
X155336236Y-99949086D01*
X155312622Y-99927257D01*
X155312620Y-99927255D01*
X155308381Y-99923337D01*
X155275014Y-99902284D01*
X155134434Y-99813584D01*
X155134433Y-99813584D01*
X155129554Y-99810505D01*
X155105643Y-99800966D01*
X155049785Y-99757147D01*
X155026483Y-99690083D01*
X155043138Y-99621068D01*
X155094461Y-99572013D01*
X155106348Y-99566627D01*
X155106842Y-99566433D01*
X155298095Y-99472739D01*
X155306945Y-99467464D01*
X155480328Y-99343792D01*
X155488200Y-99337139D01*
X155639052Y-99186812D01*
X155645730Y-99178965D01*
X155770003Y-99006020D01*
X155775313Y-98997183D01*
X155869670Y-98806267D01*
X155873469Y-98796672D01*
X155935377Y-98592910D01*
X155937555Y-98582837D01*
X155938986Y-98571962D01*
X155936775Y-98557778D01*
X155923617Y-98554000D01*
X154477000Y-98554000D01*
X154408879Y-98533998D01*
X154362386Y-98480342D01*
X154351000Y-98428000D01*
X154351000Y-98027885D01*
X154859000Y-98027885D01*
X154863475Y-98043124D01*
X154864865Y-98044329D01*
X154872548Y-98046000D01*
X155923344Y-98046000D01*
X155936875Y-98042027D01*
X155938180Y-98032947D01*
X155896214Y-97865875D01*
X155892894Y-97856124D01*
X155807972Y-97660814D01*
X155803105Y-97651739D01*
X155687426Y-97472926D01*
X155681136Y-97464757D01*
X155537806Y-97307240D01*
X155530273Y-97300215D01*
X155363139Y-97168222D01*
X155354552Y-97162517D01*
X155168117Y-97059599D01*
X155158705Y-97055369D01*
X154957959Y-96984280D01*
X154947988Y-96981646D01*
X154876837Y-96968972D01*
X154863540Y-96970432D01*
X154859000Y-96984989D01*
X154859000Y-98027885D01*
X154351000Y-98027885D01*
X154351000Y-96983102D01*
X154347082Y-96969758D01*
X154332806Y-96967771D01*
X154294324Y-96973660D01*
X154284288Y-96976051D01*
X154081868Y-97042212D01*
X154072359Y-97046209D01*
X153883463Y-97144542D01*
X153874738Y-97150036D01*
X153704433Y-97277905D01*
X153696726Y-97284748D01*
X153549590Y-97438717D01*
X153543104Y-97446727D01*
X153423098Y-97622649D01*
X153418000Y-97631623D01*
X153335033Y-97810360D01*
X153288209Y-97863727D01*
X153219965Y-97883308D01*
X153151970Y-97862884D01*
X153107739Y-97813038D01*
X153052721Y-97701473D01*
X153050165Y-97696290D01*
X152923651Y-97526867D01*
X152768381Y-97383337D01*
X152589554Y-97270505D01*
X152393160Y-97192152D01*
X152387503Y-97191027D01*
X152387497Y-97191025D01*
X152191442Y-97152028D01*
X152191440Y-97152028D01*
X152185775Y-97150901D01*
X152180000Y-97150825D01*
X152179996Y-97150825D01*
X152073976Y-97149437D01*
X151974346Y-97148133D01*
X151968649Y-97149112D01*
X151968648Y-97149112D01*
X151771650Y-97182962D01*
X151771649Y-97182962D01*
X151765953Y-97183941D01*
X151567575Y-97257127D01*
X151562614Y-97260079D01*
X151562613Y-97260079D01*
X151545089Y-97270505D01*
X151385856Y-97365238D01*
X151226881Y-97504655D01*
X151095976Y-97670708D01*
X151093287Y-97675819D01*
X151093285Y-97675822D01*
X151043400Y-97770638D01*
X150997523Y-97857836D01*
X150934820Y-98059773D01*
X150909967Y-98269754D01*
X122590500Y-98269754D01*
X122590500Y-89282611D01*
X136584394Y-89282611D01*
X136602999Y-89451135D01*
X136621863Y-89502683D01*
X136653768Y-89589866D01*
X136661266Y-89610356D01*
X136755830Y-89751083D01*
X136761442Y-89756190D01*
X136761445Y-89756193D01*
X136875612Y-89860077D01*
X136875616Y-89860080D01*
X136881233Y-89865191D01*
X136887906Y-89868814D01*
X136887910Y-89868817D01*
X137023558Y-89942467D01*
X137023560Y-89942468D01*
X137030235Y-89946092D01*
X137037584Y-89948020D01*
X137186883Y-89987188D01*
X137186885Y-89987188D01*
X137194233Y-89989116D01*
X137280609Y-89990473D01*
X137356161Y-89991660D01*
X137356164Y-89991660D01*
X137363760Y-89991779D01*
X137371165Y-89990083D01*
X137371166Y-89990083D01*
X137431586Y-89976245D01*
X137529029Y-89953928D01*
X137680498Y-89877747D01*
X137686271Y-89872816D01*
X137692602Y-89868610D01*
X137693995Y-89870707D01*
X137747744Y-89846634D01*
X137817942Y-89857251D01*
X137853859Y-89882384D01*
X138313071Y-90341596D01*
X138347097Y-90403908D01*
X138349215Y-90416863D01*
X138352999Y-90451135D01*
X138355608Y-90458266D01*
X138355609Y-90458268D01*
X138370288Y-90498379D01*
X138411266Y-90610356D01*
X138415502Y-90616659D01*
X138415502Y-90616660D01*
X138428574Y-90636113D01*
X138505830Y-90751083D01*
X138511442Y-90756190D01*
X138511445Y-90756193D01*
X138625612Y-90860077D01*
X138625616Y-90860080D01*
X138631233Y-90865191D01*
X138637906Y-90868814D01*
X138637910Y-90868817D01*
X138773558Y-90942467D01*
X138773560Y-90942468D01*
X138780235Y-90946092D01*
X138787584Y-90948020D01*
X138936883Y-90987188D01*
X138936885Y-90987188D01*
X138944233Y-90989116D01*
X139030609Y-90990473D01*
X139106161Y-90991660D01*
X139106164Y-90991660D01*
X139113760Y-90991779D01*
X139121165Y-90990083D01*
X139121166Y-90990083D01*
X139181586Y-90976245D01*
X139279029Y-90953928D01*
X139430498Y-90877747D01*
X139559423Y-90767634D01*
X139658361Y-90629947D01*
X139666237Y-90610356D01*
X139718766Y-90479687D01*
X139718767Y-90479685D01*
X139721601Y-90472634D01*
X139740250Y-90341596D01*
X139744909Y-90308862D01*
X139744909Y-90308859D01*
X139745490Y-90304778D01*
X139745645Y-90290000D01*
X139725276Y-90121680D01*
X139665345Y-89963077D01*
X139654997Y-89948020D01*
X139573614Y-89829608D01*
X139573613Y-89829607D01*
X139569312Y-89823349D01*
X139523589Y-89782611D01*
X139448392Y-89715612D01*
X139448388Y-89715610D01*
X139442721Y-89710560D01*
X139292881Y-89631224D01*
X139181402Y-89603222D01*
X139148865Y-89595049D01*
X139090466Y-89561941D01*
X138439870Y-88911346D01*
X138436217Y-88907536D01*
X138400015Y-88868167D01*
X138394201Y-88861844D01*
X138357198Y-88838901D01*
X138347448Y-88832200D01*
X138312783Y-88805888D01*
X138298804Y-88800354D01*
X138278801Y-88790293D01*
X138266014Y-88782365D01*
X138257763Y-88779968D01*
X138257761Y-88779967D01*
X138224228Y-88770225D01*
X138212995Y-88766379D01*
X138172547Y-88750364D01*
X138164006Y-88749466D01*
X138164005Y-88749466D01*
X138157592Y-88748792D01*
X138135617Y-88744480D01*
X138121175Y-88740285D01*
X138113692Y-88739736D01*
X138112792Y-88739669D01*
X138112781Y-88739669D01*
X138110485Y-88739500D01*
X138075783Y-88739500D01*
X138062613Y-88738810D01*
X138052384Y-88737735D01*
X138022546Y-88734599D01*
X138014081Y-88736031D01*
X138014072Y-88736031D01*
X138004000Y-88737735D01*
X137982987Y-88739500D01*
X137772248Y-88739500D01*
X137700339Y-88716965D01*
X137698387Y-88715608D01*
X137692721Y-88710560D01*
X137686015Y-88707009D01*
X137686013Y-88707008D01*
X137617801Y-88670892D01*
X137542881Y-88631224D01*
X137378441Y-88589919D01*
X137370843Y-88589879D01*
X137370841Y-88589879D01*
X137293668Y-88589475D01*
X137208895Y-88589031D01*
X137201508Y-88590805D01*
X137201504Y-88590805D01*
X137058162Y-88625220D01*
X137044032Y-88628612D01*
X137037288Y-88632093D01*
X137037285Y-88632094D01*
X137032089Y-88634776D01*
X136893369Y-88706375D01*
X136887647Y-88711367D01*
X136887645Y-88711368D01*
X136842943Y-88750364D01*
X136765604Y-88817831D01*
X136668113Y-88956547D01*
X136606524Y-89114513D01*
X136605532Y-89122046D01*
X136605532Y-89122047D01*
X136591102Y-89231660D01*
X136584394Y-89282611D01*
X122590500Y-89282611D01*
X122590500Y-72774754D01*
X125709967Y-72774754D01*
X125723796Y-72985749D01*
X125725217Y-72991345D01*
X125725218Y-72991350D01*
X125747784Y-73080200D01*
X125775845Y-73190690D01*
X125778262Y-73195933D01*
X125827376Y-73302469D01*
X125864369Y-73382714D01*
X125986405Y-73555391D01*
X126137865Y-73702937D01*
X126142661Y-73706142D01*
X126142664Y-73706144D01*
X126257258Y-73782713D01*
X126313677Y-73820411D01*
X126318985Y-73822692D01*
X126318986Y-73822692D01*
X126502650Y-73901600D01*
X126502653Y-73901601D01*
X126507953Y-73903878D01*
X126513582Y-73905152D01*
X126513583Y-73905152D01*
X126708550Y-73949269D01*
X126708553Y-73949269D01*
X126714186Y-73950544D01*
X126719957Y-73950771D01*
X126719959Y-73950771D01*
X126781989Y-73953208D01*
X126925470Y-73958846D01*
X126931179Y-73958018D01*
X126931183Y-73958018D01*
X127129015Y-73929333D01*
X127129019Y-73929332D01*
X127134730Y-73928504D01*
X127213987Y-73901600D01*
X127329483Y-73862395D01*
X127329488Y-73862393D01*
X127334955Y-73860537D01*
X127347403Y-73853566D01*
X127514395Y-73760046D01*
X127514399Y-73760043D01*
X127519442Y-73757219D01*
X127682012Y-73622012D01*
X127817219Y-73459442D01*
X127820043Y-73454399D01*
X127820046Y-73454395D01*
X127917713Y-73279998D01*
X127917714Y-73279996D01*
X127920537Y-73274955D01*
X127922393Y-73269488D01*
X127922395Y-73269483D01*
X127986647Y-73080200D01*
X127988504Y-73074730D01*
X127999379Y-72999730D01*
X128010090Y-72925860D01*
X128039660Y-72861315D01*
X128099432Y-72823003D01*
X128170429Y-72823087D01*
X128230109Y-72861542D01*
X128259525Y-72926158D01*
X128260515Y-72935695D01*
X128263796Y-72985749D01*
X128265217Y-72991345D01*
X128265218Y-72991350D01*
X128287784Y-73080200D01*
X128315845Y-73190690D01*
X128318262Y-73195933D01*
X128367376Y-73302469D01*
X128404369Y-73382714D01*
X128526405Y-73555391D01*
X128677865Y-73702937D01*
X128682661Y-73706142D01*
X128682664Y-73706144D01*
X128797258Y-73782713D01*
X128853677Y-73820411D01*
X128858985Y-73822692D01*
X128858986Y-73822692D01*
X129042650Y-73901600D01*
X129042653Y-73901601D01*
X129047953Y-73903878D01*
X129053582Y-73905152D01*
X129053583Y-73905152D01*
X129248550Y-73949269D01*
X129248553Y-73949269D01*
X129254186Y-73950544D01*
X129259957Y-73950771D01*
X129259959Y-73950771D01*
X129321989Y-73953208D01*
X129465470Y-73958846D01*
X129471179Y-73958018D01*
X129471183Y-73958018D01*
X129669015Y-73929333D01*
X129669019Y-73929332D01*
X129674730Y-73928504D01*
X129743524Y-73905152D01*
X129762298Y-73898779D01*
X129833233Y-73895823D01*
X129891894Y-73928997D01*
X131797247Y-75834350D01*
X131807101Y-75845439D01*
X131817500Y-75858629D01*
X131828128Y-75872110D01*
X131835875Y-75877465D01*
X131835877Y-75877466D01*
X131841749Y-75881524D01*
X131874668Y-75904275D01*
X131876375Y-75905455D01*
X131879587Y-75907750D01*
X131926816Y-75942634D01*
X131933632Y-75945027D01*
X131939569Y-75949131D01*
X131948549Y-75951971D01*
X131948551Y-75951972D01*
X131968399Y-75958249D01*
X131995519Y-75966826D01*
X131999250Y-75968071D01*
X132045737Y-75984396D01*
X132045739Y-75984396D01*
X132054631Y-75987519D01*
X132061819Y-75987801D01*
X132061878Y-75987812D01*
X132068730Y-75989980D01*
X132075337Y-75990500D01*
X132128016Y-75990500D01*
X132132962Y-75990597D01*
X132189994Y-75992838D01*
X132197100Y-75990954D01*
X132205347Y-75990500D01*
X152505780Y-75990500D01*
X152520589Y-75991373D01*
X152554310Y-75995364D01*
X152563574Y-75993672D01*
X152563575Y-75993672D01*
X152612001Y-75984828D01*
X152615904Y-75984178D01*
X152664645Y-75976850D01*
X152664646Y-75976850D01*
X152673962Y-75975449D01*
X152680475Y-75972321D01*
X152687573Y-75971025D01*
X152739647Y-75943975D01*
X152743137Y-75942232D01*
X152796079Y-75916809D01*
X152801365Y-75911923D01*
X152801413Y-75911890D01*
X152807788Y-75908579D01*
X152812828Y-75904275D01*
X152850055Y-75867048D01*
X152853621Y-75863618D01*
X152888641Y-75831246D01*
X152895556Y-75824854D01*
X152899249Y-75818495D01*
X152904766Y-75812337D01*
X154189698Y-74527405D01*
X154252010Y-74493379D01*
X154278793Y-74490500D01*
X154737321Y-74490500D01*
X154805442Y-74510502D01*
X154851935Y-74564158D01*
X154862039Y-74634432D01*
X154832545Y-74699012D01*
X154798633Y-74726576D01*
X154523660Y-74879735D01*
X154195601Y-75104461D01*
X154193375Y-75106309D01*
X154193365Y-75106317D01*
X154058182Y-75218572D01*
X153889677Y-75358497D01*
X153608497Y-75639677D01*
X153606643Y-75641910D01*
X153606640Y-75641913D01*
X153356317Y-75943365D01*
X153356309Y-75943375D01*
X153354461Y-75945601D01*
X153129735Y-76273660D01*
X152936238Y-76621054D01*
X152775619Y-76984821D01*
X152649250Y-77361855D01*
X152648584Y-77364689D01*
X152648582Y-77364694D01*
X152619438Y-77488606D01*
X152558208Y-77748941D01*
X152557806Y-77751826D01*
X152557805Y-77751829D01*
X152525014Y-77986906D01*
X152503271Y-78142776D01*
X152484921Y-78539677D01*
X152484864Y-78540000D01*
X152486779Y-78550859D01*
X152487586Y-78555437D01*
X152489500Y-78577317D01*
X152489500Y-89502683D01*
X152487586Y-89524563D01*
X152484864Y-89540000D01*
X152484921Y-89540323D01*
X152487212Y-89589866D01*
X152500736Y-89882384D01*
X152503271Y-89937224D01*
X152505601Y-89953928D01*
X152553967Y-90300653D01*
X152558208Y-90331059D01*
X152583963Y-90440562D01*
X152626849Y-90622900D01*
X152649250Y-90718145D01*
X152775619Y-91095179D01*
X152776798Y-91097849D01*
X152906982Y-91392688D01*
X152916200Y-91463084D01*
X152885895Y-91527288D01*
X152825690Y-91564916D01*
X152754699Y-91564021D01*
X152702623Y-91532677D01*
X142432405Y-81262459D01*
X142398379Y-81200147D01*
X142395500Y-81173364D01*
X142395500Y-80159356D01*
X142415502Y-80091235D01*
X142456988Y-80051124D01*
X142459926Y-80049373D01*
X142464574Y-80047096D01*
X142652062Y-79913363D01*
X142815190Y-79750803D01*
X142825308Y-79736722D01*
X142912489Y-79615397D01*
X142968484Y-79571749D01*
X143039187Y-79565303D01*
X143102152Y-79598106D01*
X143122245Y-79623089D01*
X143148278Y-79665572D01*
X143148284Y-79665580D01*
X143150979Y-79669978D01*
X143301763Y-79844048D01*
X143478953Y-79991154D01*
X143677790Y-80107345D01*
X143682615Y-80109187D01*
X143682616Y-80109188D01*
X143714525Y-80121373D01*
X143892934Y-80189501D01*
X143898000Y-80190532D01*
X143898001Y-80190532D01*
X143929523Y-80196945D01*
X144118607Y-80235414D01*
X144248352Y-80240172D01*
X144343585Y-80243664D01*
X144343589Y-80243664D01*
X144348749Y-80243853D01*
X144353869Y-80243197D01*
X144353871Y-80243197D01*
X144428202Y-80233675D01*
X144577178Y-80214591D01*
X144582126Y-80213106D01*
X144582133Y-80213105D01*
X144792811Y-80149898D01*
X144792810Y-80149898D01*
X144797761Y-80148413D01*
X145004574Y-80047096D01*
X145192062Y-79913363D01*
X145355190Y-79750803D01*
X145365308Y-79736722D01*
X145452489Y-79615397D01*
X145508484Y-79571749D01*
X145579187Y-79565303D01*
X145642152Y-79598106D01*
X145662245Y-79623089D01*
X145688278Y-79665572D01*
X145688284Y-79665580D01*
X145690979Y-79669978D01*
X145841763Y-79844048D01*
X146018953Y-79991154D01*
X146217790Y-80107345D01*
X146222615Y-80109187D01*
X146222616Y-80109188D01*
X146254525Y-80121373D01*
X146432934Y-80189501D01*
X146438000Y-80190532D01*
X146438001Y-80190532D01*
X146469523Y-80196945D01*
X146658607Y-80235414D01*
X146788352Y-80240172D01*
X146883585Y-80243664D01*
X146883589Y-80243664D01*
X146888749Y-80243853D01*
X146893869Y-80243197D01*
X146893871Y-80243197D01*
X146968202Y-80233675D01*
X147117178Y-80214591D01*
X147122126Y-80213106D01*
X147122133Y-80213105D01*
X147332811Y-80149898D01*
X147332810Y-80149898D01*
X147337761Y-80148413D01*
X147544574Y-80047096D01*
X147732062Y-79913363D01*
X147895190Y-79750803D01*
X147905308Y-79736722D01*
X147992489Y-79615397D01*
X148048484Y-79571749D01*
X148119187Y-79565303D01*
X148182152Y-79598106D01*
X148202245Y-79623089D01*
X148228278Y-79665572D01*
X148228284Y-79665580D01*
X148230979Y-79669978D01*
X148381763Y-79844048D01*
X148558953Y-79991154D01*
X148757790Y-80107345D01*
X148762615Y-80109187D01*
X148762616Y-80109188D01*
X148794525Y-80121373D01*
X148972934Y-80189501D01*
X148978000Y-80190532D01*
X148978001Y-80190532D01*
X149009523Y-80196945D01*
X149198607Y-80235414D01*
X149328352Y-80240172D01*
X149423585Y-80243664D01*
X149423589Y-80243664D01*
X149428749Y-80243853D01*
X149433869Y-80243197D01*
X149433871Y-80243197D01*
X149508202Y-80233675D01*
X149657178Y-80214591D01*
X149662126Y-80213106D01*
X149662133Y-80213105D01*
X149872811Y-80149898D01*
X149872810Y-80149898D01*
X149877761Y-80148413D01*
X150084574Y-80047096D01*
X150272062Y-79913363D01*
X150435190Y-79750803D01*
X150458049Y-79718992D01*
X150566559Y-79567983D01*
X150569577Y-79563783D01*
X150572451Y-79557969D01*
X150625415Y-79450803D01*
X150671615Y-79357325D01*
X150697615Y-79271749D01*
X150737059Y-79141927D01*
X150737060Y-79141921D01*
X150738563Y-79136975D01*
X150768622Y-78908649D01*
X150768704Y-78905296D01*
X150770218Y-78843364D01*
X150770218Y-78843360D01*
X150770300Y-78840000D01*
X150751430Y-78610478D01*
X150695326Y-78387120D01*
X150603496Y-78175924D01*
X150505903Y-78025068D01*
X150481215Y-77986906D01*
X150481213Y-77986903D01*
X150478405Y-77982563D01*
X150472979Y-77976599D01*
X150326890Y-77816051D01*
X150326889Y-77816050D01*
X150323412Y-77812229D01*
X150319361Y-77809030D01*
X150319357Y-77809026D01*
X150146735Y-77672697D01*
X150146730Y-77672693D01*
X150142681Y-77669496D01*
X150138165Y-77667003D01*
X150138162Y-77667001D01*
X149945589Y-77560695D01*
X149945585Y-77560693D01*
X149941065Y-77558198D01*
X149936196Y-77556474D01*
X149936192Y-77556472D01*
X149728853Y-77483049D01*
X149728849Y-77483048D01*
X149723978Y-77481323D01*
X149718885Y-77480416D01*
X149718882Y-77480415D01*
X149616548Y-77462187D01*
X149497250Y-77440937D01*
X149410802Y-77439881D01*
X149272141Y-77438186D01*
X149272139Y-77438186D01*
X149266971Y-77438123D01*
X149039325Y-77472958D01*
X148820424Y-77544506D01*
X148616149Y-77650845D01*
X148431984Y-77789119D01*
X148272877Y-77955616D01*
X148199131Y-78063724D01*
X148144220Y-78108726D01*
X148073695Y-78116897D01*
X148009948Y-78085643D01*
X147989251Y-78061159D01*
X147941215Y-77986906D01*
X147941213Y-77986903D01*
X147938405Y-77982563D01*
X147932979Y-77976599D01*
X147786890Y-77816051D01*
X147786889Y-77816050D01*
X147783412Y-77812229D01*
X147779361Y-77809030D01*
X147779357Y-77809026D01*
X147606735Y-77672697D01*
X147606730Y-77672693D01*
X147602681Y-77669496D01*
X147598165Y-77667003D01*
X147598162Y-77667001D01*
X147405589Y-77560695D01*
X147405585Y-77560693D01*
X147401065Y-77558198D01*
X147396196Y-77556474D01*
X147396192Y-77556472D01*
X147188853Y-77483049D01*
X147188849Y-77483048D01*
X147183978Y-77481323D01*
X147178885Y-77480416D01*
X147178882Y-77480415D01*
X147076548Y-77462187D01*
X146957250Y-77440937D01*
X146870802Y-77439881D01*
X146732141Y-77438186D01*
X146732139Y-77438186D01*
X146726971Y-77438123D01*
X146499325Y-77472958D01*
X146280424Y-77544506D01*
X146076149Y-77650845D01*
X145891984Y-77789119D01*
X145732877Y-77955616D01*
X145659131Y-78063724D01*
X145604220Y-78108726D01*
X145533695Y-78116897D01*
X145469948Y-78085643D01*
X145449251Y-78061159D01*
X145401215Y-77986906D01*
X145401213Y-77986903D01*
X145398405Y-77982563D01*
X145392979Y-77976599D01*
X145246890Y-77816051D01*
X145246889Y-77816050D01*
X145243412Y-77812229D01*
X145239361Y-77809030D01*
X145239357Y-77809026D01*
X145066735Y-77672697D01*
X145066730Y-77672693D01*
X145062681Y-77669496D01*
X145058165Y-77667003D01*
X145058162Y-77667001D01*
X144865589Y-77560695D01*
X144865585Y-77560693D01*
X144861065Y-77558198D01*
X144856196Y-77556474D01*
X144856192Y-77556472D01*
X144648853Y-77483049D01*
X144648849Y-77483048D01*
X144643978Y-77481323D01*
X144638885Y-77480416D01*
X144638882Y-77480415D01*
X144536548Y-77462187D01*
X144417250Y-77440937D01*
X144330802Y-77439881D01*
X144192141Y-77438186D01*
X144192139Y-77438186D01*
X144186971Y-77438123D01*
X143959325Y-77472958D01*
X143740424Y-77544506D01*
X143536149Y-77650845D01*
X143351984Y-77789119D01*
X143192877Y-77955616D01*
X143119131Y-78063724D01*
X143064220Y-78108726D01*
X142993695Y-78116897D01*
X142929948Y-78085643D01*
X142909251Y-78061159D01*
X142861215Y-77986906D01*
X142861213Y-77986903D01*
X142858405Y-77982563D01*
X142852979Y-77976599D01*
X142706890Y-77816051D01*
X142706889Y-77816050D01*
X142703412Y-77812229D01*
X142699361Y-77809030D01*
X142699357Y-77809026D01*
X142526735Y-77672697D01*
X142526730Y-77672693D01*
X142522681Y-77669496D01*
X142518165Y-77667003D01*
X142518162Y-77667001D01*
X142325589Y-77560695D01*
X142325585Y-77560693D01*
X142321065Y-77558198D01*
X142316196Y-77556474D01*
X142316192Y-77556472D01*
X142108853Y-77483049D01*
X142108849Y-77483048D01*
X142103978Y-77481323D01*
X142098885Y-77480416D01*
X142098882Y-77480415D01*
X141996548Y-77462187D01*
X141877250Y-77440937D01*
X141790802Y-77439881D01*
X141652141Y-77438186D01*
X141652139Y-77438186D01*
X141646971Y-77438123D01*
X141419325Y-77472958D01*
X141200424Y-77544506D01*
X140996149Y-77650845D01*
X140811984Y-77789119D01*
X140652877Y-77955616D01*
X140579131Y-78063724D01*
X140524220Y-78108726D01*
X140453695Y-78116897D01*
X140389948Y-78085643D01*
X140369251Y-78061159D01*
X140321215Y-77986906D01*
X140321213Y-77986903D01*
X140318405Y-77982563D01*
X140312979Y-77976599D01*
X140166890Y-77816051D01*
X140166889Y-77816050D01*
X140163412Y-77812229D01*
X140159361Y-77809030D01*
X140159357Y-77809026D01*
X139986735Y-77672697D01*
X139986730Y-77672693D01*
X139982681Y-77669496D01*
X139978165Y-77667003D01*
X139978162Y-77667001D01*
X139785589Y-77560695D01*
X139785585Y-77560693D01*
X139781065Y-77558198D01*
X139776196Y-77556474D01*
X139776192Y-77556472D01*
X139568853Y-77483049D01*
X139568849Y-77483048D01*
X139563978Y-77481323D01*
X139558885Y-77480416D01*
X139558882Y-77480415D01*
X139456548Y-77462187D01*
X139337250Y-77440937D01*
X139250802Y-77439881D01*
X139112141Y-77438186D01*
X139112139Y-77438186D01*
X139106971Y-77438123D01*
X138879325Y-77472958D01*
X138660424Y-77544506D01*
X138456149Y-77650845D01*
X138271984Y-77789119D01*
X138271599Y-77788606D01*
X138210795Y-77817273D01*
X138140403Y-77808025D01*
X138086186Y-77762187D01*
X138065569Y-77700247D01*
X138065500Y-77699083D01*
X138065500Y-77695354D01*
X138065060Y-77691653D01*
X138065059Y-77691644D01*
X138063499Y-77678541D01*
X138062382Y-77669154D01*
X138058265Y-77659884D01*
X138021663Y-77577482D01*
X138016939Y-77566847D01*
X137937713Y-77487759D01*
X137927076Y-77483056D01*
X137927074Y-77483055D01*
X137867538Y-77456735D01*
X137835327Y-77442494D01*
X137809646Y-77439500D01*
X135520354Y-77439500D01*
X135516650Y-77439941D01*
X135516647Y-77439941D01*
X135509254Y-77440821D01*
X135494154Y-77442618D01*
X135485514Y-77446456D01*
X135485513Y-77446456D01*
X135403117Y-77483055D01*
X135391847Y-77488061D01*
X135383628Y-77496294D01*
X135383627Y-77496295D01*
X135367721Y-77512229D01*
X135312759Y-77567287D01*
X135308056Y-77577924D01*
X135308055Y-77577926D01*
X135294391Y-77608833D01*
X135267494Y-77669673D01*
X135264500Y-77695354D01*
X135264500Y-79984646D01*
X135264941Y-79988350D01*
X135264941Y-79988353D01*
X135265585Y-79993764D01*
X135267618Y-80010846D01*
X135271456Y-80019486D01*
X135271456Y-80019487D01*
X135303325Y-80091235D01*
X135313061Y-80113153D01*
X135321294Y-80121372D01*
X135321295Y-80121373D01*
X135349870Y-80149898D01*
X135392287Y-80192241D01*
X135402924Y-80196944D01*
X135402926Y-80196945D01*
X135442841Y-80214591D01*
X135494673Y-80237506D01*
X135520354Y-80240500D01*
X137809646Y-80240500D01*
X137813350Y-80240059D01*
X137813353Y-80240059D01*
X137820746Y-80239179D01*
X137835846Y-80237382D01*
X137890502Y-80213105D01*
X137927518Y-80196663D01*
X137938153Y-80191939D01*
X138017241Y-80112713D01*
X138024098Y-80097205D01*
X138058675Y-80018992D01*
X138062506Y-80010327D01*
X138065500Y-79984646D01*
X138065500Y-79980980D01*
X138065712Y-79977335D01*
X138067049Y-79977413D01*
X138085502Y-79914566D01*
X138139158Y-79868073D01*
X138209432Y-79857969D01*
X138271985Y-79885743D01*
X138398953Y-79991154D01*
X138597790Y-80107345D01*
X138602615Y-80109187D01*
X138602616Y-80109188D01*
X138634525Y-80121373D01*
X138812934Y-80189501D01*
X138818000Y-80190532D01*
X138818001Y-80190532D01*
X138849523Y-80196945D01*
X139038607Y-80235414D01*
X139168352Y-80240172D01*
X139263585Y-80243664D01*
X139263589Y-80243664D01*
X139268749Y-80243853D01*
X139273869Y-80243197D01*
X139273871Y-80243197D01*
X139348202Y-80233675D01*
X139497178Y-80214591D01*
X139502126Y-80213106D01*
X139502133Y-80213105D01*
X139712811Y-80149898D01*
X139712810Y-80149898D01*
X139717761Y-80148413D01*
X139924574Y-80047096D01*
X140112062Y-79913363D01*
X140275190Y-79750803D01*
X140285308Y-79736722D01*
X140372489Y-79615397D01*
X140428484Y-79571749D01*
X140499187Y-79565303D01*
X140562152Y-79598106D01*
X140582245Y-79623089D01*
X140608278Y-79665572D01*
X140608284Y-79665580D01*
X140610979Y-79669978D01*
X140761763Y-79844048D01*
X140938953Y-79991154D01*
X141027811Y-80043078D01*
X141032070Y-80045567D01*
X141080794Y-80097205D01*
X141094500Y-80154355D01*
X141094500Y-81414000D01*
X141093951Y-81425640D01*
X141092240Y-81433296D01*
X141092489Y-81441219D01*
X141094438Y-81503230D01*
X141094500Y-81507188D01*
X141094500Y-81535925D01*
X141094995Y-81539842D01*
X141095039Y-81540191D01*
X141095971Y-81552024D01*
X141097403Y-81597569D01*
X141099615Y-81605183D01*
X141099616Y-81605188D01*
X141103278Y-81617792D01*
X141107289Y-81637156D01*
X141109929Y-81658058D01*
X141112848Y-81665429D01*
X141112848Y-81665431D01*
X141126702Y-81700420D01*
X141130541Y-81711631D01*
X141143256Y-81755398D01*
X141153981Y-81773533D01*
X141162676Y-81791281D01*
X141170432Y-81810871D01*
X141197218Y-81847738D01*
X141203725Y-81857646D01*
X141222883Y-81890042D01*
X141222887Y-81890047D01*
X141226919Y-81896865D01*
X141241812Y-81911758D01*
X141254653Y-81926792D01*
X141267037Y-81943837D01*
X141273145Y-81948890D01*
X141302143Y-81972879D01*
X141310923Y-81980869D01*
X154772752Y-95442698D01*
X154780593Y-95451315D01*
X154784798Y-95457940D01*
X154790577Y-95463367D01*
X154790578Y-95463368D01*
X154835816Y-95505849D01*
X154838658Y-95508604D01*
X154858966Y-95528912D01*
X154862103Y-95531345D01*
X154862372Y-95531554D01*
X154871402Y-95539266D01*
X154904607Y-95570448D01*
X154923070Y-95580599D01*
X154939590Y-95591450D01*
X154956237Y-95604363D01*
X154998046Y-95622455D01*
X155008706Y-95627677D01*
X155048632Y-95649627D01*
X155069037Y-95654866D01*
X155087742Y-95661270D01*
X155107074Y-95669636D01*
X155114900Y-95670876D01*
X155114905Y-95670877D01*
X155152076Y-95676765D01*
X155163696Y-95679171D01*
X155200142Y-95688528D01*
X155207823Y-95690500D01*
X155228884Y-95690500D01*
X155248596Y-95692051D01*
X155269405Y-95695347D01*
X155277297Y-95694601D01*
X155314767Y-95691059D01*
X155326625Y-95690500D01*
X166583364Y-95690500D01*
X166651485Y-95710502D01*
X166672459Y-95727405D01*
X172769459Y-101824405D01*
X172803485Y-101886717D01*
X172798420Y-101957532D01*
X172755873Y-102014368D01*
X172689353Y-102039179D01*
X172680364Y-102039500D01*
X171620354Y-102039500D01*
X171616650Y-102039941D01*
X171616647Y-102039941D01*
X171609254Y-102040821D01*
X171594154Y-102042618D01*
X171585514Y-102046456D01*
X171585513Y-102046456D01*
X171519131Y-102075942D01*
X171491847Y-102088061D01*
X171412759Y-102167287D01*
X171408056Y-102177924D01*
X171408055Y-102177926D01*
X171381735Y-102237462D01*
X171367494Y-102269673D01*
X171364500Y-102295354D01*
X171364500Y-104084646D01*
X171367618Y-104110846D01*
X171413061Y-104213153D01*
X171421294Y-104221372D01*
X171421295Y-104221373D01*
X171447363Y-104247395D01*
X171492287Y-104292241D01*
X171502924Y-104296944D01*
X171502926Y-104296945D01*
X171540382Y-104313504D01*
X171594673Y-104337506D01*
X171620354Y-104340500D01*
X172329988Y-104340500D01*
X172398109Y-104360502D01*
X172444602Y-104414158D01*
X172454706Y-104484432D01*
X172425212Y-104549012D01*
X172365486Y-104587396D01*
X172351326Y-104590680D01*
X172221650Y-104612962D01*
X172221649Y-104612962D01*
X172215953Y-104613941D01*
X172017575Y-104687127D01*
X172012614Y-104690079D01*
X172012613Y-104690079D01*
X171859538Y-104781149D01*
X171835856Y-104795238D01*
X171676881Y-104934655D01*
X171545976Y-105100708D01*
X171543287Y-105105819D01*
X171543285Y-105105822D01*
X171513387Y-105162649D01*
X171447523Y-105287836D01*
X171384820Y-105489773D01*
X171359967Y-105699754D01*
X171373796Y-105910749D01*
X171375217Y-105916345D01*
X171375218Y-105916350D01*
X171415256Y-106073998D01*
X171425845Y-106115690D01*
X171428262Y-106120933D01*
X171488262Y-106251083D01*
X171514369Y-106307714D01*
X171636405Y-106480391D01*
X171787865Y-106627937D01*
X171792661Y-106631142D01*
X171792664Y-106631144D01*
X171895216Y-106699667D01*
X171963677Y-106745411D01*
X171968985Y-106747692D01*
X171968986Y-106747692D01*
X172152650Y-106826600D01*
X172152653Y-106826601D01*
X172157953Y-106828878D01*
X172163582Y-106830152D01*
X172163583Y-106830152D01*
X172358550Y-106874269D01*
X172358553Y-106874269D01*
X172364186Y-106875544D01*
X172369957Y-106875771D01*
X172369959Y-106875771D01*
X172431989Y-106878208D01*
X172575470Y-106883846D01*
X172581179Y-106883018D01*
X172581183Y-106883018D01*
X172779015Y-106854333D01*
X172779019Y-106854332D01*
X172784730Y-106853504D01*
X172863987Y-106826600D01*
X172979483Y-106787395D01*
X172979488Y-106787393D01*
X172984955Y-106785537D01*
X172989998Y-106782713D01*
X173164395Y-106685046D01*
X173164399Y-106685043D01*
X173169442Y-106682219D01*
X173332012Y-106547012D01*
X173467219Y-106384442D01*
X173470043Y-106379399D01*
X173470046Y-106379395D01*
X173567713Y-106204998D01*
X173567714Y-106204996D01*
X173570537Y-106199955D01*
X173572393Y-106194488D01*
X173572395Y-106194483D01*
X173636647Y-106005200D01*
X173638504Y-105999730D01*
X173639333Y-105994015D01*
X173660090Y-105850860D01*
X173689660Y-105786315D01*
X173749432Y-105748003D01*
X173820429Y-105748087D01*
X173880109Y-105786542D01*
X173909525Y-105851158D01*
X173910515Y-105860695D01*
X173913796Y-105910749D01*
X173915217Y-105916345D01*
X173915218Y-105916350D01*
X173955256Y-106073998D01*
X173965845Y-106115690D01*
X173968262Y-106120933D01*
X174028262Y-106251083D01*
X174054369Y-106307714D01*
X174176405Y-106480391D01*
X174327865Y-106627937D01*
X174332661Y-106631142D01*
X174332664Y-106631144D01*
X174435216Y-106699667D01*
X174503677Y-106745411D01*
X174508985Y-106747692D01*
X174508986Y-106747692D01*
X174692650Y-106826600D01*
X174692653Y-106826601D01*
X174697953Y-106828878D01*
X174703582Y-106830152D01*
X174703583Y-106830152D01*
X174898550Y-106874269D01*
X174898553Y-106874269D01*
X174904186Y-106875544D01*
X174909957Y-106875771D01*
X174909959Y-106875771D01*
X174971989Y-106878208D01*
X175115470Y-106883846D01*
X175121179Y-106883018D01*
X175121183Y-106883018D01*
X175319015Y-106854333D01*
X175319019Y-106854332D01*
X175324730Y-106853504D01*
X175403987Y-106826600D01*
X175519483Y-106787395D01*
X175519488Y-106787393D01*
X175524955Y-106785537D01*
X175529998Y-106782713D01*
X175704395Y-106685046D01*
X175704399Y-106685043D01*
X175709442Y-106682219D01*
X175872012Y-106547012D01*
X176007219Y-106384442D01*
X176010043Y-106379399D01*
X176010046Y-106379395D01*
X176107713Y-106204998D01*
X176107714Y-106204996D01*
X176110537Y-106199955D01*
X176112393Y-106194488D01*
X176112395Y-106194483D01*
X176176647Y-106005200D01*
X176178504Y-105999730D01*
X176179333Y-105994015D01*
X176200090Y-105850860D01*
X176229660Y-105786315D01*
X176289432Y-105748003D01*
X176360429Y-105748087D01*
X176420109Y-105786542D01*
X176449525Y-105851158D01*
X176450515Y-105860695D01*
X176453796Y-105910749D01*
X176455217Y-105916345D01*
X176455218Y-105916350D01*
X176495256Y-106073998D01*
X176505845Y-106115690D01*
X176508262Y-106120933D01*
X176568262Y-106251083D01*
X176594369Y-106307714D01*
X176716405Y-106480391D01*
X176867865Y-106627937D01*
X176872661Y-106631142D01*
X176872664Y-106631144D01*
X176975216Y-106699667D01*
X177043677Y-106745411D01*
X177048985Y-106747692D01*
X177048986Y-106747692D01*
X177232650Y-106826600D01*
X177232653Y-106826601D01*
X177237953Y-106828878D01*
X177243582Y-106830152D01*
X177243583Y-106830152D01*
X177438550Y-106874269D01*
X177438553Y-106874269D01*
X177444186Y-106875544D01*
X177449957Y-106875771D01*
X177449959Y-106875771D01*
X177511989Y-106878208D01*
X177655470Y-106883846D01*
X177661179Y-106883018D01*
X177661183Y-106883018D01*
X177859015Y-106854333D01*
X177859019Y-106854332D01*
X177864730Y-106853504D01*
X177943987Y-106826600D01*
X178059483Y-106787395D01*
X178059488Y-106787393D01*
X178064955Y-106785537D01*
X178069998Y-106782713D01*
X178244395Y-106685046D01*
X178244399Y-106685043D01*
X178249442Y-106682219D01*
X178412012Y-106547012D01*
X178547219Y-106384442D01*
X178550043Y-106379399D01*
X178550046Y-106379395D01*
X178647713Y-106204998D01*
X178647714Y-106204996D01*
X178650537Y-106199955D01*
X178652393Y-106194488D01*
X178652395Y-106194483D01*
X178716647Y-106005200D01*
X178718504Y-105999730D01*
X178719333Y-105994015D01*
X178740090Y-105850860D01*
X178769660Y-105786315D01*
X178829432Y-105748003D01*
X178900429Y-105748087D01*
X178960109Y-105786542D01*
X178989525Y-105851158D01*
X178990515Y-105860695D01*
X178993796Y-105910749D01*
X178995217Y-105916345D01*
X178995218Y-105916350D01*
X179035256Y-106073998D01*
X179045845Y-106115690D01*
X179048262Y-106120933D01*
X179108262Y-106251083D01*
X179134369Y-106307714D01*
X179256405Y-106480391D01*
X179407865Y-106627937D01*
X179412661Y-106631142D01*
X179412664Y-106631144D01*
X179515216Y-106699667D01*
X179583677Y-106745411D01*
X179588985Y-106747692D01*
X179588986Y-106747692D01*
X179772650Y-106826600D01*
X179772653Y-106826601D01*
X179777953Y-106828878D01*
X179783582Y-106830152D01*
X179783583Y-106830152D01*
X179978550Y-106874269D01*
X179978553Y-106874269D01*
X179984186Y-106875544D01*
X179989957Y-106875771D01*
X179989959Y-106875771D01*
X180051989Y-106878208D01*
X180195470Y-106883846D01*
X180201179Y-106883018D01*
X180201183Y-106883018D01*
X180399015Y-106854333D01*
X180399019Y-106854332D01*
X180404730Y-106853504D01*
X180483987Y-106826600D01*
X180599483Y-106787395D01*
X180599488Y-106787393D01*
X180604955Y-106785537D01*
X180609998Y-106782713D01*
X180784395Y-106685046D01*
X180784399Y-106685043D01*
X180789442Y-106682219D01*
X180952012Y-106547012D01*
X181087219Y-106384442D01*
X181183931Y-106211751D01*
X181234667Y-106162091D01*
X181304198Y-106147744D01*
X181370449Y-106173265D01*
X181410607Y-106225915D01*
X181456770Y-106339603D01*
X181461413Y-106348794D01*
X181572694Y-106530388D01*
X181578777Y-106538699D01*
X181718213Y-106699667D01*
X181725580Y-106706883D01*
X181889434Y-106842916D01*
X181897881Y-106848831D01*
X182081756Y-106956279D01*
X182091042Y-106960729D01*
X182290001Y-107036703D01*
X182299899Y-107039579D01*
X182403250Y-107060606D01*
X182417299Y-107059410D01*
X182421000Y-107049065D01*
X182421000Y-107048517D01*
X182929000Y-107048517D01*
X182933064Y-107062359D01*
X182946478Y-107064393D01*
X182953184Y-107063534D01*
X182963262Y-107061392D01*
X183167255Y-107000191D01*
X183176842Y-106996433D01*
X183368095Y-106902739D01*
X183376945Y-106897464D01*
X183550328Y-106773792D01*
X183558200Y-106767139D01*
X183709052Y-106616812D01*
X183715730Y-106608965D01*
X183840003Y-106436020D01*
X183845313Y-106427183D01*
X183939670Y-106236267D01*
X183943469Y-106226672D01*
X184005377Y-106022910D01*
X184007555Y-106012837D01*
X184008986Y-106001962D01*
X184006775Y-105987778D01*
X183993617Y-105984000D01*
X182947115Y-105984000D01*
X182931876Y-105988475D01*
X182930671Y-105989865D01*
X182929000Y-105997548D01*
X182929000Y-107048517D01*
X182421000Y-107048517D01*
X182421000Y-105457885D01*
X182929000Y-105457885D01*
X182933475Y-105473124D01*
X182934865Y-105474329D01*
X182942548Y-105476000D01*
X183993344Y-105476000D01*
X184006875Y-105472027D01*
X184008180Y-105462947D01*
X183966214Y-105295875D01*
X183962894Y-105286124D01*
X183877972Y-105090814D01*
X183873105Y-105081739D01*
X183757426Y-104902926D01*
X183751136Y-104894757D01*
X183607806Y-104737240D01*
X183600273Y-104730215D01*
X183433139Y-104598222D01*
X183424552Y-104592517D01*
X183387116Y-104571851D01*
X183337146Y-104521419D01*
X183322374Y-104451976D01*
X183347490Y-104385571D01*
X183374842Y-104358964D01*
X183550327Y-104233792D01*
X183558200Y-104227139D01*
X183709052Y-104076812D01*
X183715730Y-104068965D01*
X183840003Y-103896020D01*
X183845313Y-103887183D01*
X183939670Y-103696267D01*
X183943469Y-103686672D01*
X184005377Y-103482910D01*
X184007555Y-103472837D01*
X184008986Y-103461962D01*
X184006775Y-103447778D01*
X183993617Y-103444000D01*
X182947115Y-103444000D01*
X182931876Y-103448475D01*
X182930671Y-103449865D01*
X182929000Y-103457548D01*
X182929000Y-105457885D01*
X182421000Y-105457885D01*
X182421000Y-102917885D01*
X182929000Y-102917885D01*
X182933475Y-102933124D01*
X182934865Y-102934329D01*
X182942548Y-102936000D01*
X183993344Y-102936000D01*
X184006875Y-102932027D01*
X184008180Y-102922947D01*
X183966214Y-102755875D01*
X183962894Y-102746124D01*
X183877972Y-102550814D01*
X183873105Y-102541739D01*
X183757426Y-102362926D01*
X183751136Y-102354757D01*
X183607806Y-102197240D01*
X183600273Y-102190215D01*
X183433139Y-102058222D01*
X183424552Y-102052517D01*
X183238117Y-101949599D01*
X183228705Y-101945369D01*
X183027959Y-101874280D01*
X183017988Y-101871646D01*
X182946837Y-101858972D01*
X182933540Y-101860432D01*
X182929000Y-101874989D01*
X182929000Y-102917885D01*
X182421000Y-102917885D01*
X182421000Y-101873102D01*
X182417082Y-101859758D01*
X182402806Y-101857771D01*
X182364324Y-101863660D01*
X182354288Y-101866051D01*
X182151868Y-101932212D01*
X182142359Y-101936209D01*
X181953463Y-102034542D01*
X181944738Y-102040036D01*
X181774433Y-102167905D01*
X181766726Y-102174748D01*
X181619590Y-102328717D01*
X181613104Y-102336727D01*
X181493098Y-102512649D01*
X181488000Y-102521623D01*
X181405033Y-102700360D01*
X181358209Y-102753727D01*
X181289965Y-102773308D01*
X181221970Y-102752884D01*
X181177739Y-102703038D01*
X181122721Y-102591473D01*
X181122719Y-102591469D01*
X181120165Y-102586290D01*
X180993651Y-102416867D01*
X180893286Y-102324090D01*
X180842622Y-102277257D01*
X180842620Y-102277255D01*
X180838381Y-102273337D01*
X180706641Y-102190215D01*
X180664434Y-102163584D01*
X180664433Y-102163584D01*
X180659554Y-102160505D01*
X180463160Y-102082152D01*
X180457503Y-102081027D01*
X180457497Y-102081025D01*
X180261442Y-102042028D01*
X180261440Y-102042028D01*
X180255775Y-102040901D01*
X180250000Y-102040825D01*
X180249996Y-102040825D01*
X180141780Y-102039409D01*
X180044346Y-102038133D01*
X179988092Y-102047799D01*
X179917568Y-102039622D01*
X179877660Y-102012714D01*
X178252248Y-100387302D01*
X178244407Y-100378685D01*
X178240202Y-100372060D01*
X178189183Y-100324150D01*
X178186342Y-100321396D01*
X178166035Y-100301089D01*
X178162904Y-100298660D01*
X178162898Y-100298655D01*
X178162623Y-100298442D01*
X178153610Y-100290745D01*
X178120393Y-100259552D01*
X178111071Y-100254427D01*
X178101934Y-100249404D01*
X178085410Y-100238550D01*
X178075027Y-100230496D01*
X178075026Y-100230495D01*
X178068764Y-100225638D01*
X178026952Y-100207545D01*
X178016307Y-100202330D01*
X177976368Y-100180373D01*
X177968689Y-100178402D01*
X177968688Y-100178401D01*
X177955959Y-100175133D01*
X177937250Y-100168727D01*
X177925200Y-100163512D01*
X177925195Y-100163510D01*
X177917926Y-100160365D01*
X177872930Y-100153238D01*
X177861310Y-100150831D01*
X177824860Y-100141472D01*
X177824855Y-100141471D01*
X177817177Y-100139500D01*
X177796116Y-100139500D01*
X177776404Y-100137949D01*
X177775098Y-100137742D01*
X177755595Y-100134653D01*
X177747704Y-100135399D01*
X177710235Y-100138941D01*
X177698377Y-100139500D01*
X175611636Y-100139500D01*
X175543515Y-100119498D01*
X175522541Y-100102595D01*
X170227405Y-94807459D01*
X170193379Y-94745147D01*
X170190500Y-94718364D01*
X170190500Y-90566500D01*
X170210502Y-90498379D01*
X170264158Y-90451886D01*
X170316500Y-90440500D01*
X173349000Y-90440500D01*
X173360640Y-90441049D01*
X173368296Y-90442760D01*
X173376219Y-90442511D01*
X173438230Y-90440562D01*
X173442188Y-90440500D01*
X173470925Y-90440500D01*
X173475196Y-90439961D01*
X173487024Y-90439029D01*
X173532569Y-90437597D01*
X173540183Y-90435385D01*
X173540188Y-90435384D01*
X173552792Y-90431722D01*
X173572156Y-90427711D01*
X173593058Y-90425071D01*
X173600429Y-90422152D01*
X173600431Y-90422152D01*
X173635420Y-90408298D01*
X173646631Y-90404459D01*
X173690398Y-90391744D01*
X173708536Y-90381018D01*
X173726281Y-90372324D01*
X173745871Y-90364568D01*
X173782738Y-90337782D01*
X173792646Y-90331275D01*
X173825042Y-90312117D01*
X173825047Y-90312113D01*
X173831865Y-90308081D01*
X173846758Y-90293188D01*
X173861792Y-90280347D01*
X173872423Y-90272623D01*
X173878837Y-90267963D01*
X173907880Y-90232856D01*
X173915869Y-90224077D01*
X184208910Y-79931036D01*
X184271222Y-79897010D01*
X184323122Y-79896660D01*
X184513607Y-79935414D01*
X184643352Y-79940172D01*
X184738585Y-79943664D01*
X184738589Y-79943664D01*
X184743749Y-79943853D01*
X184748869Y-79943197D01*
X184748871Y-79943197D01*
X184823202Y-79933675D01*
X184972178Y-79914591D01*
X184977126Y-79913106D01*
X184977133Y-79913105D01*
X185187811Y-79849898D01*
X185187810Y-79849898D01*
X185192761Y-79848413D01*
X185198932Y-79845390D01*
X186279440Y-79845390D01*
X186285167Y-79853040D01*
X186483506Y-79974583D01*
X186492300Y-79979064D01*
X186716991Y-80072134D01*
X186726376Y-80075183D01*
X186962863Y-80131959D01*
X186972610Y-80133502D01*
X187215070Y-80152584D01*
X187224930Y-80152584D01*
X187467390Y-80133502D01*
X187477137Y-80131959D01*
X187713624Y-80075183D01*
X187723009Y-80072134D01*
X187947700Y-79979064D01*
X187956494Y-79974583D01*
X188151167Y-79855287D01*
X188160627Y-79844830D01*
X188156844Y-79836054D01*
X187232812Y-78912022D01*
X187218868Y-78904408D01*
X187217035Y-78904539D01*
X187210420Y-78908790D01*
X186286200Y-79833010D01*
X186279440Y-79845390D01*
X185198932Y-79845390D01*
X185399574Y-79747096D01*
X185587062Y-79613363D01*
X185590719Y-79609719D01*
X185590725Y-79609714D01*
X185728261Y-79472656D01*
X185790632Y-79438739D01*
X185861439Y-79443927D01*
X185901734Y-79468471D01*
X185915170Y-79480627D01*
X185923946Y-79476844D01*
X186847978Y-78552812D01*
X186855592Y-78538868D01*
X186855461Y-78537035D01*
X186851210Y-78530420D01*
X185926990Y-77606200D01*
X185914611Y-77599440D01*
X185889175Y-77618481D01*
X185822654Y-77643291D01*
X185753280Y-77628199D01*
X185720473Y-77602412D01*
X185641890Y-77516051D01*
X185641889Y-77516050D01*
X185638412Y-77512229D01*
X185634361Y-77509030D01*
X185634357Y-77509026D01*
X185461735Y-77372697D01*
X185461730Y-77372693D01*
X185457681Y-77369496D01*
X185453165Y-77367003D01*
X185453162Y-77367001D01*
X185260589Y-77260695D01*
X185260585Y-77260693D01*
X185256065Y-77258198D01*
X185251196Y-77256474D01*
X185251192Y-77256472D01*
X185191037Y-77235170D01*
X186279373Y-77235170D01*
X186283156Y-77243946D01*
X187207188Y-78167978D01*
X187221132Y-78175592D01*
X187222965Y-78175461D01*
X187229580Y-78171210D01*
X188153800Y-77246990D01*
X188160560Y-77234610D01*
X188154833Y-77226960D01*
X187956494Y-77105417D01*
X187947700Y-77100936D01*
X187723009Y-77007866D01*
X187713624Y-77004817D01*
X187477137Y-76948041D01*
X187467390Y-76946498D01*
X187224930Y-76927416D01*
X187215070Y-76927416D01*
X186972610Y-76946498D01*
X186962863Y-76948041D01*
X186726376Y-77004817D01*
X186716991Y-77007866D01*
X186492300Y-77100936D01*
X186483506Y-77105417D01*
X186288833Y-77224713D01*
X186279373Y-77235170D01*
X185191037Y-77235170D01*
X185043853Y-77183049D01*
X185043849Y-77183048D01*
X185038978Y-77181323D01*
X185033885Y-77180416D01*
X185033882Y-77180415D01*
X184937707Y-77163284D01*
X184812250Y-77140937D01*
X184725802Y-77139881D01*
X184587141Y-77138186D01*
X184587139Y-77138186D01*
X184581971Y-77138123D01*
X184354325Y-77172958D01*
X184135424Y-77244506D01*
X184130832Y-77246896D01*
X184130833Y-77246896D01*
X183973265Y-77328921D01*
X183931149Y-77350845D01*
X183746984Y-77489119D01*
X183587877Y-77655616D01*
X183515179Y-77762187D01*
X183514131Y-77763724D01*
X183459220Y-77808726D01*
X183388695Y-77816897D01*
X183324948Y-77785643D01*
X183304251Y-77761159D01*
X183256215Y-77686906D01*
X183256213Y-77686903D01*
X183253405Y-77682563D01*
X183249746Y-77678541D01*
X183101890Y-77516051D01*
X183101889Y-77516050D01*
X183098412Y-77512229D01*
X183094361Y-77509030D01*
X183094357Y-77509026D01*
X182921735Y-77372697D01*
X182921730Y-77372693D01*
X182917681Y-77369496D01*
X182913165Y-77367003D01*
X182913162Y-77367001D01*
X182720589Y-77260695D01*
X182720585Y-77260693D01*
X182716065Y-77258198D01*
X182711196Y-77256474D01*
X182711192Y-77256472D01*
X182503853Y-77183049D01*
X182503849Y-77183048D01*
X182498978Y-77181323D01*
X182493885Y-77180416D01*
X182493882Y-77180415D01*
X182397707Y-77163284D01*
X182272250Y-77140937D01*
X182185802Y-77139881D01*
X182047141Y-77138186D01*
X182047139Y-77138186D01*
X182041971Y-77138123D01*
X181814325Y-77172958D01*
X181595424Y-77244506D01*
X181590832Y-77246896D01*
X181590833Y-77246896D01*
X181433265Y-77328921D01*
X181391149Y-77350845D01*
X181206984Y-77489119D01*
X181047877Y-77655616D01*
X180975179Y-77762187D01*
X180974131Y-77763724D01*
X180919220Y-77808726D01*
X180848695Y-77816897D01*
X180784948Y-77785643D01*
X180764251Y-77761159D01*
X180716215Y-77686906D01*
X180716213Y-77686903D01*
X180713405Y-77682563D01*
X180709746Y-77678541D01*
X180561890Y-77516051D01*
X180561889Y-77516050D01*
X180558412Y-77512229D01*
X180554361Y-77509030D01*
X180554357Y-77509026D01*
X180381735Y-77372697D01*
X180381730Y-77372693D01*
X180377681Y-77369496D01*
X180373165Y-77367003D01*
X180373162Y-77367001D01*
X180180589Y-77260695D01*
X180180585Y-77260693D01*
X180176065Y-77258198D01*
X180171196Y-77256474D01*
X180171192Y-77256472D01*
X179963853Y-77183049D01*
X179963849Y-77183048D01*
X179958978Y-77181323D01*
X179953885Y-77180416D01*
X179953882Y-77180415D01*
X179857707Y-77163284D01*
X179732250Y-77140937D01*
X179645802Y-77139881D01*
X179507141Y-77138186D01*
X179507139Y-77138186D01*
X179501971Y-77138123D01*
X179274325Y-77172958D01*
X179055424Y-77244506D01*
X179050832Y-77246896D01*
X179050833Y-77246896D01*
X178893265Y-77328921D01*
X178851149Y-77350845D01*
X178666984Y-77489119D01*
X178507877Y-77655616D01*
X178435179Y-77762187D01*
X178434131Y-77763724D01*
X178379220Y-77808726D01*
X178308695Y-77816897D01*
X178244948Y-77785643D01*
X178224251Y-77761159D01*
X178176215Y-77686906D01*
X178176213Y-77686903D01*
X178173405Y-77682563D01*
X178169746Y-77678541D01*
X178021890Y-77516051D01*
X178021889Y-77516050D01*
X178018412Y-77512229D01*
X178014361Y-77509030D01*
X178014357Y-77509026D01*
X177841735Y-77372697D01*
X177841730Y-77372693D01*
X177837681Y-77369496D01*
X177833165Y-77367003D01*
X177833162Y-77367001D01*
X177640589Y-77260695D01*
X177640585Y-77260693D01*
X177636065Y-77258198D01*
X177631196Y-77256474D01*
X177631192Y-77256472D01*
X177423853Y-77183049D01*
X177423849Y-77183048D01*
X177418978Y-77181323D01*
X177413885Y-77180416D01*
X177413882Y-77180415D01*
X177317707Y-77163284D01*
X177192250Y-77140937D01*
X177105802Y-77139881D01*
X176967141Y-77138186D01*
X176967139Y-77138186D01*
X176961971Y-77138123D01*
X176734325Y-77172958D01*
X176515424Y-77244506D01*
X176510832Y-77246896D01*
X176510833Y-77246896D01*
X176353265Y-77328921D01*
X176311149Y-77350845D01*
X176126984Y-77489119D01*
X175967877Y-77655616D01*
X175895179Y-77762187D01*
X175894131Y-77763724D01*
X175839220Y-77808726D01*
X175768695Y-77816897D01*
X175704948Y-77785643D01*
X175684251Y-77761159D01*
X175636215Y-77686906D01*
X175636213Y-77686903D01*
X175633405Y-77682563D01*
X175629746Y-77678541D01*
X175481890Y-77516051D01*
X175481889Y-77516050D01*
X175478412Y-77512229D01*
X175474361Y-77509030D01*
X175474357Y-77509026D01*
X175301735Y-77372697D01*
X175301730Y-77372693D01*
X175297681Y-77369496D01*
X175293165Y-77367003D01*
X175293162Y-77367001D01*
X175100589Y-77260695D01*
X175100585Y-77260693D01*
X175096065Y-77258198D01*
X175091196Y-77256474D01*
X175091192Y-77256472D01*
X174883853Y-77183049D01*
X174883849Y-77183048D01*
X174878978Y-77181323D01*
X174873885Y-77180416D01*
X174873882Y-77180415D01*
X174777707Y-77163284D01*
X174652250Y-77140937D01*
X174565802Y-77139881D01*
X174427141Y-77138186D01*
X174427139Y-77138186D01*
X174421971Y-77138123D01*
X174194325Y-77172958D01*
X173975424Y-77244506D01*
X173970832Y-77246896D01*
X173970833Y-77246896D01*
X173813265Y-77328921D01*
X173771149Y-77350845D01*
X173586984Y-77489119D01*
X173427877Y-77655616D01*
X173355179Y-77762187D01*
X173354131Y-77763724D01*
X173299220Y-77808726D01*
X173228695Y-77816897D01*
X173164948Y-77785643D01*
X173144251Y-77761159D01*
X173096215Y-77686906D01*
X173096213Y-77686903D01*
X173093405Y-77682563D01*
X173089746Y-77678541D01*
X172941890Y-77516051D01*
X172941889Y-77516050D01*
X172938412Y-77512229D01*
X172934361Y-77509030D01*
X172934357Y-77509026D01*
X172761735Y-77372697D01*
X172761730Y-77372693D01*
X172757681Y-77369496D01*
X172753165Y-77367003D01*
X172753162Y-77367001D01*
X172560589Y-77260695D01*
X172560585Y-77260693D01*
X172556065Y-77258198D01*
X172551196Y-77256474D01*
X172551192Y-77256472D01*
X172343853Y-77183049D01*
X172343849Y-77183048D01*
X172338978Y-77181323D01*
X172333885Y-77180416D01*
X172333882Y-77180415D01*
X172237707Y-77163284D01*
X172112250Y-77140937D01*
X172025802Y-77139881D01*
X171887141Y-77138186D01*
X171887139Y-77138186D01*
X171881971Y-77138123D01*
X171654325Y-77172958D01*
X171435424Y-77244506D01*
X171430832Y-77246896D01*
X171430833Y-77246896D01*
X171273265Y-77328921D01*
X171231149Y-77350845D01*
X171046984Y-77489119D01*
X170887877Y-77655616D01*
X170815179Y-77762187D01*
X170814131Y-77763724D01*
X170759220Y-77808726D01*
X170688695Y-77816897D01*
X170624948Y-77785643D01*
X170604251Y-77761159D01*
X170556215Y-77686906D01*
X170556213Y-77686903D01*
X170553405Y-77682563D01*
X170549746Y-77678541D01*
X170401890Y-77516051D01*
X170401889Y-77516050D01*
X170398412Y-77512229D01*
X170394361Y-77509030D01*
X170394357Y-77509026D01*
X170221735Y-77372697D01*
X170221730Y-77372693D01*
X170217681Y-77369496D01*
X170213165Y-77367003D01*
X170213162Y-77367001D01*
X170020589Y-77260695D01*
X170020585Y-77260693D01*
X170016065Y-77258198D01*
X170011196Y-77256474D01*
X170011192Y-77256472D01*
X169803853Y-77183049D01*
X169803849Y-77183048D01*
X169798978Y-77181323D01*
X169793885Y-77180416D01*
X169793882Y-77180415D01*
X169697707Y-77163284D01*
X169572250Y-77140937D01*
X169485802Y-77139881D01*
X169347141Y-77138186D01*
X169347139Y-77138186D01*
X169341971Y-77138123D01*
X169114325Y-77172958D01*
X168895424Y-77244506D01*
X168890832Y-77246896D01*
X168890833Y-77246896D01*
X168733265Y-77328921D01*
X168691149Y-77350845D01*
X168506984Y-77489119D01*
X168347877Y-77655616D01*
X168275179Y-77762187D01*
X168274131Y-77763724D01*
X168219220Y-77808726D01*
X168148695Y-77816897D01*
X168084948Y-77785643D01*
X168064251Y-77761159D01*
X168016215Y-77686906D01*
X168016213Y-77686903D01*
X168013405Y-77682563D01*
X168009746Y-77678541D01*
X167861890Y-77516051D01*
X167861889Y-77516050D01*
X167858412Y-77512229D01*
X167854361Y-77509030D01*
X167854357Y-77509026D01*
X167681735Y-77372697D01*
X167681730Y-77372693D01*
X167677681Y-77369496D01*
X167673165Y-77367003D01*
X167673162Y-77367001D01*
X167480589Y-77260695D01*
X167480585Y-77260693D01*
X167476065Y-77258198D01*
X167471196Y-77256474D01*
X167471192Y-77256472D01*
X167263853Y-77183049D01*
X167263849Y-77183048D01*
X167258978Y-77181323D01*
X167253885Y-77180416D01*
X167253882Y-77180415D01*
X167157707Y-77163284D01*
X167032250Y-77140937D01*
X166945802Y-77139881D01*
X166807141Y-77138186D01*
X166807139Y-77138186D01*
X166801971Y-77138123D01*
X166574325Y-77172958D01*
X166355424Y-77244506D01*
X166350832Y-77246896D01*
X166350833Y-77246896D01*
X166193265Y-77328921D01*
X166151149Y-77350845D01*
X165966984Y-77489119D01*
X165966599Y-77488606D01*
X165905795Y-77517273D01*
X165835403Y-77508025D01*
X165781186Y-77462187D01*
X165760569Y-77400247D01*
X165760500Y-77399083D01*
X165760500Y-77395354D01*
X165760060Y-77391653D01*
X165760059Y-77391644D01*
X165758499Y-77378541D01*
X165757382Y-77369154D01*
X165749250Y-77350845D01*
X165716663Y-77277482D01*
X165711939Y-77266847D01*
X165692048Y-77246990D01*
X165640945Y-77195977D01*
X165632713Y-77187759D01*
X165622076Y-77183056D01*
X165622074Y-77183055D01*
X165562538Y-77156735D01*
X165530327Y-77142494D01*
X165504646Y-77139500D01*
X163215354Y-77139500D01*
X163211650Y-77139941D01*
X163211647Y-77139941D01*
X163204254Y-77140821D01*
X163189154Y-77142618D01*
X163180514Y-77146456D01*
X163180513Y-77146456D01*
X163098117Y-77183055D01*
X163086847Y-77188061D01*
X163007759Y-77267287D01*
X163003056Y-77277924D01*
X163003055Y-77277926D01*
X162981740Y-77326140D01*
X162935902Y-77380356D01*
X162868029Y-77401183D01*
X162799670Y-77382009D01*
X162752530Y-77328921D01*
X162740500Y-77275192D01*
X162740500Y-76117114D01*
X162741373Y-76102305D01*
X162744257Y-76077937D01*
X162745364Y-76068584D01*
X162734828Y-76010893D01*
X162734178Y-76006990D01*
X162726850Y-75958249D01*
X162726850Y-75958248D01*
X162725449Y-75948932D01*
X162722321Y-75942419D01*
X162721025Y-75935321D01*
X162693975Y-75883247D01*
X162692225Y-75879744D01*
X162688559Y-75872110D01*
X162666809Y-75826815D01*
X162661923Y-75821529D01*
X162661890Y-75821481D01*
X162658579Y-75815106D01*
X162654275Y-75810066D01*
X162617048Y-75772839D01*
X162613618Y-75769273D01*
X162581246Y-75734253D01*
X162574854Y-75727338D01*
X162568495Y-75723645D01*
X162562337Y-75718128D01*
X159589859Y-72745650D01*
X159580005Y-72734561D01*
X159564813Y-72715291D01*
X159564811Y-72715289D01*
X159558978Y-72707890D01*
X159551231Y-72702535D01*
X159551229Y-72702534D01*
X159547207Y-72699754D01*
X173759967Y-72699754D01*
X173773796Y-72910749D01*
X173775217Y-72916345D01*
X173775218Y-72916350D01*
X173816832Y-73080201D01*
X173825845Y-73115690D01*
X173828262Y-73120933D01*
X173857841Y-73185095D01*
X173914369Y-73307714D01*
X174036405Y-73480391D01*
X174187865Y-73627937D01*
X174192661Y-73631142D01*
X174192664Y-73631144D01*
X174294083Y-73698910D01*
X174363677Y-73745411D01*
X174368985Y-73747692D01*
X174368986Y-73747692D01*
X174552650Y-73826600D01*
X174552653Y-73826601D01*
X174557953Y-73828878D01*
X174563582Y-73830152D01*
X174563583Y-73830152D01*
X174758550Y-73874269D01*
X174758553Y-73874269D01*
X174764186Y-73875544D01*
X174769957Y-73875771D01*
X174769959Y-73875771D01*
X174831989Y-73878208D01*
X174975470Y-73883846D01*
X174981179Y-73883018D01*
X174981183Y-73883018D01*
X175179015Y-73854333D01*
X175179019Y-73854332D01*
X175184730Y-73853504D01*
X175275500Y-73822692D01*
X175379483Y-73787395D01*
X175379488Y-73787393D01*
X175384955Y-73785537D01*
X175389998Y-73782713D01*
X175564395Y-73685046D01*
X175564399Y-73685043D01*
X175569442Y-73682219D01*
X175732012Y-73547012D01*
X175867219Y-73384442D01*
X175870043Y-73379399D01*
X175870046Y-73379395D01*
X175967713Y-73204998D01*
X175967714Y-73204996D01*
X175970537Y-73199955D01*
X175972393Y-73194488D01*
X175972395Y-73194483D01*
X176036647Y-73005200D01*
X176038504Y-72999730D01*
X176039719Y-72991350D01*
X176060090Y-72850860D01*
X176089660Y-72786315D01*
X176149432Y-72748003D01*
X176220429Y-72748087D01*
X176280109Y-72786542D01*
X176309525Y-72851158D01*
X176310515Y-72860695D01*
X176313796Y-72910749D01*
X176315217Y-72916345D01*
X176315218Y-72916350D01*
X176356832Y-73080201D01*
X176365845Y-73115690D01*
X176368262Y-73120933D01*
X176397841Y-73185095D01*
X176454369Y-73307714D01*
X176576405Y-73480391D01*
X176727865Y-73627937D01*
X176732661Y-73631142D01*
X176732664Y-73631144D01*
X176834083Y-73698910D01*
X176903677Y-73745411D01*
X176908985Y-73747692D01*
X176908986Y-73747692D01*
X177092650Y-73826600D01*
X177092653Y-73826601D01*
X177097953Y-73828878D01*
X177103582Y-73830152D01*
X177103583Y-73830152D01*
X177298550Y-73874269D01*
X177298553Y-73874269D01*
X177304186Y-73875544D01*
X177309957Y-73875771D01*
X177309959Y-73875771D01*
X177371989Y-73878208D01*
X177515470Y-73883846D01*
X177521179Y-73883018D01*
X177521183Y-73883018D01*
X177719015Y-73854333D01*
X177719019Y-73854332D01*
X177724730Y-73853504D01*
X177815500Y-73822692D01*
X177919483Y-73787395D01*
X177919488Y-73787393D01*
X177924955Y-73785537D01*
X177929998Y-73782713D01*
X178104395Y-73685046D01*
X178104399Y-73685043D01*
X178109442Y-73682219D01*
X178272012Y-73547012D01*
X178407219Y-73384442D01*
X178410043Y-73379399D01*
X178410046Y-73379395D01*
X178507713Y-73204998D01*
X178507714Y-73204996D01*
X178510537Y-73199955D01*
X178512393Y-73194488D01*
X178512395Y-73194483D01*
X178576647Y-73005200D01*
X178578504Y-72999730D01*
X178579719Y-72991350D01*
X178600090Y-72850860D01*
X178629660Y-72786315D01*
X178689432Y-72748003D01*
X178760429Y-72748087D01*
X178820109Y-72786542D01*
X178849525Y-72851158D01*
X178850515Y-72860695D01*
X178853796Y-72910749D01*
X178855217Y-72916345D01*
X178855218Y-72916350D01*
X178896832Y-73080201D01*
X178905845Y-73115690D01*
X178908262Y-73120933D01*
X178937841Y-73185095D01*
X178994369Y-73307714D01*
X179116405Y-73480391D01*
X179267865Y-73627937D01*
X179272661Y-73631142D01*
X179272664Y-73631144D01*
X179374083Y-73698910D01*
X179443677Y-73745411D01*
X179448985Y-73747692D01*
X179448986Y-73747692D01*
X179632650Y-73826600D01*
X179632653Y-73826601D01*
X179637953Y-73828878D01*
X179643582Y-73830152D01*
X179643583Y-73830152D01*
X179838550Y-73874269D01*
X179838553Y-73874269D01*
X179844186Y-73875544D01*
X179849957Y-73875771D01*
X179849959Y-73875771D01*
X179911989Y-73878208D01*
X180055470Y-73883846D01*
X180061179Y-73883018D01*
X180061183Y-73883018D01*
X180259015Y-73854333D01*
X180259019Y-73854332D01*
X180264730Y-73853504D01*
X180355500Y-73822692D01*
X180459483Y-73787395D01*
X180459488Y-73787393D01*
X180464955Y-73785537D01*
X180469998Y-73782713D01*
X180644395Y-73685046D01*
X180644399Y-73685043D01*
X180649442Y-73682219D01*
X180812012Y-73547012D01*
X180947219Y-73384442D01*
X180950043Y-73379399D01*
X180950046Y-73379395D01*
X181047713Y-73204998D01*
X181047714Y-73204996D01*
X181050537Y-73199955D01*
X181052393Y-73194488D01*
X181052395Y-73194483D01*
X181116647Y-73005200D01*
X181118504Y-72999730D01*
X181120532Y-72985749D01*
X181148314Y-72794140D01*
X181148314Y-72794138D01*
X181148846Y-72790470D01*
X181150429Y-72730000D01*
X181131081Y-72519440D01*
X181073686Y-72315931D01*
X181062553Y-72293354D01*
X180982719Y-72131469D01*
X180980165Y-72126290D01*
X180853651Y-71956867D01*
X180698381Y-71813337D01*
X180635031Y-71773366D01*
X180524434Y-71703584D01*
X180524433Y-71703584D01*
X180519554Y-71700505D01*
X180323160Y-71622152D01*
X180317503Y-71621027D01*
X180317497Y-71621025D01*
X180120234Y-71581788D01*
X180057324Y-71548881D01*
X180022192Y-71487186D01*
X180025992Y-71416291D01*
X180067517Y-71358705D01*
X180126734Y-71333513D01*
X180259015Y-71314333D01*
X180259019Y-71314332D01*
X180264730Y-71313504D01*
X180351579Y-71284023D01*
X180459483Y-71247395D01*
X180459488Y-71247393D01*
X180464955Y-71245537D01*
X180474571Y-71240152D01*
X180644395Y-71145046D01*
X180644399Y-71145043D01*
X180649442Y-71142219D01*
X180812012Y-71007012D01*
X180947219Y-70844442D01*
X180950043Y-70839399D01*
X180950046Y-70839395D01*
X181047713Y-70664998D01*
X181047714Y-70664996D01*
X181050537Y-70659955D01*
X181052393Y-70654488D01*
X181052395Y-70654483D01*
X181116647Y-70465200D01*
X181118504Y-70459730D01*
X181120532Y-70445749D01*
X181148314Y-70254140D01*
X181148314Y-70254138D01*
X181148846Y-70250470D01*
X181150429Y-70190000D01*
X181131081Y-69979440D01*
X181073686Y-69775931D01*
X181062553Y-69753354D01*
X180982719Y-69591469D01*
X180980165Y-69586290D01*
X180871831Y-69441213D01*
X180857104Y-69421491D01*
X180857103Y-69421490D01*
X180853651Y-69416867D01*
X180726236Y-69299086D01*
X180702622Y-69277257D01*
X180702620Y-69277255D01*
X180698381Y-69273337D01*
X180691751Y-69269154D01*
X180524434Y-69163584D01*
X180524433Y-69163584D01*
X180519554Y-69160505D01*
X180323160Y-69082152D01*
X180317503Y-69081027D01*
X180317497Y-69081025D01*
X180121442Y-69042028D01*
X180121440Y-69042028D01*
X180115775Y-69040901D01*
X180110000Y-69040825D01*
X180109996Y-69040825D01*
X180003976Y-69039437D01*
X179904346Y-69038133D01*
X179898649Y-69039112D01*
X179898648Y-69039112D01*
X179701650Y-69072962D01*
X179701649Y-69072962D01*
X179695953Y-69073941D01*
X179497575Y-69147127D01*
X179492614Y-69150079D01*
X179492613Y-69150079D01*
X179343967Y-69238514D01*
X179315856Y-69255238D01*
X179156881Y-69394655D01*
X179025976Y-69560708D01*
X179023287Y-69565819D01*
X179023285Y-69565822D01*
X178983826Y-69640822D01*
X178927523Y-69747836D01*
X178864820Y-69949773D01*
X178864141Y-69955510D01*
X178850088Y-70074239D01*
X178822217Y-70139537D01*
X178763469Y-70179401D01*
X178692494Y-70181174D01*
X178631828Y-70144295D01*
X178600730Y-70080471D01*
X178599490Y-70070958D01*
X178598502Y-70060197D01*
X178591081Y-69979440D01*
X178533686Y-69775931D01*
X178522553Y-69753354D01*
X178442719Y-69591469D01*
X178440165Y-69586290D01*
X178331831Y-69441213D01*
X178317104Y-69421491D01*
X178317103Y-69421490D01*
X178313651Y-69416867D01*
X178186236Y-69299086D01*
X178162622Y-69277257D01*
X178162620Y-69277255D01*
X178158381Y-69273337D01*
X178151751Y-69269154D01*
X177984434Y-69163584D01*
X177984433Y-69163584D01*
X177979554Y-69160505D01*
X177783160Y-69082152D01*
X177777503Y-69081027D01*
X177777497Y-69081025D01*
X177581442Y-69042028D01*
X177581440Y-69042028D01*
X177575775Y-69040901D01*
X177570000Y-69040825D01*
X177569996Y-69040825D01*
X177463976Y-69039437D01*
X177364346Y-69038133D01*
X177358649Y-69039112D01*
X177358648Y-69039112D01*
X177161650Y-69072962D01*
X177161649Y-69072962D01*
X177155953Y-69073941D01*
X176957575Y-69147127D01*
X176952614Y-69150079D01*
X176952613Y-69150079D01*
X176803967Y-69238514D01*
X176775856Y-69255238D01*
X176616881Y-69394655D01*
X176485976Y-69560708D01*
X176483287Y-69565819D01*
X176483285Y-69565822D01*
X176443826Y-69640822D01*
X176387523Y-69747836D01*
X176324820Y-69949773D01*
X176324141Y-69955510D01*
X176316627Y-70018995D01*
X176288756Y-70084292D01*
X176230008Y-70124156D01*
X176159034Y-70125930D01*
X176098367Y-70089051D01*
X176067269Y-70025227D01*
X176065500Y-70004185D01*
X176065500Y-69295354D01*
X176062382Y-69269154D01*
X176048804Y-69238584D01*
X176021663Y-69177482D01*
X176016939Y-69166847D01*
X176008444Y-69158366D01*
X175965828Y-69115825D01*
X175937713Y-69087759D01*
X175927076Y-69083056D01*
X175927074Y-69083055D01*
X175856707Y-69051946D01*
X175835327Y-69042494D01*
X175809646Y-69039500D01*
X174020354Y-69039500D01*
X174016650Y-69039941D01*
X174016647Y-69039941D01*
X174009254Y-69040821D01*
X173994154Y-69042618D01*
X173985514Y-69046456D01*
X173985513Y-69046456D01*
X173919131Y-69075942D01*
X173891847Y-69088061D01*
X173883628Y-69096294D01*
X173883627Y-69096295D01*
X173862930Y-69117028D01*
X173812759Y-69167287D01*
X173808056Y-69177924D01*
X173808055Y-69177926D01*
X173795981Y-69205238D01*
X173767494Y-69269673D01*
X173764500Y-69295354D01*
X173764500Y-71084646D01*
X173767618Y-71110846D01*
X173771456Y-71119486D01*
X173771456Y-71119487D01*
X173808337Y-71202518D01*
X173813061Y-71213153D01*
X173821294Y-71221372D01*
X173821295Y-71221373D01*
X173847363Y-71247395D01*
X173892287Y-71292241D01*
X173902924Y-71296944D01*
X173902926Y-71296945D01*
X173940382Y-71313504D01*
X173994673Y-71337506D01*
X174020354Y-71340500D01*
X174729988Y-71340500D01*
X174798109Y-71360502D01*
X174844602Y-71414158D01*
X174854706Y-71484432D01*
X174825212Y-71549012D01*
X174765486Y-71587396D01*
X174751326Y-71590680D01*
X174621650Y-71612962D01*
X174621649Y-71612962D01*
X174615953Y-71613941D01*
X174417575Y-71687127D01*
X174412614Y-71690079D01*
X174412613Y-71690079D01*
X174272620Y-71773366D01*
X174235856Y-71795238D01*
X174076881Y-71934655D01*
X173945976Y-72100708D01*
X173943287Y-72105819D01*
X173943285Y-72105822D01*
X173903826Y-72180822D01*
X173847523Y-72287836D01*
X173784820Y-72489773D01*
X173759967Y-72699754D01*
X159547207Y-72699754D01*
X159514981Y-72677482D01*
X159510721Y-72674538D01*
X159507509Y-72672243D01*
X159501891Y-72668093D01*
X159460290Y-72637366D01*
X159453474Y-72634973D01*
X159447537Y-72630869D01*
X159438557Y-72628029D01*
X159438555Y-72628028D01*
X159414659Y-72620471D01*
X159391587Y-72613174D01*
X159387856Y-72611929D01*
X159341369Y-72595604D01*
X159341367Y-72595604D01*
X159332475Y-72592481D01*
X159325287Y-72592199D01*
X159325228Y-72592188D01*
X159318376Y-72590020D01*
X159311769Y-72589500D01*
X159259090Y-72589500D01*
X159254143Y-72589403D01*
X159197112Y-72587162D01*
X159190006Y-72589046D01*
X159181759Y-72589500D01*
X153617113Y-72589500D01*
X153602304Y-72588627D01*
X153593052Y-72587532D01*
X153568583Y-72584636D01*
X153559320Y-72586328D01*
X153559313Y-72586328D01*
X153510876Y-72595175D01*
X153506977Y-72595825D01*
X153484247Y-72599242D01*
X153458250Y-72603150D01*
X153458249Y-72603150D01*
X153448932Y-72604551D01*
X153442419Y-72607679D01*
X153435321Y-72608975D01*
X153383241Y-72636028D01*
X153379739Y-72637777D01*
X153335307Y-72659113D01*
X153326815Y-72663191D01*
X153321530Y-72668077D01*
X153321483Y-72668108D01*
X153315105Y-72671421D01*
X153310066Y-72675725D01*
X153272839Y-72712952D01*
X153269274Y-72716381D01*
X153227338Y-72755146D01*
X153223645Y-72761505D01*
X153218128Y-72767663D01*
X151933196Y-74052595D01*
X151870884Y-74086621D01*
X151844101Y-74089500D01*
X150268969Y-74089500D01*
X150200848Y-74069498D01*
X150154355Y-74015842D01*
X150144251Y-73945568D01*
X150173745Y-73880988D01*
X150207401Y-73853567D01*
X150379442Y-73757219D01*
X150542012Y-73622012D01*
X150677219Y-73459442D01*
X150680043Y-73454399D01*
X150680046Y-73454395D01*
X150777713Y-73279998D01*
X150777714Y-73279996D01*
X150780537Y-73274955D01*
X150782393Y-73269488D01*
X150782395Y-73269483D01*
X150846647Y-73080200D01*
X150848504Y-73074730D01*
X150860208Y-72994015D01*
X150878314Y-72869140D01*
X150878314Y-72869138D01*
X150878846Y-72865470D01*
X150880429Y-72805000D01*
X150861081Y-72594440D01*
X150859029Y-72587162D01*
X150830006Y-72484256D01*
X150803686Y-72390931D01*
X150792553Y-72368354D01*
X150712719Y-72206469D01*
X150710165Y-72201290D01*
X150601299Y-72055500D01*
X150587104Y-72036491D01*
X150587103Y-72036490D01*
X150583651Y-72031867D01*
X150428381Y-71888337D01*
X150405734Y-71874048D01*
X150254434Y-71778584D01*
X150254433Y-71778584D01*
X150249554Y-71775505D01*
X150225643Y-71765966D01*
X150169785Y-71722147D01*
X150146483Y-71655083D01*
X150163138Y-71586068D01*
X150214461Y-71537013D01*
X150226348Y-71531627D01*
X150226842Y-71531433D01*
X150418095Y-71437739D01*
X150426945Y-71432464D01*
X150600328Y-71308792D01*
X150608200Y-71302139D01*
X150759052Y-71151812D01*
X150765730Y-71143965D01*
X150844267Y-71034669D01*
X153332001Y-71034669D01*
X153332371Y-71041490D01*
X153337895Y-71092352D01*
X153341521Y-71107604D01*
X153386676Y-71228054D01*
X153395214Y-71243649D01*
X153471715Y-71345724D01*
X153484276Y-71358285D01*
X153586351Y-71434786D01*
X153601946Y-71443324D01*
X153722394Y-71488478D01*
X153737649Y-71492105D01*
X153788514Y-71497631D01*
X153795328Y-71498000D01*
X154417885Y-71498000D01*
X154433124Y-71493525D01*
X154434329Y-71492135D01*
X154436000Y-71484452D01*
X154436000Y-71479884D01*
X154944000Y-71479884D01*
X154948475Y-71495123D01*
X154949865Y-71496328D01*
X154957548Y-71497999D01*
X155584669Y-71497999D01*
X155591490Y-71497629D01*
X155642352Y-71492105D01*
X155657604Y-71488479D01*
X155778054Y-71443324D01*
X155793649Y-71434786D01*
X155895724Y-71358285D01*
X155908285Y-71345724D01*
X155984786Y-71243649D01*
X155993324Y-71228054D01*
X156038478Y-71107606D01*
X156042105Y-71092351D01*
X156047631Y-71041486D01*
X156048000Y-71034672D01*
X156048000Y-70857684D01*
X156068002Y-70789563D01*
X156121658Y-70743070D01*
X156191932Y-70732966D01*
X156256512Y-70762460D01*
X156276895Y-70784962D01*
X156351405Y-70890391D01*
X156355539Y-70894418D01*
X156487485Y-71022954D01*
X156502865Y-71037937D01*
X156507661Y-71041142D01*
X156507664Y-71041144D01*
X156597932Y-71101459D01*
X156678677Y-71155411D01*
X156683985Y-71157692D01*
X156683986Y-71157692D01*
X156867650Y-71236600D01*
X156867653Y-71236601D01*
X156872953Y-71238878D01*
X156878582Y-71240152D01*
X156878583Y-71240152D01*
X157073550Y-71284269D01*
X157073553Y-71284269D01*
X157079186Y-71285544D01*
X157084957Y-71285771D01*
X157084959Y-71285771D01*
X157145584Y-71288153D01*
X157290470Y-71293846D01*
X157296179Y-71293018D01*
X157296183Y-71293018D01*
X157494015Y-71264333D01*
X157494019Y-71264332D01*
X157499730Y-71263504D01*
X157578987Y-71236600D01*
X157694483Y-71197395D01*
X157694488Y-71197393D01*
X157699955Y-71195537D01*
X157706471Y-71191888D01*
X157879395Y-71095046D01*
X157879399Y-71095043D01*
X157884442Y-71092219D01*
X158047012Y-70957012D01*
X158182219Y-70794442D01*
X158185043Y-70789399D01*
X158185046Y-70789395D01*
X158282713Y-70614998D01*
X158282714Y-70614996D01*
X158285537Y-70609955D01*
X158287393Y-70604488D01*
X158287395Y-70604483D01*
X158351647Y-70415200D01*
X158353504Y-70409730D01*
X158354333Y-70404015D01*
X158375090Y-70260860D01*
X158404660Y-70196315D01*
X158464432Y-70158003D01*
X158535429Y-70158087D01*
X158595109Y-70196542D01*
X158624525Y-70261158D01*
X158625515Y-70270695D01*
X158628796Y-70320749D01*
X158630217Y-70326345D01*
X158630218Y-70326350D01*
X158664093Y-70459730D01*
X158680845Y-70525690D01*
X158769369Y-70717714D01*
X158891405Y-70890391D01*
X158895539Y-70894418D01*
X159027485Y-71022954D01*
X159042865Y-71037937D01*
X159047661Y-71041142D01*
X159047664Y-71041144D01*
X159137932Y-71101459D01*
X159218677Y-71155411D01*
X159223985Y-71157692D01*
X159223986Y-71157692D01*
X159407650Y-71236600D01*
X159407653Y-71236601D01*
X159412953Y-71238878D01*
X159418582Y-71240152D01*
X159418583Y-71240152D01*
X159613550Y-71284269D01*
X159613553Y-71284269D01*
X159619186Y-71285544D01*
X159624957Y-71285771D01*
X159624959Y-71285771D01*
X159685584Y-71288153D01*
X159830470Y-71293846D01*
X159836179Y-71293018D01*
X159836183Y-71293018D01*
X160034015Y-71264333D01*
X160034019Y-71264332D01*
X160039730Y-71263504D01*
X160118987Y-71236600D01*
X160234483Y-71197395D01*
X160234488Y-71197393D01*
X160239955Y-71195537D01*
X160246471Y-71191888D01*
X160419395Y-71095046D01*
X160419399Y-71095043D01*
X160424442Y-71092219D01*
X160587012Y-70957012D01*
X160722219Y-70794442D01*
X160725043Y-70789399D01*
X160725046Y-70789395D01*
X160822713Y-70614998D01*
X160822714Y-70614996D01*
X160825537Y-70609955D01*
X160827393Y-70604488D01*
X160827395Y-70604483D01*
X160891647Y-70415200D01*
X160893504Y-70409730D01*
X160894333Y-70404015D01*
X160915090Y-70260860D01*
X160944660Y-70196315D01*
X161004432Y-70158003D01*
X161075429Y-70158087D01*
X161135109Y-70196542D01*
X161164525Y-70261158D01*
X161165515Y-70270695D01*
X161168796Y-70320749D01*
X161170217Y-70326345D01*
X161170218Y-70326350D01*
X161204093Y-70459730D01*
X161220845Y-70525690D01*
X161309369Y-70717714D01*
X161431405Y-70890391D01*
X161435539Y-70894418D01*
X161567485Y-71022954D01*
X161582865Y-71037937D01*
X161587661Y-71041142D01*
X161587664Y-71041144D01*
X161677932Y-71101459D01*
X161758677Y-71155411D01*
X161763985Y-71157692D01*
X161763986Y-71157692D01*
X161947650Y-71236600D01*
X161947653Y-71236601D01*
X161952953Y-71238878D01*
X161958582Y-71240152D01*
X161958583Y-71240152D01*
X162153550Y-71284269D01*
X162153553Y-71284269D01*
X162159186Y-71285544D01*
X162164957Y-71285771D01*
X162164959Y-71285771D01*
X162225584Y-71288153D01*
X162370470Y-71293846D01*
X162376179Y-71293018D01*
X162376183Y-71293018D01*
X162574015Y-71264333D01*
X162574019Y-71264332D01*
X162579730Y-71263504D01*
X162658987Y-71236600D01*
X162774483Y-71197395D01*
X162774488Y-71197393D01*
X162779955Y-71195537D01*
X162786471Y-71191888D01*
X162959395Y-71095046D01*
X162959399Y-71095043D01*
X162964442Y-71092219D01*
X163127012Y-70957012D01*
X163262219Y-70794442D01*
X163265043Y-70789399D01*
X163265046Y-70789395D01*
X163362713Y-70614998D01*
X163362714Y-70614996D01*
X163365537Y-70609955D01*
X163367393Y-70604488D01*
X163367395Y-70604483D01*
X163431647Y-70415200D01*
X163433504Y-70409730D01*
X163434333Y-70404015D01*
X163455090Y-70260860D01*
X163484660Y-70196315D01*
X163544432Y-70158003D01*
X163615429Y-70158087D01*
X163675109Y-70196542D01*
X163704525Y-70261158D01*
X163705515Y-70270695D01*
X163708796Y-70320749D01*
X163710217Y-70326345D01*
X163710218Y-70326350D01*
X163744093Y-70459730D01*
X163760845Y-70525690D01*
X163849369Y-70717714D01*
X163971405Y-70890391D01*
X163975539Y-70894418D01*
X164107485Y-71022954D01*
X164122865Y-71037937D01*
X164127661Y-71041142D01*
X164127664Y-71041144D01*
X164217932Y-71101459D01*
X164298677Y-71155411D01*
X164303985Y-71157692D01*
X164303986Y-71157692D01*
X164487650Y-71236600D01*
X164487653Y-71236601D01*
X164492953Y-71238878D01*
X164498582Y-71240152D01*
X164498583Y-71240152D01*
X164693550Y-71284269D01*
X164693553Y-71284269D01*
X164699186Y-71285544D01*
X164704957Y-71285771D01*
X164704959Y-71285771D01*
X164765584Y-71288153D01*
X164910470Y-71293846D01*
X164916179Y-71293018D01*
X164916183Y-71293018D01*
X165114015Y-71264333D01*
X165114019Y-71264332D01*
X165119730Y-71263504D01*
X165198987Y-71236600D01*
X165314483Y-71197395D01*
X165314488Y-71197393D01*
X165319955Y-71195537D01*
X165326471Y-71191888D01*
X165499395Y-71095046D01*
X165499399Y-71095043D01*
X165504442Y-71092219D01*
X165667012Y-70957012D01*
X165802219Y-70794442D01*
X165805043Y-70789399D01*
X165805046Y-70789395D01*
X165902713Y-70614998D01*
X165902714Y-70614996D01*
X165905537Y-70609955D01*
X165907393Y-70604488D01*
X165907395Y-70604483D01*
X165971647Y-70415200D01*
X165973504Y-70409730D01*
X165974818Y-70400673D01*
X166003314Y-70204140D01*
X166003314Y-70204138D01*
X166003846Y-70200470D01*
X166005429Y-70140000D01*
X165986081Y-69929440D01*
X165973359Y-69884329D01*
X165944357Y-69781496D01*
X165928686Y-69725931D01*
X165917553Y-69703354D01*
X165837719Y-69541469D01*
X165835165Y-69536290D01*
X165708651Y-69366867D01*
X165569875Y-69238584D01*
X165557622Y-69227257D01*
X165557620Y-69227255D01*
X165553381Y-69223337D01*
X165448485Y-69157152D01*
X165379434Y-69113584D01*
X165379433Y-69113584D01*
X165374554Y-69110505D01*
X165178160Y-69032152D01*
X165172503Y-69031027D01*
X165172497Y-69031025D01*
X164976442Y-68992028D01*
X164976440Y-68992028D01*
X164970775Y-68990901D01*
X164965000Y-68990825D01*
X164964996Y-68990825D01*
X164858976Y-68989437D01*
X164759346Y-68988133D01*
X164753649Y-68989112D01*
X164753648Y-68989112D01*
X164556650Y-69022962D01*
X164556649Y-69022962D01*
X164550953Y-69023941D01*
X164352575Y-69097127D01*
X164347614Y-69100079D01*
X164347613Y-69100079D01*
X164200421Y-69187649D01*
X164170856Y-69205238D01*
X164011881Y-69344655D01*
X163880976Y-69510708D01*
X163878287Y-69515819D01*
X163878285Y-69515822D01*
X163851979Y-69565822D01*
X163782523Y-69697836D01*
X163719820Y-69899773D01*
X163719141Y-69905510D01*
X163705088Y-70024239D01*
X163677217Y-70089537D01*
X163618469Y-70129401D01*
X163547494Y-70131174D01*
X163486828Y-70094295D01*
X163455730Y-70030471D01*
X163454490Y-70020958D01*
X163453422Y-70009329D01*
X163446081Y-69929440D01*
X163433359Y-69884329D01*
X163404357Y-69781496D01*
X163388686Y-69725931D01*
X163377553Y-69703354D01*
X163297719Y-69541469D01*
X163295165Y-69536290D01*
X163168651Y-69366867D01*
X163029875Y-69238584D01*
X163017622Y-69227257D01*
X163017620Y-69227255D01*
X163013381Y-69223337D01*
X162908485Y-69157152D01*
X162839434Y-69113584D01*
X162839433Y-69113584D01*
X162834554Y-69110505D01*
X162638160Y-69032152D01*
X162632503Y-69031027D01*
X162632497Y-69031025D01*
X162436442Y-68992028D01*
X162436440Y-68992028D01*
X162430775Y-68990901D01*
X162425000Y-68990825D01*
X162424996Y-68990825D01*
X162318976Y-68989437D01*
X162219346Y-68988133D01*
X162213649Y-68989112D01*
X162213648Y-68989112D01*
X162016650Y-69022962D01*
X162016649Y-69022962D01*
X162010953Y-69023941D01*
X161812575Y-69097127D01*
X161807614Y-69100079D01*
X161807613Y-69100079D01*
X161660421Y-69187649D01*
X161630856Y-69205238D01*
X161471881Y-69344655D01*
X161340976Y-69510708D01*
X161338287Y-69515819D01*
X161338285Y-69515822D01*
X161311979Y-69565822D01*
X161242523Y-69697836D01*
X161179820Y-69899773D01*
X161179141Y-69905510D01*
X161165088Y-70024239D01*
X161137217Y-70089537D01*
X161078469Y-70129401D01*
X161007494Y-70131174D01*
X160946828Y-70094295D01*
X160915730Y-70030471D01*
X160914490Y-70020958D01*
X160913422Y-70009329D01*
X160906081Y-69929440D01*
X160893359Y-69884329D01*
X160864357Y-69781496D01*
X160848686Y-69725931D01*
X160837553Y-69703354D01*
X160757719Y-69541469D01*
X160755165Y-69536290D01*
X160628651Y-69366867D01*
X160489875Y-69238584D01*
X160477622Y-69227257D01*
X160477620Y-69227255D01*
X160473381Y-69223337D01*
X160368485Y-69157152D01*
X160299434Y-69113584D01*
X160299433Y-69113584D01*
X160294554Y-69110505D01*
X160098160Y-69032152D01*
X160092503Y-69031027D01*
X160092497Y-69031025D01*
X159896442Y-68992028D01*
X159896440Y-68992028D01*
X159890775Y-68990901D01*
X159885000Y-68990825D01*
X159884996Y-68990825D01*
X159778976Y-68989437D01*
X159679346Y-68988133D01*
X159673649Y-68989112D01*
X159673648Y-68989112D01*
X159476650Y-69022962D01*
X159476649Y-69022962D01*
X159470953Y-69023941D01*
X159272575Y-69097127D01*
X159267614Y-69100079D01*
X159267613Y-69100079D01*
X159120421Y-69187649D01*
X159090856Y-69205238D01*
X158931881Y-69344655D01*
X158800976Y-69510708D01*
X158798287Y-69515819D01*
X158798285Y-69515822D01*
X158771979Y-69565822D01*
X158702523Y-69697836D01*
X158639820Y-69899773D01*
X158639141Y-69905510D01*
X158625088Y-70024239D01*
X158597217Y-70089537D01*
X158538469Y-70129401D01*
X158467494Y-70131174D01*
X158406828Y-70094295D01*
X158375730Y-70030471D01*
X158374490Y-70020958D01*
X158373422Y-70009329D01*
X158366081Y-69929440D01*
X158353359Y-69884329D01*
X158324357Y-69781496D01*
X158308686Y-69725931D01*
X158297553Y-69703354D01*
X158217719Y-69541469D01*
X158215165Y-69536290D01*
X158088651Y-69366867D01*
X157949875Y-69238584D01*
X157937622Y-69227257D01*
X157937620Y-69227255D01*
X157933381Y-69223337D01*
X157828485Y-69157152D01*
X157759434Y-69113584D01*
X157759433Y-69113584D01*
X157754554Y-69110505D01*
X157558160Y-69032152D01*
X157552503Y-69031027D01*
X157552497Y-69031025D01*
X157356442Y-68992028D01*
X157356440Y-68992028D01*
X157350775Y-68990901D01*
X157345000Y-68990825D01*
X157344996Y-68990825D01*
X157238976Y-68989437D01*
X157139346Y-68988133D01*
X157133649Y-68989112D01*
X157133648Y-68989112D01*
X156936650Y-69022962D01*
X156936649Y-69022962D01*
X156930953Y-69023941D01*
X156732575Y-69097127D01*
X156727614Y-69100079D01*
X156727613Y-69100079D01*
X156580421Y-69187649D01*
X156550856Y-69205238D01*
X156391881Y-69344655D01*
X156339006Y-69411727D01*
X156272949Y-69495520D01*
X156215068Y-69536633D01*
X156144148Y-69539927D01*
X156082705Y-69504356D01*
X156050248Y-69441213D01*
X156047999Y-69417514D01*
X156047999Y-69245331D01*
X156047629Y-69238510D01*
X156042105Y-69187648D01*
X156038479Y-69172396D01*
X155993324Y-69051946D01*
X155984786Y-69036351D01*
X155908285Y-68934276D01*
X155895724Y-68921715D01*
X155793649Y-68845214D01*
X155778054Y-68836676D01*
X155657606Y-68791522D01*
X155642351Y-68787895D01*
X155591486Y-68782369D01*
X155584672Y-68782000D01*
X154962115Y-68782000D01*
X154946876Y-68786475D01*
X154945671Y-68787865D01*
X154944000Y-68795548D01*
X154944000Y-71479884D01*
X154436000Y-71479884D01*
X154436000Y-70412115D01*
X154431525Y-70396876D01*
X154430135Y-70395671D01*
X154422452Y-70394000D01*
X153350116Y-70394000D01*
X153334877Y-70398475D01*
X153333672Y-70399865D01*
X153332001Y-70407548D01*
X153332001Y-71034669D01*
X150844267Y-71034669D01*
X150890003Y-70971020D01*
X150895313Y-70962183D01*
X150989670Y-70771267D01*
X150993469Y-70761672D01*
X151055377Y-70557910D01*
X151057555Y-70547837D01*
X151058986Y-70536962D01*
X151056775Y-70522778D01*
X151043617Y-70519000D01*
X149597000Y-70519000D01*
X149528879Y-70498998D01*
X149482386Y-70445342D01*
X149471000Y-70393000D01*
X149471000Y-69992885D01*
X149979000Y-69992885D01*
X149983475Y-70008124D01*
X149984865Y-70009329D01*
X149992548Y-70011000D01*
X151043344Y-70011000D01*
X151056875Y-70007027D01*
X151058180Y-69997947D01*
X151025510Y-69867885D01*
X153332000Y-69867885D01*
X153336475Y-69883124D01*
X153337865Y-69884329D01*
X153345548Y-69886000D01*
X154417885Y-69886000D01*
X154433124Y-69881525D01*
X154434329Y-69880135D01*
X154436000Y-69872452D01*
X154436000Y-68800116D01*
X154431525Y-68784877D01*
X154430135Y-68783672D01*
X154422452Y-68782001D01*
X153795331Y-68782001D01*
X153788510Y-68782371D01*
X153737648Y-68787895D01*
X153722396Y-68791521D01*
X153601946Y-68836676D01*
X153586351Y-68845214D01*
X153484276Y-68921715D01*
X153471715Y-68934276D01*
X153395214Y-69036351D01*
X153386676Y-69051946D01*
X153341522Y-69172394D01*
X153337895Y-69187649D01*
X153332369Y-69238514D01*
X153332000Y-69245328D01*
X153332000Y-69867885D01*
X151025510Y-69867885D01*
X151016214Y-69830875D01*
X151012894Y-69821124D01*
X150927972Y-69625814D01*
X150923105Y-69616739D01*
X150807426Y-69437926D01*
X150801136Y-69429757D01*
X150657806Y-69272240D01*
X150650273Y-69265215D01*
X150483139Y-69133222D01*
X150474552Y-69127517D01*
X150288117Y-69024599D01*
X150278705Y-69020369D01*
X150077959Y-68949280D01*
X150067988Y-68946646D01*
X149996837Y-68933972D01*
X149983540Y-68935432D01*
X149979000Y-68949989D01*
X149979000Y-69992885D01*
X149471000Y-69992885D01*
X149471000Y-68948102D01*
X149467082Y-68934758D01*
X149452806Y-68932771D01*
X149414324Y-68938660D01*
X149404288Y-68941051D01*
X149201868Y-69007212D01*
X149192359Y-69011209D01*
X149003463Y-69109542D01*
X148994738Y-69115036D01*
X148824433Y-69242905D01*
X148816726Y-69249748D01*
X148669590Y-69403717D01*
X148663104Y-69411727D01*
X148543098Y-69587649D01*
X148538000Y-69596623D01*
X148455033Y-69775360D01*
X148408209Y-69828727D01*
X148339965Y-69848308D01*
X148271970Y-69827884D01*
X148227739Y-69778038D01*
X148172721Y-69666473D01*
X148172719Y-69666469D01*
X148170165Y-69661290D01*
X148043651Y-69491867D01*
X147916236Y-69374086D01*
X147892622Y-69352257D01*
X147892620Y-69352255D01*
X147888381Y-69348337D01*
X147810214Y-69299017D01*
X147714434Y-69238584D01*
X147714433Y-69238584D01*
X147709554Y-69235505D01*
X147513160Y-69157152D01*
X147507503Y-69156027D01*
X147507497Y-69156025D01*
X147311442Y-69117028D01*
X147311440Y-69117028D01*
X147305775Y-69115901D01*
X147300000Y-69115825D01*
X147299996Y-69115825D01*
X147193976Y-69114437D01*
X147094346Y-69113133D01*
X147088649Y-69114112D01*
X147088648Y-69114112D01*
X146891650Y-69147962D01*
X146891649Y-69147962D01*
X146885953Y-69148941D01*
X146687575Y-69222127D01*
X146682614Y-69225079D01*
X146682613Y-69225079D01*
X146622222Y-69261008D01*
X146505856Y-69330238D01*
X146346881Y-69469655D01*
X146215976Y-69635708D01*
X146213287Y-69640819D01*
X146213285Y-69640822D01*
X146185980Y-69692720D01*
X146117523Y-69822836D01*
X146054820Y-70024773D01*
X146054141Y-70030510D01*
X146040088Y-70149239D01*
X146012217Y-70214537D01*
X145953469Y-70254401D01*
X145882494Y-70256174D01*
X145821828Y-70219295D01*
X145790730Y-70155471D01*
X145789490Y-70145958D01*
X145789338Y-70144295D01*
X145781081Y-70054440D01*
X145768359Y-70009329D01*
X145747451Y-69935197D01*
X145723686Y-69850931D01*
X145713796Y-69830875D01*
X145632719Y-69666469D01*
X145630165Y-69661290D01*
X145503651Y-69491867D01*
X145376236Y-69374086D01*
X145352622Y-69352257D01*
X145352620Y-69352255D01*
X145348381Y-69348337D01*
X145270214Y-69299017D01*
X145174434Y-69238584D01*
X145174433Y-69238584D01*
X145169554Y-69235505D01*
X144973160Y-69157152D01*
X144967503Y-69156027D01*
X144967497Y-69156025D01*
X144771442Y-69117028D01*
X144771440Y-69117028D01*
X144765775Y-69115901D01*
X144760000Y-69115825D01*
X144759996Y-69115825D01*
X144653976Y-69114437D01*
X144554346Y-69113133D01*
X144548649Y-69114112D01*
X144548648Y-69114112D01*
X144351650Y-69147962D01*
X144351649Y-69147962D01*
X144345953Y-69148941D01*
X144147575Y-69222127D01*
X144142614Y-69225079D01*
X144142613Y-69225079D01*
X144082222Y-69261008D01*
X143965856Y-69330238D01*
X143806881Y-69469655D01*
X143675976Y-69635708D01*
X143673287Y-69640819D01*
X143673285Y-69640822D01*
X143645980Y-69692720D01*
X143577523Y-69822836D01*
X143514820Y-70024773D01*
X143514141Y-70030510D01*
X143500088Y-70149239D01*
X143472217Y-70214537D01*
X143413469Y-70254401D01*
X143342494Y-70256174D01*
X143281828Y-70219295D01*
X143250730Y-70155471D01*
X143249490Y-70145958D01*
X143249338Y-70144295D01*
X143241081Y-70054440D01*
X143228359Y-70009329D01*
X143207451Y-69935197D01*
X143183686Y-69850931D01*
X143173796Y-69830875D01*
X143092719Y-69666469D01*
X143090165Y-69661290D01*
X142963651Y-69491867D01*
X142836236Y-69374086D01*
X142812622Y-69352257D01*
X142812620Y-69352255D01*
X142808381Y-69348337D01*
X142730214Y-69299017D01*
X142634434Y-69238584D01*
X142634433Y-69238584D01*
X142629554Y-69235505D01*
X142433160Y-69157152D01*
X142427503Y-69156027D01*
X142427497Y-69156025D01*
X142231442Y-69117028D01*
X142231440Y-69117028D01*
X142225775Y-69115901D01*
X142220000Y-69115825D01*
X142219996Y-69115825D01*
X142113976Y-69114437D01*
X142014346Y-69113133D01*
X142008649Y-69114112D01*
X142008648Y-69114112D01*
X141811650Y-69147962D01*
X141811649Y-69147962D01*
X141805953Y-69148941D01*
X141607575Y-69222127D01*
X141602614Y-69225079D01*
X141602613Y-69225079D01*
X141542222Y-69261008D01*
X141425856Y-69330238D01*
X141266881Y-69469655D01*
X141135976Y-69635708D01*
X141133287Y-69640819D01*
X141133285Y-69640822D01*
X141105980Y-69692720D01*
X141037523Y-69822836D01*
X140974820Y-70024773D01*
X140974141Y-70030510D01*
X140960088Y-70149239D01*
X140932217Y-70214537D01*
X140873469Y-70254401D01*
X140802494Y-70256174D01*
X140741828Y-70219295D01*
X140710730Y-70155471D01*
X140709490Y-70145958D01*
X140709338Y-70144295D01*
X140701081Y-70054440D01*
X140688359Y-70009329D01*
X140667451Y-69935197D01*
X140643686Y-69850931D01*
X140633796Y-69830875D01*
X140552719Y-69666469D01*
X140550165Y-69661290D01*
X140423651Y-69491867D01*
X140296236Y-69374086D01*
X140272622Y-69352257D01*
X140272620Y-69352255D01*
X140268381Y-69348337D01*
X140190214Y-69299017D01*
X140094434Y-69238584D01*
X140094433Y-69238584D01*
X140089554Y-69235505D01*
X139893160Y-69157152D01*
X139887503Y-69156027D01*
X139887497Y-69156025D01*
X139691442Y-69117028D01*
X139691440Y-69117028D01*
X139685775Y-69115901D01*
X139680000Y-69115825D01*
X139679996Y-69115825D01*
X139573976Y-69114437D01*
X139474346Y-69113133D01*
X139468649Y-69114112D01*
X139468648Y-69114112D01*
X139271650Y-69147962D01*
X139271649Y-69147962D01*
X139265953Y-69148941D01*
X139067575Y-69222127D01*
X139062614Y-69225079D01*
X139062613Y-69225079D01*
X139002222Y-69261008D01*
X138885856Y-69330238D01*
X138726881Y-69469655D01*
X138595976Y-69635708D01*
X138593287Y-69640819D01*
X138593285Y-69640822D01*
X138565980Y-69692720D01*
X138497523Y-69822836D01*
X138434820Y-70024773D01*
X138434141Y-70030510D01*
X138420088Y-70149239D01*
X138392217Y-70214537D01*
X138333469Y-70254401D01*
X138262494Y-70256174D01*
X138201828Y-70219295D01*
X138170730Y-70155471D01*
X138169490Y-70145958D01*
X138169338Y-70144295D01*
X138161081Y-70054440D01*
X138148359Y-70009329D01*
X138127451Y-69935197D01*
X138103686Y-69850931D01*
X138093796Y-69830875D01*
X138012719Y-69666469D01*
X138010165Y-69661290D01*
X137883651Y-69491867D01*
X137756236Y-69374086D01*
X137732622Y-69352257D01*
X137732620Y-69352255D01*
X137728381Y-69348337D01*
X137650214Y-69299017D01*
X137554434Y-69238584D01*
X137554433Y-69238584D01*
X137549554Y-69235505D01*
X137353160Y-69157152D01*
X137347503Y-69156027D01*
X137347497Y-69156025D01*
X137151442Y-69117028D01*
X137151440Y-69117028D01*
X137145775Y-69115901D01*
X137140000Y-69115825D01*
X137139996Y-69115825D01*
X137033976Y-69114437D01*
X136934346Y-69113133D01*
X136928649Y-69114112D01*
X136928648Y-69114112D01*
X136731650Y-69147962D01*
X136731649Y-69147962D01*
X136725953Y-69148941D01*
X136527575Y-69222127D01*
X136522614Y-69225079D01*
X136522613Y-69225079D01*
X136462222Y-69261008D01*
X136345856Y-69330238D01*
X136186881Y-69469655D01*
X136055976Y-69635708D01*
X136053287Y-69640819D01*
X136053285Y-69640822D01*
X136025980Y-69692720D01*
X135957523Y-69822836D01*
X135894820Y-70024773D01*
X135894141Y-70030510D01*
X135880088Y-70149239D01*
X135852217Y-70214537D01*
X135793469Y-70254401D01*
X135722494Y-70256174D01*
X135661828Y-70219295D01*
X135630730Y-70155471D01*
X135629490Y-70145958D01*
X135629338Y-70144295D01*
X135621081Y-70054440D01*
X135608359Y-70009329D01*
X135587451Y-69935197D01*
X135563686Y-69850931D01*
X135553796Y-69830875D01*
X135472719Y-69666469D01*
X135470165Y-69661290D01*
X135343651Y-69491867D01*
X135216236Y-69374086D01*
X135192622Y-69352257D01*
X135192620Y-69352255D01*
X135188381Y-69348337D01*
X135110214Y-69299017D01*
X135014434Y-69238584D01*
X135014433Y-69238584D01*
X135009554Y-69235505D01*
X134813160Y-69157152D01*
X134807503Y-69156027D01*
X134807497Y-69156025D01*
X134611442Y-69117028D01*
X134611440Y-69117028D01*
X134605775Y-69115901D01*
X134600000Y-69115825D01*
X134599996Y-69115825D01*
X134493976Y-69114437D01*
X134394346Y-69113133D01*
X134388649Y-69114112D01*
X134388648Y-69114112D01*
X134191650Y-69147962D01*
X134191649Y-69147962D01*
X134185953Y-69148941D01*
X133987575Y-69222127D01*
X133982614Y-69225079D01*
X133982613Y-69225079D01*
X133922222Y-69261008D01*
X133805856Y-69330238D01*
X133646881Y-69469655D01*
X133515976Y-69635708D01*
X133513287Y-69640819D01*
X133513285Y-69640822D01*
X133485980Y-69692720D01*
X133417523Y-69822836D01*
X133354820Y-70024773D01*
X133354141Y-70030510D01*
X133340088Y-70149239D01*
X133312217Y-70214537D01*
X133253469Y-70254401D01*
X133182494Y-70256174D01*
X133121828Y-70219295D01*
X133090730Y-70155471D01*
X133089490Y-70145958D01*
X133089338Y-70144295D01*
X133081081Y-70054440D01*
X133068359Y-70009329D01*
X133047451Y-69935197D01*
X133023686Y-69850931D01*
X133013796Y-69830875D01*
X132932719Y-69666469D01*
X132930165Y-69661290D01*
X132803651Y-69491867D01*
X132676236Y-69374086D01*
X132652622Y-69352257D01*
X132652620Y-69352255D01*
X132648381Y-69348337D01*
X132570214Y-69299017D01*
X132474434Y-69238584D01*
X132474433Y-69238584D01*
X132469554Y-69235505D01*
X132273160Y-69157152D01*
X132267503Y-69156027D01*
X132267497Y-69156025D01*
X132071442Y-69117028D01*
X132071440Y-69117028D01*
X132065775Y-69115901D01*
X132060000Y-69115825D01*
X132059996Y-69115825D01*
X131953976Y-69114437D01*
X131854346Y-69113133D01*
X131848649Y-69114112D01*
X131848648Y-69114112D01*
X131651650Y-69147962D01*
X131651649Y-69147962D01*
X131645953Y-69148941D01*
X131447575Y-69222127D01*
X131442614Y-69225079D01*
X131442613Y-69225079D01*
X131382222Y-69261008D01*
X131265856Y-69330238D01*
X131106881Y-69469655D01*
X130975976Y-69635708D01*
X130973287Y-69640819D01*
X130973285Y-69640822D01*
X130945980Y-69692720D01*
X130877523Y-69822836D01*
X130814820Y-70024773D01*
X130814141Y-70030510D01*
X130800088Y-70149239D01*
X130772217Y-70214537D01*
X130713469Y-70254401D01*
X130642494Y-70256174D01*
X130581828Y-70219295D01*
X130550730Y-70155471D01*
X130549490Y-70145958D01*
X130549338Y-70144295D01*
X130541081Y-70054440D01*
X130528359Y-70009329D01*
X130507451Y-69935197D01*
X130483686Y-69850931D01*
X130473796Y-69830875D01*
X130392719Y-69666469D01*
X130390165Y-69661290D01*
X130263651Y-69491867D01*
X130136236Y-69374086D01*
X130112622Y-69352257D01*
X130112620Y-69352255D01*
X130108381Y-69348337D01*
X130030214Y-69299017D01*
X129934434Y-69238584D01*
X129934433Y-69238584D01*
X129929554Y-69235505D01*
X129733160Y-69157152D01*
X129727503Y-69156027D01*
X129727497Y-69156025D01*
X129531442Y-69117028D01*
X129531440Y-69117028D01*
X129525775Y-69115901D01*
X129520000Y-69115825D01*
X129519996Y-69115825D01*
X129413976Y-69114437D01*
X129314346Y-69113133D01*
X129308649Y-69114112D01*
X129308648Y-69114112D01*
X129111650Y-69147962D01*
X129111649Y-69147962D01*
X129105953Y-69148941D01*
X128907575Y-69222127D01*
X128902614Y-69225079D01*
X128902613Y-69225079D01*
X128842222Y-69261008D01*
X128725856Y-69330238D01*
X128566881Y-69469655D01*
X128435976Y-69635708D01*
X128433287Y-69640819D01*
X128433285Y-69640822D01*
X128405980Y-69692720D01*
X128337523Y-69822836D01*
X128274820Y-70024773D01*
X128274141Y-70030510D01*
X128266627Y-70093995D01*
X128238756Y-70159292D01*
X128180008Y-70199156D01*
X128109034Y-70200930D01*
X128048367Y-70164051D01*
X128017269Y-70100227D01*
X128015500Y-70079185D01*
X128015500Y-69370354D01*
X128012382Y-69344154D01*
X127974580Y-69259048D01*
X127971663Y-69252482D01*
X127966939Y-69241847D01*
X127958444Y-69233366D01*
X127902906Y-69177926D01*
X127887713Y-69162759D01*
X127877076Y-69158056D01*
X127877074Y-69158055D01*
X127807998Y-69127517D01*
X127785327Y-69117494D01*
X127759646Y-69114500D01*
X125970354Y-69114500D01*
X125966650Y-69114941D01*
X125966647Y-69114941D01*
X125959254Y-69115821D01*
X125944154Y-69117618D01*
X125935514Y-69121456D01*
X125935513Y-69121456D01*
X125869131Y-69150942D01*
X125841847Y-69163061D01*
X125762759Y-69242287D01*
X125758056Y-69252924D01*
X125758055Y-69252926D01*
X125737648Y-69299086D01*
X125717494Y-69344673D01*
X125714500Y-69370354D01*
X125714500Y-71159646D01*
X125717618Y-71185846D01*
X125721456Y-71194486D01*
X125721456Y-71194487D01*
X125756281Y-71272890D01*
X125763061Y-71288153D01*
X125771294Y-71296372D01*
X125771295Y-71296373D01*
X125797363Y-71322395D01*
X125842287Y-71367241D01*
X125852924Y-71371944D01*
X125852926Y-71371945D01*
X125890382Y-71388504D01*
X125944673Y-71412506D01*
X125970354Y-71415500D01*
X126679988Y-71415500D01*
X126748109Y-71435502D01*
X126794602Y-71489158D01*
X126804706Y-71559432D01*
X126775212Y-71624012D01*
X126715486Y-71662396D01*
X126701326Y-71665680D01*
X126571650Y-71687962D01*
X126571649Y-71687962D01*
X126565953Y-71688941D01*
X126367575Y-71762127D01*
X126362614Y-71765079D01*
X126362613Y-71765079D01*
X126345089Y-71775505D01*
X126185856Y-71870238D01*
X126026881Y-72009655D01*
X125895976Y-72175708D01*
X125893287Y-72180819D01*
X125893285Y-72180822D01*
X125879792Y-72206469D01*
X125797523Y-72362836D01*
X125734820Y-72564773D01*
X125709967Y-72774754D01*
X122590500Y-72774754D01*
X122590500Y-68077317D01*
X122592414Y-68055437D01*
X122593222Y-68050855D01*
X122595136Y-68040000D01*
X122593222Y-68029145D01*
X122593222Y-68018122D01*
X122593587Y-68018122D01*
X122592949Y-68005764D01*
X122607155Y-67807123D01*
X122609714Y-67789327D01*
X122615616Y-67762199D01*
X122657426Y-67570004D01*
X122662490Y-67552756D01*
X122740931Y-67342444D01*
X122748400Y-67326090D01*
X122855971Y-67129090D01*
X122865690Y-67113967D01*
X123000206Y-66934275D01*
X123011979Y-66920689D01*
X123170689Y-66761979D01*
X123184275Y-66750206D01*
X123363967Y-66615690D01*
X123379087Y-66605973D01*
X123576094Y-66498398D01*
X123592440Y-66490933D01*
X123802755Y-66412490D01*
X123820004Y-66407426D01*
X123871133Y-66396303D01*
X124039331Y-66359713D01*
X124057119Y-66357156D01*
X124159790Y-66349813D01*
X124255764Y-66342949D01*
X124268122Y-66343587D01*
X124268122Y-66343222D01*
X124279145Y-66343222D01*
X124290000Y-66345136D01*
X124305437Y-66342414D01*
X124327317Y-66340500D01*
X187252683Y-66340500D01*
X187274563Y-66342414D01*
G37*
%TD.AperFunction*%
%TD*%
M02*
